<svg width="290" height="489" viewBox="0 0 290 489" fill="none" xmlns="http://www.w3.org/2000/svg">
<rect width="145" height="162.593" fill="#851E8E"/>
<rect x="145" width="145" height="162.593" fill="#EB7768"/>
<rect y="162.593" width="145" height="163.815" fill="#ACF908"/>
<rect x="145" y="162.593" width="145" height="163.815" fill="#F9E108"/>
<rect x="145" y="325.185" width="145" height="163.815" fill="white"/>
<path d="M210.032 106.626L189.709 55.0125H219.572L239.688 96.5552L210.032 106.626Z" fill="white" stroke="black" stroke-width="4"/>
<path d="M210.117 65.5031L189.709 55.0125H219.696L239.895 63.4561L210.117 65.5031Z" fill="white" stroke="black" stroke-width="4"/>
<path d="M208.989 92.9884V85.2254L220.603 88.1628V68.8601" stroke="black" stroke-width="4"/>
<path d="M80.7846 111.777L50.8823 113.329L82.4041 99.0618L102.026 90.5626L80.7846 111.777Z" fill="white" stroke="black" stroke-width="4"/>
<path d="M78.8791 94.236L50.4765 106.5L51.7204 54.0587L93.248 78.9383L78.8791 94.236Z" fill="white" stroke="black" stroke-width="4"/>
<path d="M42.7964 41.1537L78.2584 94.0262" stroke="black" stroke-width="4"/>
<path d="M54.1982 34.23L43.207 41.3636L47.9768 46.399L55.4425 41.3636H50.258L54.1982 34.23Z" stroke="black" stroke-width="4"/>
<path d="M214.414 240.901L203.78 266.489L211.089 239.457L204.611 237.157L213.463 212.291L220.742 214.737L221.603 203.742L226.262 205.431L230.921 207.119L225.212 216.879L230.692 220.738L228.178 228.642L226.145 233.847L222.808 243.273L214.414 240.901Z" fill="white"/>
<path d="M217.944 230.395L226.145 233.847M226.145 233.847L222.808 243.273L214.414 240.901L203.78 266.489L211.089 239.457L204.611 237.157L213.463 212.291L220.742 214.737L221.603 203.742L226.262 205.431L230.921 207.119L225.212 216.879L230.692 220.738L228.178 228.642M226.145 233.847L228.178 228.642M228.178 228.642L219.709 225.142" stroke="black" stroke-width="4"/>
<path d="M94.4091 255.341L85.0855 290.056L85.0855 255.341L74.708 248.627L90.054 237.507L106.022 249.886L94.4091 255.341Z" fill="white" stroke="black" stroke-width="4"/>
<path d="M97.1865 226.66L65.25 188.265H95.1127L117.095 213.023L97.1865 226.66Z" fill="white" stroke="black" stroke-width="4"/>
<path d="M76.7293 202.935L15.7085 244.5L21.146 252.446L89.4168 216.994L76.7293 202.935Z" fill="white" stroke="black" stroke-width="4"/>
<rect y="326.408" width="145" height="162.593" fill="#333333"/>
<rect x="18.9165" y="371.195" width="253.375" height="74.24" fill="url(#paint0_linear)" stroke="#EB7768" stroke-width="4"/>
<path d="M94.379 401.67H90.473V406.134H87.341V401.67H83.435V414.09H87.341V408.87H90.473V414.09H94.379V401.67ZM104.687 411.408L105.317 414.09H109.295L106.073 402.678C105.911 402.066 105.389 401.67 104.759 401.67H101.213C100.583 401.67 100.061 402.066 99.8993 402.678L96.6773 414.09H100.655L101.285 411.408H104.687ZM104.057 408.672H101.915L102.527 406.008C102.617 405.558 102.689 405.036 102.743 404.586H103.229C103.265 405.036 103.355 405.558 103.445 406.008L104.057 408.672ZM118.252 397.71C118.396 398.826 118.018 399.096 117.334 399.096C116.632 399.096 116.254 398.826 116.398 397.71H114.112C113.824 399.258 115.12 400.824 117.334 400.824C119.548 400.824 120.826 399.258 120.538 397.71H118.252ZM122.752 414.09V401.67H119.044L116.02 407.286C115.714 407.862 115.444 408.528 115.228 409.194H115.102C115.21 408.51 115.3 407.79 115.3 407.178V401.67H111.592V414.09H115.318L118.36 408.366C118.684 407.754 118.918 407.124 119.116 406.458H119.242C119.134 407.106 119.044 407.736 119.044 408.384V414.09H122.752ZM136.259 404.586V401.67H125.405V404.586H128.879V414.09H132.785V404.586H136.259ZM150.066 414.09V401.67H146.358L143.334 407.286C143.028 407.862 142.758 408.528 142.542 409.194H142.416C142.524 408.51 142.614 407.79 142.614 407.178V401.67H138.906V414.09H142.632L145.674 408.366C145.998 407.754 146.232 407.124 146.43 406.458H146.556C146.448 407.106 146.358 407.736 146.358 408.384V414.09H150.066ZM168.036 410.868C166.83 410.994 165.768 411.012 163.968 411.012C162.744 411.012 162.438 410.4 162.438 407.88C162.438 405.36 162.744 404.748 163.968 404.748C165.678 404.748 166.506 404.766 167.766 404.784L168.054 401.94C166.812 401.598 165.912 401.454 163.968 401.454C159.846 401.454 158.334 403.146 158.334 407.88C158.334 412.614 159.846 414.306 163.968 414.306C165.912 414.306 167.064 414.144 168.324 413.712L168.036 410.868ZM180.176 411.174H175.622C175.172 411.174 174.884 410.904 174.884 410.526V409.032H179.528V406.44H174.884V405.234C174.884 404.856 175.172 404.586 175.622 404.586H180.176L180.356 401.832C178.556 401.598 176.036 401.598 173.894 401.598C172.184 401.598 170.978 402.75 170.978 404.424V411.336C170.978 413.01 172.184 414.162 173.894 414.162C176.036 414.162 178.556 414.162 180.356 413.928L180.176 411.174ZM187.208 406.476V404.46H192.428L192.716 401.67C191.168 401.58 189.638 401.526 187.928 401.526C186.506 401.526 184.886 401.562 183.302 401.67V414.09H183.41C185.102 414.216 186.614 414.234 188.972 414.234C192.14 414.234 193.598 413.352 193.598 410.31C193.598 407.34 192.302 406.476 188.45 406.476H187.208ZM187.208 411.534V408.834H188.45C189.494 408.834 189.692 409.086 189.692 410.184C189.692 411.282 189.494 411.534 188.45 411.534H187.208ZM198.556 408.33C197.908 408.42 196.864 408.762 196.576 410.274L195.64 414.09H199.726L200.5 410.4C200.626 409.716 200.842 409.554 201.472 409.554H202.444V414.09H206.35V401.67C204.748 401.508 203.65 401.49 201.238 401.49C197.692 401.49 196.144 402.372 196.144 405.27C196.144 406.764 196.684 408.024 198.556 408.222V408.33ZM202.444 406.8H201.328C200.302 406.8 200.068 406.548 200.068 405.522C200.068 404.496 200.302 404.244 201.328 404.244H202.444V406.8Z" fill="#F9E108"/>
<path d="M91.9625 400.447H88.0565V404.911H84.9245V400.447H81.0185V412.867H84.9245V407.647H88.0565V412.867H91.9625V400.447ZM102.271 410.185L102.901 412.867H106.879L103.657 401.455C103.495 400.843 102.973 400.447 102.343 400.447H98.7968C98.1668 400.447 97.6448 400.843 97.4828 401.455L94.2608 412.867H98.2388L98.8688 410.185H102.271ZM101.641 407.449H99.4988L100.111 404.785C100.201 404.335 100.273 403.813 100.327 403.363H100.813C100.849 403.813 100.939 404.335 101.029 404.785L101.641 407.449ZM115.836 396.487C115.98 397.603 115.602 397.873 114.918 397.873C114.216 397.873 113.838 397.603 113.982 396.487H111.696C111.408 398.035 112.704 399.601 114.918 399.601C117.132 399.601 118.41 398.035 118.122 396.487H115.836ZM120.336 412.867V400.447H116.628L113.604 406.063C113.298 406.639 113.028 407.305 112.812 407.971H112.686C112.794 407.287 112.884 406.567 112.884 405.955V400.447H109.176V412.867H112.902L115.944 407.143C116.268 406.531 116.502 405.901 116.7 405.235H116.826C116.718 405.883 116.628 406.513 116.628 407.161V412.867H120.336ZM133.843 403.363V400.447H122.989V403.363H126.463V412.867H130.369V403.363H133.843ZM147.649 412.867V400.447H143.941L140.917 406.063C140.611 406.639 140.341 407.305 140.125 407.971H139.999C140.107 407.287 140.197 406.567 140.197 405.955V400.447H136.489V412.867H140.215L143.257 407.143C143.581 406.531 143.815 405.901 144.013 405.235H144.139C144.031 405.883 143.941 406.513 143.941 407.161V412.867H147.649ZM165.62 409.645C164.414 409.771 163.352 409.789 161.552 409.789C160.328 409.789 160.022 409.177 160.022 406.657C160.022 404.137 160.328 403.525 161.552 403.525C163.262 403.525 164.09 403.543 165.35 403.561L165.638 400.717C164.396 400.375 163.496 400.231 161.552 400.231C157.43 400.231 155.918 401.923 155.918 406.657C155.918 411.391 157.43 413.083 161.552 413.083C163.496 413.083 164.648 412.921 165.908 412.489L165.62 409.645ZM177.76 409.951H173.206C172.756 409.951 172.468 409.681 172.468 409.303V407.809H177.112V405.217H172.468V404.011C172.468 403.633 172.756 403.363 173.206 403.363H177.76L177.94 400.609C176.14 400.375 173.62 400.375 171.478 400.375C169.768 400.375 168.562 401.527 168.562 403.201V410.113C168.562 411.787 169.768 412.939 171.478 412.939C173.62 412.939 176.14 412.939 177.94 412.705L177.76 409.951ZM184.792 405.253V403.237H190.012L190.3 400.447C188.752 400.357 187.222 400.303 185.512 400.303C184.09 400.303 182.47 400.339 180.886 400.447V412.867H180.994C182.686 412.993 184.198 413.011 186.556 413.011C189.724 413.011 191.182 412.129 191.182 409.087C191.182 406.117 189.886 405.253 186.034 405.253H184.792ZM184.792 410.311V407.611H186.034C187.078 407.611 187.276 407.863 187.276 408.961C187.276 410.059 187.078 410.311 186.034 410.311H184.792ZM196.14 407.107C195.492 407.197 194.448 407.539 194.16 409.051L193.224 412.867H197.31L198.084 409.177C198.21 408.493 198.426 408.331 199.056 408.331H200.028V412.867H203.934V400.447C202.332 400.285 201.234 400.267 198.822 400.267C195.276 400.267 193.728 401.149 193.728 404.047C193.728 405.541 194.268 406.801 196.14 406.999V407.107ZM200.028 405.577H198.912C197.886 405.577 197.652 405.325 197.652 404.299C197.652 403.273 197.886 403.021 198.912 403.021H200.028V405.577Z" fill="#EB7768"/>
<path d="M94.379 399.225H90.473V403.689H87.341V399.225H83.435V411.645H87.341V406.425H90.473V411.645H94.379V399.225ZM104.687 408.963L105.317 411.645H109.295L106.073 400.233C105.911 399.621 105.389 399.225 104.759 399.225H101.213C100.583 399.225 100.061 399.621 99.8993 400.233L96.6773 411.645H100.655L101.285 408.963H104.687ZM104.057 406.227H101.915L102.527 403.563C102.617 403.113 102.689 402.591 102.743 402.141H103.229C103.265 402.591 103.355 403.113 103.445 403.563L104.057 406.227ZM118.252 395.265C118.396 396.381 118.018 396.651 117.334 396.651C116.632 396.651 116.254 396.381 116.398 395.265H114.112C113.824 396.813 115.12 398.379 117.334 398.379C119.548 398.379 120.826 396.813 120.538 395.265H118.252ZM122.752 411.645V399.225H119.044L116.02 404.841C115.714 405.417 115.444 406.083 115.228 406.749H115.102C115.21 406.065 115.3 405.345 115.3 404.733V399.225H111.592V411.645H115.318L118.36 405.921C118.684 405.309 118.918 404.679 119.116 404.013H119.242C119.134 404.661 119.044 405.291 119.044 405.939V411.645H122.752ZM136.259 402.141V399.225H125.405V402.141H128.879V411.645H132.785V402.141H136.259ZM150.066 411.645V399.225H146.358L143.334 404.841C143.028 405.417 142.758 406.083 142.542 406.749H142.416C142.524 406.065 142.614 405.345 142.614 404.733V399.225H138.906V411.645H142.632L145.674 405.921C145.998 405.309 146.232 404.679 146.43 404.013H146.556C146.448 404.661 146.358 405.291 146.358 405.939V411.645H150.066ZM168.036 408.423C166.83 408.549 165.768 408.567 163.968 408.567C162.744 408.567 162.438 407.955 162.438 405.435C162.438 402.915 162.744 402.303 163.968 402.303C165.678 402.303 166.506 402.321 167.766 402.339L168.054 399.495C166.812 399.153 165.912 399.009 163.968 399.009C159.846 399.009 158.334 400.701 158.334 405.435C158.334 410.169 159.846 411.861 163.968 411.861C165.912 411.861 167.064 411.699 168.324 411.267L168.036 408.423ZM180.176 408.729H175.622C175.172 408.729 174.884 408.459 174.884 408.081V406.587H179.528V403.995H174.884V402.789C174.884 402.411 175.172 402.141 175.622 402.141H180.176L180.356 399.387C178.556 399.153 176.036 399.153 173.894 399.153C172.184 399.153 170.978 400.305 170.978 401.979V408.891C170.978 410.565 172.184 411.717 173.894 411.717C176.036 411.717 178.556 411.717 180.356 411.483L180.176 408.729ZM187.208 404.031V402.015H192.428L192.716 399.225C191.168 399.135 189.638 399.081 187.928 399.081C186.506 399.081 184.886 399.117 183.302 399.225V411.645H183.41C185.102 411.771 186.614 411.789 188.972 411.789C192.14 411.789 193.598 410.907 193.598 407.865C193.598 404.895 192.302 404.031 188.45 404.031H187.208ZM187.208 409.089V406.389H188.45C189.494 406.389 189.692 406.641 189.692 407.739C189.692 408.837 189.494 409.089 188.45 409.089H187.208ZM198.556 405.885C197.908 405.975 196.864 406.317 196.576 407.829L195.64 411.645H199.726L200.5 407.955C200.626 407.271 200.842 407.109 201.472 407.109H202.444V411.645H206.35V399.225C204.748 399.063 203.65 399.045 201.238 399.045C197.692 399.045 196.144 399.927 196.144 402.825C196.144 404.319 196.684 405.579 198.556 405.777V405.885ZM202.444 404.355H201.328C200.302 404.355 200.068 404.103 200.068 403.077C200.068 402.051 200.302 401.799 201.328 401.799H202.444V404.355Z" fill="#F9E108"/>
<defs>
<linearGradient id="paint0_linear" x1="145.604" y1="369.195" x2="145.604" y2="447.435" gradientUnits="userSpaceOnUse">
<stop stop-color="#851E8E"/>
<stop offset="1" stop-color="#851E8E" stop-opacity="0"/>
</linearGradient>
</defs>
</svg>
