<svg width="250" height="250" viewBox="0 0 250 250" fill="none" xmlns="http://www.w3.org/2000/svg">
<rect width="250" height="250" fill="white"/>
<rect width="125" height="125" fill="#453397"/>
<rect x="125" width="125" height="125" fill="#F90808"/>
<rect y="125" width="125" height="125" fill="#ACF908"/>
<rect x="125" y="125" width="125" height="125" fill="#333333"/>
<path d="M183.819 84.2197L167 42H191.714L208.362 75.9817L183.819 84.2197Z" fill="white" stroke="black" stroke-width="4"/>
<path d="M183.889 50.5812L167 42H191.817L208.533 48.9069L183.889 50.5812Z" fill="white" stroke="black" stroke-width="4"/>
<path d="M182.957 73.0641V66.714L192.568 69.1168V53.3273" stroke="black" stroke-width="4"/>
<path d="M76.8561 88.4329L52.1094 89.7026L78.1964 78.0321L94.4348 71.0798L76.8561 88.4329Z" fill="white" stroke="#EB7768" stroke-width="4"/>
<path d="M75.2792 74.0846L51.7736 84.1168L52.8031 41.2198L87.1707 61.5711L75.2792 74.0846Z" fill="white" stroke="#EB7768" stroke-width="4"/>
<path d="M45.418 30.6636L74.7658 73.9131" stroke="#EB7768" stroke-width="4"/>
<path d="M54.8539 25L45.7578 30.8352L49.7052 34.9542L55.8837 30.8352H51.5931L54.8539 25Z" stroke="#EB7768" stroke-width="4"/>
<path d="M88.1318 205.868L80.4157 234.264L80.4157 205.868L71.8275 200.376L84.5276 191.28L97.7428 201.406L88.1318 205.868Z" fill="white" stroke="black" stroke-width="4"/>
<path d="M77.4302 176.407L51 145H75.714L93.9062 165.252L77.4302 176.407Z" fill="white" stroke="black" stroke-width="4"/>
<path d="M60.5 157L10 191L14.5 197.5L71 168.5L60.5 157Z" fill="white" stroke="black" stroke-width="4"/>
<rect x="141" y="158" width="94" height="60" fill="url(#paint0_linear)" stroke="#EB7768" stroke-width="4"/>
<path d="M163.105 172.58H159.199V177.044H156.067V172.58H152.161V185H156.067V179.78H159.199V185H163.105V172.58ZM174.133 182.318L174.763 185H178.741L175.519 173.588C175.357 172.976 174.835 172.58 174.205 172.58H170.659C170.029 172.58 169.507 172.976 169.345 173.588L166.123 185H170.101L170.731 182.318H174.133ZM173.503 179.582H171.361L171.973 176.918C172.063 176.468 172.135 175.946 172.189 175.496H172.675C172.711 175.946 172.801 176.468 172.891 176.918L173.503 179.582ZM188.418 168.62C188.562 169.736 188.184 170.006 187.5 170.006C186.798 170.006 186.42 169.736 186.564 168.62H184.278C183.99 170.168 185.286 171.734 187.5 171.734C189.714 171.734 190.992 170.168 190.704 168.62H188.418ZM192.918 185V172.58H189.21L186.186 178.196C185.88 178.772 185.61 179.438 185.394 180.104H185.268C185.376 179.42 185.466 178.7 185.466 178.088V172.58H181.758V185H185.484L188.526 179.276C188.85 178.664 189.084 178.034 189.282 177.368H189.408C189.3 178.016 189.21 178.646 189.21 179.294V185H192.918ZM207.145 175.496V172.58H196.291V175.496H199.765V185H203.671V175.496H207.145ZM221.672 185V172.58H217.964L214.94 178.196C214.634 178.772 214.364 179.438 214.148 180.104H214.022C214.13 179.42 214.22 178.7 214.22 178.088V172.58H210.512V185H214.238L217.28 179.276C217.604 178.664 217.838 178.034 218.036 177.368H218.162C218.054 178.016 217.964 178.646 217.964 179.294V185H221.672ZM171.317 203.778C170.111 203.904 169.049 203.922 167.249 203.922C166.025 203.922 165.719 203.31 165.719 200.79C165.719 198.27 166.025 197.658 167.249 197.658C168.959 197.658 169.787 197.676 171.047 197.694L171.335 194.85C170.093 194.508 169.193 194.364 167.249 194.364C163.127 194.364 161.615 196.056 161.615 200.79C161.615 205.524 163.127 207.216 167.249 207.216C169.193 207.216 170.345 207.054 171.605 206.622L171.317 203.778ZM184.178 204.084H179.624C179.174 204.084 178.886 203.814 178.886 203.436V201.942H183.53V199.35H178.886V198.144C178.886 197.766 179.174 197.496 179.624 197.496H184.178L184.358 194.742C182.558 194.508 180.038 194.508 177.896 194.508C176.186 194.508 174.98 195.66 174.98 197.334V204.246C174.98 205.92 176.186 207.072 177.896 207.072C180.038 207.072 182.558 207.072 184.358 206.838L184.178 204.084ZM191.93 199.386V197.37H197.15L197.438 194.58C195.89 194.49 194.36 194.436 192.65 194.436C191.228 194.436 189.608 194.472 188.024 194.58V207H188.132C189.824 207.126 191.336 207.144 193.694 207.144C196.862 207.144 198.32 206.262 198.32 203.22C198.32 200.25 197.024 199.386 193.172 199.386H191.93ZM191.93 204.444V201.744H193.172C194.216 201.744 194.414 201.996 194.414 203.094C194.414 204.192 194.216 204.444 193.172 204.444H191.93ZM203.998 201.24C203.35 201.33 202.305 201.672 202.017 203.184L201.081 207H205.168L205.942 203.31C206.068 202.626 206.284 202.464 206.914 202.464H207.886V207H211.792V194.58C210.19 194.418 209.092 194.4 206.679 194.4C203.133 194.4 201.585 195.282 201.585 198.18C201.585 199.674 202.125 200.934 203.998 201.132V201.24ZM207.886 199.71H206.77C205.744 199.71 205.509 199.458 205.509 198.432C205.509 197.406 205.744 197.154 206.77 197.154H207.886V199.71Z" fill="#F9E108"/>
<path d="M165.105 172.58H161.199V177.044H158.067V172.58H154.161V185H158.067V179.78H161.199V185H165.105V172.58ZM176.133 182.318L176.763 185H180.741L177.519 173.588C177.357 172.976 176.835 172.58 176.205 172.58H172.659C172.029 172.58 171.507 172.976 171.345 173.588L168.123 185H172.101L172.731 182.318H176.133ZM175.503 179.582H173.361L173.973 176.918C174.063 176.468 174.135 175.946 174.189 175.496H174.675C174.711 175.946 174.801 176.468 174.891 176.918L175.503 179.582ZM190.418 168.62C190.562 169.736 190.184 170.006 189.5 170.006C188.798 170.006 188.42 169.736 188.564 168.62H186.278C185.99 170.168 187.286 171.734 189.5 171.734C191.714 171.734 192.992 170.168 192.704 168.62H190.418ZM194.918 185V172.58H191.21L188.186 178.196C187.88 178.772 187.61 179.438 187.394 180.104H187.268C187.376 179.42 187.466 178.7 187.466 178.088V172.58H183.758V185H187.484L190.526 179.276C190.85 178.664 191.084 178.034 191.282 177.368H191.408C191.3 178.016 191.21 178.646 191.21 179.294V185H194.918ZM209.145 175.496V172.58H198.291V175.496H201.765V185H205.671V175.496H209.145ZM223.672 185V172.58H219.964L216.94 178.196C216.634 178.772 216.364 179.438 216.148 180.104H216.022C216.13 179.42 216.22 178.7 216.22 178.088V172.58H212.512V185H216.238L219.28 179.276C219.604 178.664 219.838 178.034 220.036 177.368H220.162C220.054 178.016 219.964 178.646 219.964 179.294V185H223.672ZM173.317 203.778C172.111 203.904 171.049 203.922 169.249 203.922C168.025 203.922 167.719 203.31 167.719 200.79C167.719 198.27 168.025 197.658 169.249 197.658C170.959 197.658 171.787 197.676 173.047 197.694L173.335 194.85C172.093 194.508 171.193 194.364 169.249 194.364C165.127 194.364 163.615 196.056 163.615 200.79C163.615 205.524 165.127 207.216 169.249 207.216C171.193 207.216 172.345 207.054 173.605 206.622L173.317 203.778ZM186.178 204.084H181.624C181.174 204.084 180.886 203.814 180.886 203.436V201.942H185.53V199.35H180.886V198.144C180.886 197.766 181.174 197.496 181.624 197.496H186.178L186.358 194.742C184.558 194.508 182.038 194.508 179.896 194.508C178.186 194.508 176.98 195.66 176.98 197.334V204.246C176.98 205.92 178.186 207.072 179.896 207.072C182.038 207.072 184.558 207.072 186.358 206.838L186.178 204.084ZM193.93 199.386V197.37H199.15L199.438 194.58C197.89 194.49 196.36 194.436 194.65 194.436C193.228 194.436 191.608 194.472 190.024 194.58V207H190.132C191.824 207.126 193.336 207.144 195.694 207.144C198.862 207.144 200.32 206.262 200.32 203.22C200.32 200.25 199.024 199.386 195.172 199.386H193.93ZM193.93 204.444V201.744H195.172C196.216 201.744 196.414 201.996 196.414 203.094C196.414 204.192 196.216 204.444 195.172 204.444H193.93ZM205.998 201.24C205.35 201.33 204.305 201.672 204.017 203.184L203.081 207H207.168L207.942 203.31C208.068 202.626 208.284 202.464 208.914 202.464H209.886V207H213.792V194.58C212.19 194.418 211.092 194.4 208.679 194.4C205.133 194.4 203.585 195.282 203.585 198.18C203.585 199.674 204.125 200.934 205.998 201.132V201.24ZM209.886 199.71H208.77C207.744 199.71 207.509 199.458 207.509 198.432C207.509 197.406 207.744 197.154 208.77 197.154H209.886V199.71Z" fill="#EB7768"/>
<path d="M166.105 171.58H162.199V176.044H159.067V171.58H155.161V184H159.067V178.78H162.199V184H166.105V171.58ZM177.133 181.318L177.763 184H181.741L178.519 172.588C178.357 171.976 177.835 171.58 177.205 171.58H173.659C173.029 171.58 172.507 171.976 172.345 172.588L169.123 184H173.101L173.731 181.318H177.133ZM176.503 178.582H174.361L174.973 175.918C175.063 175.468 175.135 174.946 175.189 174.496H175.675C175.711 174.946 175.801 175.468 175.891 175.918L176.503 178.582ZM191.418 167.62C191.562 168.736 191.184 169.006 190.5 169.006C189.798 169.006 189.42 168.736 189.564 167.62H187.278C186.99 169.168 188.286 170.734 190.5 170.734C192.714 170.734 193.992 169.168 193.704 167.62H191.418ZM195.918 184V171.58H192.21L189.186 177.196C188.88 177.772 188.61 178.438 188.394 179.104H188.268C188.376 178.42 188.466 177.7 188.466 177.088V171.58H184.758V184H188.484L191.526 178.276C191.85 177.664 192.084 177.034 192.282 176.368H192.408C192.3 177.016 192.21 177.646 192.21 178.294V184H195.918ZM210.145 174.496V171.58H199.291V174.496H202.765V184H206.671V174.496H210.145ZM224.672 184V171.58H220.964L217.94 177.196C217.634 177.772 217.364 178.438 217.148 179.104H217.022C217.13 178.42 217.22 177.7 217.22 177.088V171.58H213.512V184H217.238L220.28 178.276C220.604 177.664 220.838 177.034 221.036 176.368H221.162C221.054 177.016 220.964 177.646 220.964 178.294V184H224.672ZM174.317 202.778C173.111 202.904 172.049 202.922 170.249 202.922C169.025 202.922 168.719 202.31 168.719 199.79C168.719 197.27 169.025 196.658 170.249 196.658C171.959 196.658 172.787 196.676 174.047 196.694L174.335 193.85C173.093 193.508 172.193 193.364 170.249 193.364C166.127 193.364 164.615 195.056 164.615 199.79C164.615 204.524 166.127 206.216 170.249 206.216C172.193 206.216 173.345 206.054 174.605 205.622L174.317 202.778ZM187.178 203.084H182.624C182.174 203.084 181.886 202.814 181.886 202.436V200.942H186.53V198.35H181.886V197.144C181.886 196.766 182.174 196.496 182.624 196.496H187.178L187.358 193.742C185.558 193.508 183.038 193.508 180.896 193.508C179.186 193.508 177.98 194.66 177.98 196.334V203.246C177.98 204.92 179.186 206.072 180.896 206.072C183.038 206.072 185.558 206.072 187.358 205.838L187.178 203.084ZM194.93 198.386V196.37H200.15L200.438 193.58C198.89 193.49 197.36 193.436 195.65 193.436C194.228 193.436 192.608 193.472 191.024 193.58V206H191.132C192.824 206.126 194.336 206.144 196.694 206.144C199.862 206.144 201.32 205.262 201.32 202.22C201.32 199.25 200.024 198.386 196.172 198.386H194.93ZM194.93 203.444V200.744H196.172C197.216 200.744 197.414 200.996 197.414 202.094C197.414 203.192 197.216 203.444 196.172 203.444H194.93ZM206.998 200.24C206.35 200.33 205.305 200.672 205.017 202.184L204.081 206H208.168L208.942 202.31C209.068 201.626 209.284 201.464 209.914 201.464H210.886V206H214.792V193.58C213.19 193.418 212.092 193.4 209.679 193.4C206.133 193.4 204.585 194.282 204.585 197.18C204.585 198.674 205.125 199.934 206.998 200.132V200.24ZM210.886 198.71H209.77C208.744 198.71 208.509 198.458 208.509 197.432C208.509 196.406 208.744 196.154 209.77 196.154H210.886V198.71Z" fill="#F9E108"/>
<defs>
<linearGradient id="paint0_linear" x1="188" y1="156" x2="188" y2="220" gradientUnits="userSpaceOnUse">
<stop stop-color="#851E8E"/>
<stop offset="1" stop-color="#851E8E" stop-opacity="0"/>
</linearGradient>
</defs>
</svg>
