<svg width="105" height="16" viewBox="0 0 105 16" fill="none" xmlns="http://www.w3.org/2000/svg">
<path d="M0.598087 8.6549C0.420965 8.39839 0.420965 8.05907 0.598087 7.80257L3.30099 3.88829C3.44101 3.68551 3.67172 3.56445 3.91815 3.56445H15.594C15.8405 3.56445 16.0712 3.68551 16.2112 3.88829L18.9141 7.80257C19.0912 8.05907 19.0912 8.39839 18.9141 8.6549L16.2112 12.5692C16.0712 12.772 15.8405 12.893 15.594 12.893H3.91815C3.67172 12.893 3.44101 12.772 3.30099 12.5692L0.598087 8.6549Z" stroke="url(#paint0_linear)" stroke-opacity="0.24" stroke-width="0.5"/>
<ellipse cx="9.75543" cy="3.31359" rx="2.43902" ry="2.45714" fill="white"/>
<path d="M11.9445 3.31359C11.9445 4.5343 10.9627 5.52073 9.75543 5.52073C8.54821 5.52073 7.56641 4.5343 7.56641 3.31359C7.56641 2.09287 8.54821 1.10645 9.75543 1.10645C10.9627 1.10645 11.9445 2.09287 11.9445 3.31359Z" stroke="url(#paint1_linear)" stroke-opacity="0.24" stroke-width="0.5"/>
<ellipse cx="9.75543" cy="13.1417" rx="2.43902" ry="2.45714" fill="white"/>
<path d="M11.9445 13.1417C11.9445 14.3624 10.9627 15.3489 9.75543 15.3489C8.54821 15.3489 7.56641 14.3624 7.56641 13.1417C7.56641 11.921 8.54821 10.9346 9.75543 10.9346C10.9627 10.9346 11.9445 11.921 11.9445 13.1417Z" stroke="url(#paint2_linear)" stroke-opacity="0.24" stroke-width="0.5"/>
<path d="M12.7934 8.6549C12.6163 8.39839 12.6163 8.05907 12.7934 7.80257L15.4963 3.88829C15.6363 3.68551 15.867 3.56445 16.1135 3.56445H27.7894C28.0358 3.56445 28.2665 3.68551 28.4065 3.88829L31.1094 7.80257C31.2865 8.05907 31.2865 8.39839 31.1094 8.6549L28.4065 12.5692C28.2665 12.772 28.0358 12.893 27.7894 12.893H16.1135C15.867 12.893 15.6363 12.772 15.4963 12.5692L12.7934 8.6549Z" stroke="url(#paint3_linear)" stroke-opacity="0.24" stroke-width="0.5"/>
<ellipse cx="21.9507" cy="3.31359" rx="2.43902" ry="2.45714" fill="white"/>
<path d="M24.1398 3.31359C24.1398 4.5343 23.158 5.52073 21.9507 5.52073C20.7435 5.52073 19.7617 4.5343 19.7617 3.31359C19.7617 2.09287 20.7435 1.10645 21.9507 1.10645C23.158 1.10645 24.1398 2.09287 24.1398 3.31359Z" stroke="url(#paint4_linear)" stroke-opacity="0.24" stroke-width="0.5"/>
<ellipse cx="21.9507" cy="13.1417" rx="2.43902" ry="2.45714" fill="white"/>
<path d="M24.1398 13.1417C24.1398 14.3624 23.158 15.3489 21.9507 15.3489C20.7435 15.3489 19.7617 14.3624 19.7617 13.1417C19.7617 11.921 20.7435 10.9346 21.9507 10.9346C23.158 10.9346 24.1398 11.921 24.1398 13.1417Z" stroke="url(#paint5_linear)" stroke-opacity="0.24" stroke-width="0.5"/>
<path d="M24.9887 8.6549C24.8116 8.39839 24.8116 8.05907 24.9887 7.80257L27.6916 3.88829C27.8316 3.68551 28.0623 3.56445 28.3088 3.56445H39.9847C40.2311 3.56445 40.4618 3.68551 40.6018 3.88829L43.3047 7.80257C43.4819 8.05907 43.4819 8.39839 43.3047 8.6549L40.6018 12.5692C40.4618 12.772 40.2311 12.893 39.9847 12.893H28.3088C28.0623 12.893 27.8316 12.772 27.6916 12.5692L24.9887 8.6549Z" stroke="url(#paint6_linear)" stroke-opacity="0.24" stroke-width="0.5"/>
<ellipse cx="34.1461" cy="3.31359" rx="2.43902" ry="2.45714" fill="white"/>
<path d="M36.3351 3.31359C36.3351 4.5343 35.3533 5.52073 34.1461 5.52073C32.9388 5.52073 31.957 4.5343 31.957 3.31359C31.957 2.09287 32.9388 1.10645 34.1461 1.10645C35.3533 1.10645 36.3351 2.09287 36.3351 3.31359Z" stroke="url(#paint7_linear)" stroke-opacity="0.24" stroke-width="0.5"/>
<ellipse cx="34.1461" cy="13.1417" rx="2.43902" ry="2.45714" fill="white"/>
<path d="M36.3351 13.1417C36.3351 14.3624 35.3533 15.3489 34.1461 15.3489C32.9388 15.3489 31.957 14.3624 31.957 13.1417C31.957 11.921 32.9388 10.9346 34.1461 10.9346C35.3533 10.9346 36.3351 11.921 36.3351 13.1417Z" stroke="url(#paint8_linear)" stroke-opacity="0.24" stroke-width="0.5"/>
<path d="M37.184 8.6549C37.0069 8.39839 37.0069 8.05907 37.184 7.80257L39.8869 3.88829C40.027 3.68551 40.2577 3.56445 40.5041 3.56445H52.18C52.4264 3.56445 52.6571 3.68551 52.7971 3.88829L55.5 7.80257C55.6772 8.05907 55.6772 8.39839 55.5 8.6549L52.7971 12.5692C52.6571 12.772 52.4264 12.893 52.18 12.893H40.5041C40.2577 12.893 40.027 12.772 39.8869 12.5692L37.184 8.6549Z" stroke="url(#paint9_linear)" stroke-opacity="0.24" stroke-width="0.5"/>
<ellipse cx="46.3414" cy="3.31359" rx="2.43902" ry="2.45714" fill="white"/>
<path d="M48.5304 3.31359C48.5304 4.5343 47.5486 5.52073 46.3414 5.52073C45.1341 5.52073 44.1523 4.5343 44.1523 3.31359C44.1523 2.09287 45.1341 1.10645 46.3414 1.10645C47.5486 1.10645 48.5304 2.09287 48.5304 3.31359Z" stroke="url(#paint10_linear)" stroke-opacity="0.24" stroke-width="0.5"/>
<ellipse cx="46.3414" cy="13.1417" rx="2.43902" ry="2.45714" fill="white"/>
<path d="M48.5304 13.1417C48.5304 14.3624 47.5486 15.3489 46.3414 15.3489C45.1341 15.3489 44.1523 14.3624 44.1523 13.1417C44.1523 11.921 45.1341 10.9346 46.3414 10.9346C47.5486 10.9346 48.5304 11.921 48.5304 13.1417Z" stroke="url(#paint11_linear)" stroke-opacity="0.24" stroke-width="0.5"/>
<path d="M49.3793 8.6549C49.2022 8.39839 49.2022 8.05907 49.3793 7.80257L52.0822 3.88829C52.2223 3.68551 52.453 3.56445 52.6994 3.56445H64.3753C64.6217 3.56445 64.8524 3.68551 64.9925 3.88829L67.6954 7.80257C67.8725 8.05907 67.8725 8.39839 67.6954 8.6549L64.9925 12.5692C64.8524 12.772 64.6217 12.893 64.3753 12.893H52.6994C52.453 12.893 52.2223 12.772 52.0822 12.5692L49.3793 8.6549Z" stroke="url(#paint12_linear)" stroke-opacity="0.24" stroke-width="0.5"/>
<ellipse cx="58.5367" cy="3.31359" rx="2.43902" ry="2.45714" fill="white"/>
<path d="M60.7257 3.31359C60.7257 4.5343 59.7439 5.52073 58.5367 5.52073C57.3295 5.52073 56.3477 4.5343 56.3477 3.31359C56.3477 2.09287 57.3295 1.10645 58.5367 1.10645C59.7439 1.10645 60.7257 2.09287 60.7257 3.31359Z" stroke="url(#paint13_linear)" stroke-opacity="0.24" stroke-width="0.5"/>
<ellipse cx="58.5367" cy="13.1417" rx="2.43902" ry="2.45714" fill="white"/>
<path d="M60.7257 13.1417C60.7257 14.3624 59.7439 15.3489 58.5367 15.3489C57.3295 15.3489 56.3477 14.3624 56.3477 13.1417C56.3477 11.921 57.3295 10.9346 58.5367 10.9346C59.7439 10.9346 60.7257 11.921 60.7257 13.1417Z" stroke="url(#paint14_linear)" stroke-opacity="0.24" stroke-width="0.5"/>
<path d="M61.5746 8.6549C61.3975 8.39839 61.3975 8.05907 61.5746 7.80257L64.2776 3.88829C64.4176 3.68551 64.6483 3.56445 64.8947 3.56445H76.5706C76.817 3.56445 77.0477 3.68551 77.1878 3.88829L79.8907 7.80257C80.0678 8.05907 80.0678 8.39839 79.8907 8.6549L77.1878 12.5692C77.0477 12.772 76.817 12.893 76.5706 12.893H64.8947C64.6483 12.893 64.4176 12.772 64.2776 12.5692L61.5746 8.6549Z" stroke="url(#paint15_linear)" stroke-opacity="0.24" stroke-width="0.5"/>
<ellipse cx="70.732" cy="3.31359" rx="2.43902" ry="2.45714" fill="white"/>
<path d="M72.921 3.31359C72.921 4.5343 71.9392 5.52073 70.732 5.52073C69.5248 5.52073 68.543 4.5343 68.543 3.31359C68.543 2.09287 69.5248 1.10645 70.732 1.10645C71.9392 1.10645 72.921 2.09287 72.921 3.31359Z" stroke="url(#paint16_linear)" stroke-opacity="0.24" stroke-width="0.5"/>
<ellipse cx="70.732" cy="13.1417" rx="2.43902" ry="2.45714" fill="white"/>
<path d="M72.921 13.1417C72.921 14.3624 71.9392 15.3489 70.732 15.3489C69.5248 15.3489 68.543 14.3624 68.543 13.1417C68.543 11.921 69.5248 10.9346 70.732 10.9346C71.9392 10.9346 72.921 11.921 72.921 13.1417Z" stroke="url(#paint17_linear)" stroke-opacity="0.24" stroke-width="0.5"/>
<path d="M73.768 8.6549C73.5909 8.39839 73.5909 8.05907 73.768 7.80257L76.4709 3.88829C76.6109 3.68551 76.8416 3.56445 77.0881 3.56445H88.764C89.0104 3.56445 89.2411 3.68551 89.3811 3.88829L92.084 7.80257C92.2612 8.05907 92.2612 8.39839 92.084 8.6549L89.3811 12.5692C89.2411 12.772 89.0104 12.893 88.764 12.893H77.0881C76.8416 12.893 76.6109 12.772 76.4709 12.5692L73.768 8.6549Z" stroke="url(#paint18_linear)" stroke-opacity="0.24" stroke-width="0.5"/>
<ellipse cx="82.9273" cy="3.31359" rx="2.43902" ry="2.45714" fill="white"/>
<path d="M85.1163 3.31359C85.1163 4.5343 84.1345 5.52073 82.9273 5.52073C81.7201 5.52073 80.7383 4.5343 80.7383 3.31359C80.7383 2.09287 81.7201 1.10645 82.9273 1.10645C84.1345 1.10645 85.1163 2.09287 85.1163 3.31359Z" stroke="url(#paint19_linear)" stroke-opacity="0.24" stroke-width="0.5"/>
<ellipse cx="82.9273" cy="13.1417" rx="2.43902" ry="2.45714" fill="white"/>
<path d="M85.1163 13.1417C85.1163 14.3624 84.1345 15.3489 82.9273 15.3489C81.7201 15.3489 80.7383 14.3624 80.7383 13.1417C80.7383 11.921 81.7201 10.9346 82.9273 10.9346C84.1345 10.9346 85.1163 11.921 85.1163 13.1417Z" stroke="url(#paint20_linear)" stroke-opacity="0.24" stroke-width="0.5"/>
<path d="M85.9633 8.6549C85.7862 8.39839 85.7862 8.05907 85.9633 7.80257L88.6662 3.88829C88.8062 3.68551 89.037 3.56445 89.2834 3.56445H100.959C101.206 3.56445 101.436 3.68551 101.576 3.88829L104.279 7.80257C104.456 8.05907 104.456 8.39839 104.279 8.6549L101.576 12.5692C101.436 12.772 101.206 12.893 100.959 12.893H89.2834C89.037 12.893 88.8062 12.772 88.6662 12.5692L85.9633 8.6549Z" stroke="url(#paint21_linear)" stroke-opacity="0.24" stroke-width="0.5"/>
<ellipse cx="95.1226" cy="3.31359" rx="2.43902" ry="2.45714" fill="white"/>
<path d="M97.3116 3.31359C97.3116 4.5343 96.3298 5.52073 95.1226 5.52073C93.9154 5.52073 92.9336 4.5343 92.9336 3.31359C92.9336 2.09287 93.9154 1.10645 95.1226 1.10645C96.3298 1.10645 97.3116 2.09287 97.3116 3.31359Z" stroke="url(#paint22_linear)" stroke-opacity="0.24" stroke-width="0.5"/>
<ellipse cx="95.1226" cy="13.1417" rx="2.43902" ry="2.45714" fill="white"/>
<path d="M97.3116 13.1417C97.3116 14.3624 96.3298 15.3489 95.1226 15.3489C93.9154 15.3489 92.9336 14.3624 92.9336 13.1417C92.9336 11.921 93.9154 10.9346 95.1226 10.9346C96.3298 10.9346 97.3116 11.921 97.3116 13.1417Z" stroke="url(#paint23_linear)" stroke-opacity="0.24" stroke-width="0.5"/>
<defs>
<linearGradient id="paint0_linear" x1="9.7561" y1="3.31445" x2="9.7561" y2="13.143" gradientUnits="userSpaceOnUse">
<stop stop-color="#851E8E"/>
<stop offset="0.497238" stop-color="#EB7768"/>
<stop offset="1" stop-color="#F9E108"/>
</linearGradient>
<linearGradient id="paint1_linear" x1="9.75543" y1="0.856445" x2="9.75543" y2="5.77073" gradientUnits="userSpaceOnUse">
<stop stop-color="#851E8E"/>
<stop offset="0.497238" stop-color="#EB7768"/>
<stop offset="1" stop-color="#F9E108"/>
</linearGradient>
<linearGradient id="paint2_linear" x1="9.75543" y1="10.6846" x2="9.75543" y2="15.5989" gradientUnits="userSpaceOnUse">
<stop stop-color="#851E8E"/>
<stop offset="0.497238" stop-color="#EB7768"/>
<stop offset="1" stop-color="#F9E108"/>
</linearGradient>
<linearGradient id="paint3_linear" x1="21.9514" y1="3.31445" x2="21.9514" y2="13.143" gradientUnits="userSpaceOnUse">
<stop stop-color="#851E8E"/>
<stop offset="0.497238" stop-color="#EB7768"/>
<stop offset="1" stop-color="#F9E108"/>
</linearGradient>
<linearGradient id="paint4_linear" x1="21.9507" y1="0.856445" x2="21.9507" y2="5.77073" gradientUnits="userSpaceOnUse">
<stop stop-color="#851E8E"/>
<stop offset="0.497238" stop-color="#EB7768"/>
<stop offset="1" stop-color="#F9E108"/>
</linearGradient>
<linearGradient id="paint5_linear" x1="21.9507" y1="10.6846" x2="21.9507" y2="15.5989" gradientUnits="userSpaceOnUse">
<stop stop-color="#851E8E"/>
<stop offset="0.497238" stop-color="#EB7768"/>
<stop offset="1" stop-color="#F9E108"/>
</linearGradient>
<linearGradient id="paint6_linear" x1="34.1467" y1="3.31445" x2="34.1467" y2="13.143" gradientUnits="userSpaceOnUse">
<stop stop-color="#851E8E"/>
<stop offset="0.497238" stop-color="#EB7768"/>
<stop offset="1" stop-color="#F9E108"/>
</linearGradient>
<linearGradient id="paint7_linear" x1="34.1461" y1="0.856445" x2="34.1461" y2="5.77073" gradientUnits="userSpaceOnUse">
<stop stop-color="#851E8E"/>
<stop offset="0.497238" stop-color="#EB7768"/>
<stop offset="1" stop-color="#F9E108"/>
</linearGradient>
<linearGradient id="paint8_linear" x1="34.1461" y1="10.6846" x2="34.1461" y2="15.5989" gradientUnits="userSpaceOnUse">
<stop stop-color="#851E8E"/>
<stop offset="0.497238" stop-color="#EB7768"/>
<stop offset="1" stop-color="#F9E108"/>
</linearGradient>
<linearGradient id="paint9_linear" x1="46.342" y1="3.31445" x2="46.342" y2="13.143" gradientUnits="userSpaceOnUse">
<stop stop-color="#851E8E"/>
<stop offset="0.497238" stop-color="#EB7768"/>
<stop offset="1" stop-color="#F9E108"/>
</linearGradient>
<linearGradient id="paint10_linear" x1="46.3414" y1="0.856445" x2="46.3414" y2="5.77073" gradientUnits="userSpaceOnUse">
<stop stop-color="#851E8E"/>
<stop offset="0.497238" stop-color="#EB7768"/>
<stop offset="1" stop-color="#F9E108"/>
</linearGradient>
<linearGradient id="paint11_linear" x1="46.3414" y1="10.6846" x2="46.3414" y2="15.5989" gradientUnits="userSpaceOnUse">
<stop stop-color="#851E8E"/>
<stop offset="0.497238" stop-color="#EB7768"/>
<stop offset="1" stop-color="#F9E108"/>
</linearGradient>
<linearGradient id="paint12_linear" x1="58.5373" y1="3.31445" x2="58.5373" y2="13.143" gradientUnits="userSpaceOnUse">
<stop stop-color="#851E8E"/>
<stop offset="0.497238" stop-color="#EB7768"/>
<stop offset="1" stop-color="#F9E108"/>
</linearGradient>
<linearGradient id="paint13_linear" x1="58.5367" y1="0.856445" x2="58.5367" y2="5.77073" gradientUnits="userSpaceOnUse">
<stop stop-color="#851E8E"/>
<stop offset="0.497238" stop-color="#EB7768"/>
<stop offset="1" stop-color="#F9E108"/>
</linearGradient>
<linearGradient id="paint14_linear" x1="58.5367" y1="10.6846" x2="58.5367" y2="15.5989" gradientUnits="userSpaceOnUse">
<stop stop-color="#851E8E"/>
<stop offset="0.497238" stop-color="#EB7768"/>
<stop offset="1" stop-color="#F9E108"/>
</linearGradient>
<linearGradient id="paint15_linear" x1="70.7327" y1="3.31445" x2="70.7327" y2="13.143" gradientUnits="userSpaceOnUse">
<stop stop-color="#851E8E"/>
<stop offset="0.497238" stop-color="#EB7768"/>
<stop offset="1" stop-color="#F9E108"/>
</linearGradient>
<linearGradient id="paint16_linear" x1="70.732" y1="0.856445" x2="70.732" y2="5.77073" gradientUnits="userSpaceOnUse">
<stop stop-color="#851E8E"/>
<stop offset="0.497238" stop-color="#EB7768"/>
<stop offset="1" stop-color="#F9E108"/>
</linearGradient>
<linearGradient id="paint17_linear" x1="70.732" y1="10.6846" x2="70.732" y2="15.5989" gradientUnits="userSpaceOnUse">
<stop stop-color="#851E8E"/>
<stop offset="0.497238" stop-color="#EB7768"/>
<stop offset="1" stop-color="#F9E108"/>
</linearGradient>
<linearGradient id="paint18_linear" x1="82.926" y1="3.31445" x2="82.926" y2="13.143" gradientUnits="userSpaceOnUse">
<stop stop-color="#851E8E"/>
<stop offset="0.497238" stop-color="#EB7768"/>
<stop offset="1" stop-color="#F9E108"/>
</linearGradient>
<linearGradient id="paint19_linear" x1="82.9273" y1="0.856445" x2="82.9273" y2="5.77073" gradientUnits="userSpaceOnUse">
<stop stop-color="#851E8E"/>
<stop offset="0.497238" stop-color="#EB7768"/>
<stop offset="1" stop-color="#F9E108"/>
</linearGradient>
<linearGradient id="paint20_linear" x1="82.9273" y1="10.6846" x2="82.9273" y2="15.5989" gradientUnits="userSpaceOnUse">
<stop stop-color="#851E8E"/>
<stop offset="0.497238" stop-color="#EB7768"/>
<stop offset="1" stop-color="#F9E108"/>
</linearGradient>
<linearGradient id="paint21_linear" x1="95.1213" y1="3.31445" x2="95.1213" y2="13.143" gradientUnits="userSpaceOnUse">
<stop stop-color="#851E8E"/>
<stop offset="0.497238" stop-color="#EB7768"/>
<stop offset="1" stop-color="#F9E108"/>
</linearGradient>
<linearGradient id="paint22_linear" x1="95.1226" y1="0.856445" x2="95.1226" y2="5.77073" gradientUnits="userSpaceOnUse">
<stop stop-color="#851E8E"/>
<stop offset="0.497238" stop-color="#EB7768"/>
<stop offset="1" stop-color="#F9E108"/>
</linearGradient>
<linearGradient id="paint23_linear" x1="95.1226" y1="10.6846" x2="95.1226" y2="15.5989" gradientUnits="userSpaceOnUse">
<stop stop-color="#851E8E"/>
<stop offset="0.497238" stop-color="#EB7768"/>
<stop offset="1" stop-color="#F9E108"/>
</linearGradient>
</defs>
</svg>
