<svg width="1280" height="1323" viewBox="0 0 1280 1323" fill="none" xmlns="http://www.w3.org/2000/svg">
<path d="M1215.25 364.388L1184.91 173.917L1320.44 202.726L1215.25 364.388Z" fill="#F90808"/>
<path d="M920.252 251.388L889.908 60.9172L1025.44 89.7263L920.252 251.388Z" fill="#F90808"/>
<path d="M1058.25 340.388L1027.91 149.917L1163.44 178.726L1058.25 340.388Z" fill="#F90808"/>
<path d="M991.252 453.388L960.908 262.917L1096.44 291.726L991.252 453.388Z" fill="#F90808"/>
<path d="M1112.25 432.388L1081.91 241.917L1217.44 270.726L1112.25 432.388Z" fill="#F90808"/>
<path d="M1165.25 566.388L1134.91 375.917L1270.44 404.726L1165.25 566.388Z" fill="#F90808"/>
<path d="M817.252 501.388L786.908 310.917L922.444 339.726L817.252 501.388Z" fill="#F90808"/>
<path d="M1165.25 773.388L1134.91 582.917L1270.44 611.726L1165.25 773.388Z" fill="#F90808"/>
<path d="M430.252 730.388L399.908 539.917L535.444 568.726L430.252 730.388Z" fill="#F90808"/>
<path d="M767.252 1116.39L736.908 925.917L872.444 954.727L767.252 1116.39Z" fill="#F90808"/>
<path d="M972.628 795.471L896.768 319.293L1235.61 391.316L972.628 795.471Z" fill="#F90808"/>
<path d="M912.628 1140.47L836.768 664.293L1175.61 736.316L912.628 1140.47Z" fill="#F90808"/>
<path d="M1029.63 869.471L953.768 393.293L1292.61 465.316L1029.63 869.471Z" fill="#F90808"/>
<path d="M714.628 888.471L638.768 412.293L977.609 484.316L714.628 888.471Z" fill="#F90808"/>
<path d="M31.6283 1098.47L-44.2316 622.293L294.609 694.316L31.6283 1098.47Z" fill="#F90808"/>
<path d="M1189.63 1140.47L1113.77 664.293L1452.61 736.316L1189.63 1140.47Z" fill="#F90808"/>
<path d="M706.252 773.388L675.908 582.917L811.444 611.726L706.252 773.388Z" fill="#F90808"/>
<path d="M706.252 773.388L675.908 582.917L811.444 611.726L706.252 773.388Z" fill="#F90808"/>
<path d="M520.252 1305.39L489.908 1114.92L625.444 1143.73L520.252 1305.39Z" fill="#F90808"/>
<path d="M1044.25 1272.39L1013.91 1081.92L1149.44 1110.73L1044.25 1272.39Z" fill="#F90808"/>
<rect x="789.332" y="260" width="82" height="204.781" transform="rotate(16.4084 789.332 260)" fill="#333333"/>
<path d="M1257.5 754L1248 797.5L1280 859.5L1183 879L1098.5 940L1064.5 827L1257.5 754Z" fill="#333333"/>
<path d="M757.499 250.5L789.996 259.5L731.999 456L703.498 470L703.498 425.5L757.499 250.5Z" fill="black"/>
<path d="M1091.5 453L807 347L796 391.5L1084 481L1091.5 453Z" fill="black" stroke="black"/>
<path d="M809.5 479.5L731 456.5L704 470L790.5 494L809.5 479.5Z" fill="black" stroke="black"/>
<path d="M1249.5 739.5L961 753.5L1069.5 830L1257 753.5L1249.5 739.5Z" fill="black" stroke="black"/>
<path d="M1064 827L960 753L1100 940L1064 827Z" fill="black" stroke="black"/>
<path d="M1092 452.5L1066.5 444L1059 473L1084.5 481.5L1092 452.5Z" fill="#333333" stroke="black"/>
<path d="M1066.07 772.842C1066.47 772.772 1067.19 772.723 1068.24 772.697L1068.81 775.886L1067.87 776.055C1067.63 776.098 1067.43 776.215 1067.27 776.406C1067.11 776.582 1067 776.765 1066.93 776.955L1065.45 781.61L1071.57 789.168L1067.08 789.975L1062.21 783.901L1060.08 784.283L1061.29 791.015L1057.04 791.779L1054.07 775.244L1058.32 774.48L1059.49 780.976L1061.61 780.594L1063.17 775.681C1063.4 774.957 1063.72 774.345 1064.16 773.845C1064.6 773.327 1065.24 772.993 1066.07 772.842ZM1086.09 786.558L1072.98 788.914L1070.01 772.379L1083.12 770.023L1083.71 773.33L1074.85 774.922L1075.43 778.111L1082.4 776.858L1082.99 780.165L1076.02 781.418L1076.64 784.843L1085.5 783.251L1086.09 786.558ZM1100.49 774.459L1098.25 780.959L1094.94 781.553L1090.57 776.242L1092.23 785.455L1087.97 786.219L1085 769.684L1089.49 768.877L1095.78 776.768L1098.94 767.179L1103.43 766.372L1106.4 782.907L1102.15 783.672L1100.49 774.459ZM1118.75 770.202L1124.42 769.183C1126.07 768.886 1127.34 769.049 1128.21 769.672C1129.1 770.276 1129.7 771.405 1129.99 773.058L1130.12 773.767C1130.42 775.42 1130.26 776.693 1129.64 777.585C1129.03 778.458 1127.9 779.043 1126.25 779.34L1116.32 781.123L1113.35 764.588L1126.46 762.232L1127.06 765.539L1118.2 767.131L1118.75 770.202ZM1125.74 773.822C1125.57 772.878 1125.01 772.49 1124.07 772.66L1119.34 773.509L1119.98 777.052L1124.71 776.203C1125.65 776.033 1126.04 775.476 1125.87 774.531L1125.74 773.822ZM1135.39 766.479L1140.83 765.503C1142.48 765.205 1143.74 765.368 1144.62 765.991C1145.51 766.595 1146.1 767.724 1146.4 769.378L1146.65 770.795C1146.95 772.449 1146.79 773.721 1146.17 774.613C1145.56 775.486 1144.43 776.071 1142.78 776.369L1133.09 778.109L1130.12 761.574L1134.37 760.81L1135.39 766.479ZM1153.65 774.416L1149.39 775.18L1146.42 758.645L1150.67 757.88L1153.65 774.416ZM1142.15 770.142C1141.98 769.197 1141.42 768.81 1140.48 768.979L1135.99 769.786L1136.75 774.038L1141.24 773.231C1142.18 773.061 1142.57 772.504 1142.4 771.559L1142.15 770.142ZM1164.52 772.462L1160.26 773.226L1157.89 759.998L1152.93 760.889L1152.33 757.582L1166.5 755.035L1167.1 758.342L1162.14 759.233L1164.52 772.462ZM1173.43 759.642L1179.1 758.623C1180.75 758.326 1182.02 758.489 1182.9 759.112C1183.78 759.716 1184.38 760.845 1184.67 762.498L1184.93 763.916C1185.23 765.569 1185.07 766.842 1184.45 767.734C1183.84 768.607 1182.71 769.192 1181.05 769.489L1171.13 771.272L1168.16 754.737L1172.41 753.973L1173.43 759.642ZM1180.42 763.263C1180.25 762.318 1179.7 761.93 1178.75 762.1L1174.03 762.949L1174.79 767.201L1179.51 766.352C1180.46 766.182 1180.85 765.625 1180.68 764.68L1180.42 763.263ZM1183.79 752.171C1186.78 751.31 1189.58 750.643 1192.21 750.171C1193.76 749.893 1194.95 750.052 1195.81 750.646C1196.66 751.24 1197.23 752.309 1197.51 753.852L1197.7 754.915C1197.91 756.096 1197.84 757.036 1197.47 757.735C1197.11 758.45 1196.38 759.118 1195.27 759.74L1193.06 760.991L1193.27 762.172L1189.02 762.937L1188.43 759.63L1193.62 756.624L1193.25 754.616C1193.19 754.254 1193.03 753.99 1192.77 753.825C1192.53 753.642 1192.14 753.596 1191.63 753.69C1190.68 753.86 1189.46 754.128 1187.97 754.494C1186.49 754.857 1185.29 755.146 1184.37 755.36L1183.79 752.171ZM1189.27 764.354L1193.53 763.59L1194.16 767.133L1189.91 767.897L1189.27 764.354Z" fill="white"/>
<path d="M1156 797L1173.5 796L1157 820L1185.5 829.5L1169 849L1183.5 878" stroke="white" stroke-width="2"/>
</svg>
