<svg width="731" height="444" viewBox="0 0 731 444" fill="none" xmlns="http://www.w3.org/2000/svg">
<path d="M13.6206 351.733C13.6206 351.733 30.2531 338.833 40.998 351.733C51.7428 364.633 45.708 368.151 40.998 372.549C36.2879 376.946 21.8635 382.223 13.6206 372.549C5.37775 362.874 19.2139 355.545 19.2139 355.545" stroke="black" stroke-width="4" stroke-linecap="round"/>
<path d="M197.621 362.733C197.621 362.733 214.253 349.833 224.998 362.733C235.743 375.633 229.708 379.151 224.998 383.549C220.288 387.946 205.864 393.223 197.621 383.549C189.378 373.874 203.214 366.545 203.214 366.545" stroke="black" stroke-width="4" stroke-linecap="round"/>
<path d="M461.9 160.556C461.9 160.556 518.4 116.556 554.9 160.556C591.4 204.556 570.9 216.556 554.9 231.556C538.9 246.555 489.901 264.555 461.9 231.556C433.899 198.556 480.9 173.556 480.9 173.556" stroke="#EB7768" stroke-width="8" stroke-linecap="round"/>
<path d="M609 19C594.888 28.36 579.597 54.3878 570.156 72.494C565.831 80.7886 572.453 90.2034 581.771 89.3757V89.3757C592.317 88.4389 599.016 100.405 592.705 108.906L581.5 124" stroke="#EB7768" stroke-width="4" stroke-linecap="round"/>
<path d="M394.357 21.277C408.958 26.1726 416.722 38.3308 420.81 50.8721C424.246 61.4122 441.048 67.1885 448.033 58.5796V58.5796C452.167 53.4833 459.628 53.1417 463.345 58.55C470.921 69.5719 481.367 90.121 481.133 119.415" stroke="#EB7768" stroke-width="4" stroke-linecap="round"/>
<path d="M722.633 143.726L673.263 143.172C662.591 143.052 655.474 154.14 660.026 163.793V163.793C664.824 173.964 656.681 185.476 645.493 184.341L596.577 179.374" stroke="#EB7768" stroke-width="4" stroke-linecap="round"/>
<path d="M455.635 246.726L406.264 246.172C395.593 246.052 388.475 257.14 393.028 266.793V266.793C397.826 276.964 389.683 288.476 378.494 287.341L329.579 282.374" stroke="#EB7768" stroke-width="4" stroke-linecap="round"/>
<path d="M429.318 162.505L389.492 144.833C383.277 142.076 376.302 146.706 376.43 153.503V153.503C376.563 160.592 369.03 165.213 362.771 161.883L324.415 141.474" stroke="#EB7768" stroke-width="4" stroke-linecap="round"/>
<path d="M587.768 249.958L627.855 278.781C636.52 285.011 648.717 280.026 650.537 269.51V269.51C652.455 258.429 665.735 253.686 674.239 261.045L711.419 293.218" stroke="#EB7768" stroke-width="4" stroke-linecap="round"/>
<path d="M507.477 271.248L497.393 296.288C493.704 305.447 501.388 315.139 511.147 313.638V313.638C521.6 312.03 529.347 323.122 524.24 332.382L511.318 355.808" stroke="#EB7768" stroke-width="4" stroke-linecap="round"/>
<path d="M287.621 226.733C287.621 226.733 304.253 213.833 314.998 226.733C325.743 239.633 319.708 243.151 314.998 247.549C310.288 251.946 295.864 257.223 287.621 247.549C279.378 237.874 293.214 230.545 293.214 230.545" stroke="#EB7768" stroke-width="4" stroke-linecap="round"/>
<path d="M20.5962 407.605C52.7756 376.602 98.568 368.888 134.571 368.5C154.153 368.289 168.906 343.742 157.284 327.981V327.981C149.445 317.35 153.282 302.528 165.797 298.304C196.037 288.097 252.366 274.351 317.029 284.304" stroke="#EB7768" stroke-width="4" stroke-linecap="round" stroke-dasharray="8 8"/>
<path d="M18.5374 408.579C49.9105 378.353 97.579 370.105 136.395 369.206C156.195 368.747 169.429 341.58 155.5 327.5V327.5" stroke="#333333" stroke-width="4" stroke-linecap="round" stroke-dasharray="8 8"/>
<path d="M211.044 345.584C210.814 346.665 211.504 347.727 212.584 347.956C213.665 348.186 214.727 347.496 214.956 346.416L211.044 345.584ZM215.847 322L213.861 321.764L213.579 324.145L215.971 323.996L215.847 322ZM245.872 306.701L246.869 308.435L245.872 306.701ZM248.017 305.467L247.02 303.734L248.017 305.467ZM222.248 300H246.022V296H222.248V300ZM247.02 303.734L244.874 304.967L246.869 308.435L249.014 307.201L247.02 303.734ZM214.956 346.416C217.801 333.028 218.559 326.837 218.559 323.95C218.559 323.217 218.512 322.605 218.402 322.103C218.307 321.662 218.099 320.984 217.523 320.478C216.767 319.814 215.866 319.838 215.276 320.052C215.023 320.144 214.832 320.264 214.712 320.35C214.649 320.396 214.595 320.439 214.552 320.476C214.53 320.495 214.51 320.512 214.493 320.529C214.484 320.537 214.476 320.545 214.468 320.552C214.464 320.556 214.46 320.56 214.456 320.563C214.454 320.565 214.451 320.568 214.451 320.569C214.448 320.571 214.445 320.574 215.847 322C217.25 323.426 217.247 323.429 217.244 323.431C217.244 323.432 217.241 323.435 217.239 323.436C217.236 323.44 217.232 323.443 217.228 323.447C217.221 323.454 217.214 323.461 217.206 323.468C217.191 323.481 217.175 323.495 217.159 323.51C217.126 323.538 217.088 323.569 217.044 323.6C216.963 323.658 216.828 323.744 216.641 323.812C216.184 323.978 215.462 323.992 214.884 323.484C214.486 323.135 214.456 322.779 214.494 322.952C214.518 323.063 214.559 323.358 214.559 323.95C214.559 326.363 213.894 332.172 211.044 345.584L214.956 346.416ZM217.834 322.236L220.262 301.764L216.29 301.293L213.861 321.764L217.834 322.236ZM245.039 318.186L215.724 320.004L215.971 323.996L245.287 322.178L245.039 318.186ZM245.554 315.055C247.155 315.709 246.766 318.079 245.039 318.186L245.287 322.178C251.257 321.808 252.603 313.612 247.065 311.352L245.554 315.055ZM244.874 304.967C240.815 307.302 241.217 313.285 245.554 315.055L247.065 311.352C245.811 310.84 245.695 309.11 246.869 308.435L244.874 304.967ZM246.022 300C248.07 300 248.795 302.713 247.02 303.734L249.014 307.201C254.34 304.138 252.166 296 246.022 296V300ZM222.248 296C219.208 296 216.648 298.274 216.29 301.293L220.262 301.764C220.382 300.758 221.235 300 222.248 300V296Z" fill="black"/>
</svg>
