<svg width="731" height="439" viewBox="0 0 731 439" fill="none" xmlns="http://www.w3.org/2000/svg">
<path d="M461.9 160.556C461.9 160.556 518.4 116.556 554.9 160.556C591.4 204.556 570.9 216.556 554.9 231.556C538.9 246.555 489.901 264.555 461.9 231.556C433.899 198.556 480.9 173.556 480.9 173.556" stroke="#EB7768" stroke-width="8" stroke-linecap="round"/>
<path d="M609 19C594.888 28.36 579.597 54.3878 570.156 72.494C565.831 80.7886 572.453 90.2034 581.771 89.3757V89.3757C592.317 88.4389 599.016 100.405 592.705 108.906L581.5 124" stroke="#EB7768" stroke-width="4" stroke-linecap="round"/>
<path d="M394.357 21.277C408.958 26.1726 416.722 38.3308 420.81 50.8721C424.246 61.4122 441.048 67.1885 448.033 58.5796V58.5796C452.167 53.4833 459.628 53.1417 463.345 58.55C470.921 69.5719 481.367 90.121 481.133 119.415" stroke="#EB7768" stroke-width="4" stroke-linecap="round"/>
<path d="M722.633 143.726L673.263 143.172C662.591 143.052 655.474 154.14 660.026 163.793V163.793C664.824 173.964 656.681 185.476 645.493 184.341L596.577 179.374" stroke="#EB7768" stroke-width="4" stroke-linecap="round"/>
<path d="M455.635 246.726L406.264 246.172C395.593 246.052 388.475 257.14 393.028 266.793V266.793C397.826 276.964 389.683 288.476 378.494 287.341L329.579 282.374" stroke="#EB7768" stroke-width="4" stroke-linecap="round"/>
<path d="M429.318 162.505L389.492 144.833C383.277 142.076 376.302 146.706 376.43 153.503V153.503C376.563 160.592 369.03 165.213 362.771 161.883L324.415 141.474" stroke="#EB7768" stroke-width="4" stroke-linecap="round"/>
<path d="M587.768 249.958L627.855 278.781C636.52 285.011 648.717 280.026 650.537 269.51V269.51C652.455 258.429 665.735 253.686 674.239 261.045L711.419 293.218" stroke="#EB7768" stroke-width="4" stroke-linecap="round"/>
<path d="M507.477 271.248L497.393 296.288C493.704 305.447 501.388 315.139 511.147 313.638V313.638C521.6 312.03 529.347 323.122 524.24 332.382L511.318 355.808" stroke="#EB7768" stroke-width="4" stroke-linecap="round"/>
<path d="M13.6206 351.733C13.6206 351.733 30.2531 338.833 40.998 351.733C51.7428 364.633 45.708 368.151 40.998 372.549C36.2879 376.946 21.8635 382.223 13.6206 372.549C5.37775 362.874 19.2139 355.545 19.2139 355.545" stroke="black" stroke-width="4" stroke-linecap="round"/>
<path d="M197.621 362.733C197.621 362.733 214.253 349.833 224.998 362.733C235.743 375.633 229.708 379.151 224.998 383.549C220.288 387.946 205.864 393.223 197.621 383.549C189.378 373.874 203.214 366.545 203.214 366.545" stroke="black" stroke-width="4" stroke-linecap="round"/>
<path d="M287.621 238.733C287.621 238.733 304.253 225.833 314.998 238.733C325.743 251.633 319.708 255.151 314.998 259.549C310.288 263.946 295.864 269.223 287.621 259.549C279.378 249.874 293.214 242.545 293.214 242.545" stroke="black" stroke-width="4" stroke-linecap="round"/>
<path d="M20.5962 406.967C52.7756 375.964 98.568 368.25 134.571 367.862C154.153 367.651 168.906 343.105 157.284 327.343V327.343C149.445 316.712 153.282 301.89 165.797 297.666C196.037 287.459 252.366 273.713 317.029 283.667" stroke="#333333" stroke-width="4" stroke-linecap="round" stroke-dasharray="8 8"/>
<path d="M295.044 224.584C294.814 225.665 295.504 226.727 296.584 226.956C297.665 227.186 298.727 226.496 298.956 225.416L295.044 224.584ZM299.847 201L297.861 200.764L297.579 203.145L299.971 202.996L299.847 201ZM329.872 185.701L330.869 187.435L329.872 185.701ZM332.017 184.467L331.02 182.734L332.017 184.467ZM306.248 179H330.022V175H306.248V179ZM331.02 182.734L328.874 183.967L330.869 187.435L333.014 186.201L331.02 182.734ZM298.956 225.416C301.801 212.028 302.559 205.837 302.559 202.95C302.559 202.217 302.512 201.605 302.402 201.103C302.307 200.662 302.099 199.984 301.523 199.478C300.767 198.814 299.866 198.838 299.276 199.052C299.023 199.144 298.832 199.264 298.712 199.35C298.649 199.396 298.595 199.439 298.552 199.476C298.53 199.495 298.51 199.512 298.493 199.529C298.484 199.537 298.476 199.545 298.468 199.552C298.464 199.556 298.46 199.56 298.456 199.563C298.454 199.565 298.451 199.568 298.451 199.569C298.448 199.571 298.445 199.574 299.847 201C301.25 202.426 301.247 202.429 301.244 202.431C301.244 202.432 301.241 202.435 301.239 202.436C301.236 202.44 301.232 202.443 301.228 202.447C301.221 202.454 301.214 202.461 301.206 202.468C301.191 202.481 301.175 202.495 301.159 202.51C301.126 202.538 301.088 202.569 301.044 202.6C300.963 202.658 300.828 202.744 300.641 202.812C300.184 202.978 299.462 202.992 298.884 202.484C298.486 202.135 298.456 201.779 298.494 201.952C298.518 202.063 298.559 202.358 298.559 202.95C298.559 205.363 297.894 211.172 295.044 224.584L298.956 225.416ZM301.834 201.236L304.262 180.764L300.29 180.293L297.861 200.764L301.834 201.236ZM329.039 197.186L299.724 199.004L299.971 202.996L329.287 201.178L329.039 197.186ZM329.554 194.055C331.155 194.709 330.766 197.079 329.039 197.186L329.287 201.178C335.257 200.808 336.603 192.612 331.065 190.352L329.554 194.055ZM328.874 183.967C324.815 186.302 325.217 192.285 329.554 194.055L331.065 190.352C329.811 189.84 329.695 188.11 330.869 187.435L328.874 183.967ZM330.022 179C332.07 179 332.795 181.713 331.02 182.734L333.014 186.201C338.34 183.138 336.166 175 330.022 175V179ZM306.248 175C303.208 175 300.648 177.274 300.29 180.293L304.262 180.764C304.382 179.758 305.235 179 306.248 179V175Z" fill="black"/>
</svg>
