<svg width="731" height="439" viewBox="0 0 731 439" fill="none" xmlns="http://www.w3.org/2000/svg">
<path d="M13.6206 351.733C13.6206 351.733 30.2531 338.833 40.998 351.733C51.7428 364.633 45.708 368.151 40.998 372.549C36.2879 376.946 21.8635 382.223 13.6206 372.549C5.37775 362.874 19.2139 355.545 19.2139 355.545" stroke="black" stroke-width="4" stroke-linecap="round"/>
<path d="M461.9 160.556C461.9 160.556 518.4 116.556 554.9 160.556C591.4 204.556 570.9 216.556 554.9 231.556C538.9 246.555 489.901 264.555 461.9 231.556C433.899 198.556 480.9 173.556 480.9 173.556" stroke="#EB7768" stroke-width="8" stroke-linecap="round"/>
<path d="M609 19C594.888 28.36 579.597 54.3878 570.156 72.494C565.831 80.7886 572.453 90.2034 581.771 89.3757V89.3757C592.317 88.4389 599.016 100.405 592.705 108.906L581.5 124" stroke="#EB7768" stroke-width="4" stroke-linecap="round"/>
<path d="M394.357 21.277C408.958 26.1726 416.722 38.3308 420.81 50.8721C424.246 61.4122 441.048 67.1885 448.033 58.5796V58.5796C452.167 53.4833 459.628 53.1417 463.345 58.55C470.921 69.5719 481.367 90.121 481.133 119.415" stroke="#EB7768" stroke-width="4" stroke-linecap="round"/>
<path d="M722.633 143.726L673.263 143.172C662.591 143.052 655.474 154.14 660.026 163.793V163.793C664.824 173.964 656.681 185.476 645.493 184.341L596.577 179.374" stroke="#EB7768" stroke-width="4" stroke-linecap="round"/>
<path d="M455.635 246.726L406.264 246.172C395.593 246.052 388.475 257.14 393.028 266.793V266.793C397.826 276.964 389.683 288.476 378.494 287.341L329.579 282.374" stroke="#EB7768" stroke-width="4" stroke-linecap="round"/>
<path d="M429.318 162.505L389.492 144.833C383.277 142.076 376.302 146.706 376.43 153.503V153.503C376.563 160.592 369.03 165.213 362.771 161.883L324.415 141.474" stroke="#EB7768" stroke-width="4" stroke-linecap="round"/>
<path d="M587.768 249.958L627.855 278.781C636.52 285.011 648.717 280.026 650.537 269.51V269.51C652.455 258.429 665.735 253.686 674.239 261.045L711.419 293.218" stroke="#EB7768" stroke-width="4" stroke-linecap="round"/>
<path d="M507.477 271.248L497.393 296.288C493.704 305.447 501.388 315.139 511.147 313.638V313.638C521.6 312.03 529.347 323.122 524.24 332.382L511.318 355.808" stroke="#EB7768" stroke-width="4" stroke-linecap="round"/>
<path d="M197.621 362.733C197.621 362.733 214.253 349.833 224.998 362.733C235.743 375.633 229.708 379.151 224.998 383.549C220.288 387.946 205.864 393.223 197.621 383.549C189.378 373.874 203.214 366.545 203.214 366.545" stroke="#EB7768" stroke-width="4" stroke-linecap="round"/>
<path d="M287.621 226.733C287.621 226.733 304.253 213.833 314.998 226.733C325.743 239.633 319.708 243.151 314.998 247.549C310.288 251.946 295.864 257.223 287.621 247.549C279.378 237.874 293.214 230.545 293.214 230.545" stroke="#EB7768" stroke-width="4" stroke-linecap="round"/>
<path d="M20.5962 406.967C52.7756 375.964 98.568 368.25 134.571 367.862C154.153 367.651 168.906 343.105 157.284 327.343V327.343C149.445 316.712 153.282 301.89 165.797 297.666C196.037 287.459 252.366 273.713 317.029 283.667" stroke="#EB7768" stroke-width="4" stroke-linecap="round" stroke-dasharray="8 8"/>
<path d="M34.0437 325.584C33.8141 326.665 34.5038 327.727 35.5843 327.956C36.6647 328.186 37.7267 327.496 37.9563 326.416L34.0437 325.584ZM38.8475 302L36.8614 301.764L36.579 304.145L38.9712 303.996L38.8475 302ZM68.8716 286.701L69.8688 288.435L68.8716 286.701ZM71.0168 285.467L70.0196 283.734L71.0168 285.467ZM45.2484 280H69.0225V276H45.2484V280ZM70.0196 283.734L67.8745 284.967L69.8688 288.435L72.0139 287.201L70.0196 283.734ZM37.9563 326.416C40.8012 313.028 41.5593 306.837 41.5593 303.95C41.5593 303.217 41.5118 302.605 41.4025 302.103C41.3067 301.662 41.0989 300.984 40.5229 300.478C39.7665 299.814 38.8664 299.838 38.2764 300.052C38.0229 300.144 37.8322 300.264 37.7122 300.35C37.6487 300.396 37.5952 300.439 37.552 300.476C37.5302 300.495 37.5105 300.512 37.4928 300.529C37.4839 300.537 37.4755 300.545 37.4676 300.552C37.4636 300.556 37.4598 300.56 37.4561 300.563C37.4542 300.565 37.4515 300.568 37.4505 300.569C37.4478 300.571 37.4452 300.574 38.8475 302C40.2497 303.426 40.2471 303.429 40.2444 303.431C40.2436 303.432 40.2409 303.435 40.2391 303.436C40.2356 303.44 40.232 303.443 40.2284 303.447C40.2211 303.454 40.2137 303.461 40.2062 303.468C40.1912 303.481 40.1755 303.495 40.1589 303.51C40.1261 303.538 40.0879 303.569 40.0439 303.6C39.9628 303.658 39.8278 303.744 39.6409 303.812C39.1845 303.978 38.4623 303.992 37.8838 303.484C37.4859 303.135 37.456 302.779 37.4937 302.952C37.5179 303.063 37.5593 303.358 37.5593 303.95C37.5593 306.363 36.8937 312.172 34.0437 325.584L37.9563 326.416ZM40.8335 302.236L43.2623 281.764L39.2902 281.293L36.8614 301.764L40.8335 302.236ZM68.0393 298.186L38.7237 300.004L38.9712 303.996L68.2869 302.178L68.0393 298.186ZM68.5535 295.055C70.1549 295.709 69.7656 298.079 68.0393 298.186L68.2869 302.178C74.2568 301.808 75.6029 293.612 70.0651 291.352L68.5535 295.055ZM67.8745 284.967C63.8147 287.302 64.2175 293.285 68.5535 295.055L70.0651 291.352C68.8113 290.84 68.6949 289.11 69.8688 288.435L67.8745 284.967ZM69.0225 280C71.0704 280 71.7949 282.713 70.0196 283.734L72.0139 287.201C77.3397 284.138 75.1663 276 69.0225 276V280ZM45.2484 276C42.2081 276 39.6484 278.274 39.2902 281.293L43.2623 281.764C43.3817 280.758 44.235 280 45.2484 280V276Z" fill="black"/>
</svg>
