<?xml version="1.0" encoding="UTF-8"?>
<svg width="24px" height="24px" viewBox="0 0 24 24" version="1.1" xmlns="http://www.w3.org/2000/svg" xmlns:xlink="http://www.w3.org/1999/xlink">
    <!-- Generator: Sketch 47 (45396) - http://www.bohemiancoding.com/sketch -->
    <title>Icon/Search</title>
    <desc>Created with Sketch.</desc>
    <defs></defs>
    <g id="Page-1" stroke="none" stroke-width="1" fill="none" fill-rule="evenodd">
        <g id="Guideline" transform="translate(-292.000000, -1760.000000)"  fill="#0A1620" fill-opacity="0.37">
            <g id="Icons" transform="translate(0.000000, 1648.000000)">
                <g id="Navigate" transform="translate(252.000000, 112.000000)">
                    <g id="Icon/Search" transform="translate(40.000000, 0.000000)">
                        <path d="M9.515625,14.015625 C10.7656313,14.015625 11.8281206,13.5781294 12.703125,12.703125 C13.5781294,11.8281206 14.015625,10.7656312 14.015625,9.515625 C14.015625,8.26561875 13.5781294,7.20312937 12.703125,6.328125 C11.8281206,5.45312063 10.7656313,5.015625 9.515625,5.015625 C8.26561875,5.015625 7.20312937,5.45312063 6.328125,6.328125 C5.45312063,7.20312937 5.015625,8.26561875 5.015625,9.515625 C5.015625,10.7656312 5.45312063,11.8281206 6.328125,12.703125 C7.20312937,13.5781294 8.26561875,14.015625 9.515625,14.015625 Z M15.515625,14.015625 L20.484375,18.984375 L18.984375,20.484375 L14.015625,15.515625 L14.015625,14.71875 L13.734375,14.4375 C12.5468691,15.4687552 11.1406331,15.984375 9.515625,15.984375 C7.70311594,15.984375 6.16406883,15.3593813 4.8984375,14.109375 C3.63280617,12.8593687 3,11.3281341 3,9.515625 C3,7.70311594 3.63280617,6.16406883 4.8984375,4.8984375 C6.16406883,3.63280617 7.70311594,3 9.515625,3 C11.3281341,3 12.8593688,3.63280617 14.109375,4.8984375 C15.3593813,6.16406883 15.984375,7.70311594 15.984375,9.515625 C15.984375,11.1406331 15.4687552,12.5468691 14.4375,13.734375 L14.71875,14.015625 L15.515625,14.015625 Z" id="search---MaterialIcons-Regular"></path>
                    </g>
                </g>
            </g>
        </g>
    </g>
</svg>