<?xml version="1.0" encoding="UTF-8"?>
<svg width="24px" height="24px" viewBox="0 0 24 24" version="1.1" xmlns="http://www.w3.org/2000/svg" xmlns:xlink="http://www.w3.org/1999/xlink">
    <!-- Generator: Sketch 47 (45396) - http://www.bohemiancoding.com/sketch -->
    <title>Icon/Enter</title>
    <desc>Created with Sketch.</desc>
    <defs></defs>
    <g id="Page-1" stroke="none" stroke-width="1" fill="none" fill-rule="evenodd">
        <g id="Guideline" transform="translate(-572.000000, -1760.000000)" fill="#0A1620" fill-opacity="0.37">
            <g id="Icons" transform="translate(0.000000, 1648.000000)">
                <g id="Navigate" transform="translate(252.000000, 112.000000)">
                    <g id="Icon/Enter" transform="translate(323.000000, 3.000000)">
                        <path d="M15.984375,0 C16.5156277,0 16.984373,0.203122969 17.390625,0.609375 C17.796877,1.01562703 18,1.48437234 18,2.015625 L18,15.984375 C18,16.5156277 17.796877,16.984373 17.390625,17.390625 C16.984373,17.796877 16.5156277,18 15.984375,18 L2.015625,18 C1.45312219,18 0.976564453,17.796877 0.5859375,17.390625 C0.195310547,16.984373 0,16.5156277 0,15.984375 L0,12 L2.015625,12 L2.015625,15.984375 L15.984375,15.984375 L15.984375,2.015625 L2.015625,2.015625 L2.015625,6 L0,6 L0,2.015625 C0,1.48437234 0.195310547,1.01562703 0.5859375,0.609375 C0.976564453,0.203122969 1.45312219,0 2.015625,0 L15.984375,0 Z M7.078125,12.609375 L9.65625,9.984375 L0,9.984375 L0,8.015625 L9.65625,8.015625 L7.078125,5.390625 L8.484375,3.984375 L13.5,9 L8.484375,14.015625 L7.078125,12.609375 Z" id="Exit-To-App---MaterialIcons-Regular"></path>
                    </g>
                </g>
            </g>
        </g>
    </g>
</svg>