<svg width="756" height="436" viewBox="0 0 756 436" fill="none" xmlns="http://www.w3.org/2000/svg">
<g filter="url(#filter0_d)">
<path d="M341.53 317.821L423.658 373.637L595.303 397.74L629.632 373.637V425.647H750.001V347.421H629.632L595.303 373.637L454.077 245.515L595.303 160.1L568.796 128.386L423.658 184.202L383.68 173.208L394.979 63.2676H351.09L328.493 160.1L291.992 63.2676H223.334L291.992 184.202L272.872 212.11L173.796 100.478L149.027 160.1L236.805 245.515L223.334 267.926L149.027 232.406L125.996 254.817L223.334 347.421L341.53 317.821Z" fill="url(#paint0_linear)" stroke="url(#paint1_linear)" stroke-width="4"/>
<mask id="path-2-inside-1" fill="white">
<path fill-rule="evenodd" clip-rule="evenodd" d="M710.889 322.476C720.462 304.634 713.759 282.409 695.917 272.836C688.782 269.008 680.947 267.783 673.501 268.832L614.366 271.357L644.952 322.016C648.196 328.805 653.551 334.661 660.69 338.491C678.532 348.064 700.757 341.361 710.33 323.519L710.889 322.476Z"/>
</mask>
<path fill-rule="evenodd" clip-rule="evenodd" d="M710.889 322.476C720.462 304.634 713.759 282.409 695.917 272.836C688.782 269.008 680.947 267.783 673.501 268.832L614.366 271.357L644.952 322.016C648.196 328.805 653.551 334.661 660.69 338.491C678.532 348.064 700.757 341.361 710.33 323.519L710.889 322.476Z" fill="url(#paint2_angular)"/>
<path d="M673.501 268.832L673.671 272.828L673.866 272.82L674.058 272.792L673.501 268.832ZM614.366 271.357L614.195 267.361L607.454 267.649L610.941 273.425L614.366 271.357ZM644.952 322.016L648.562 320.291L648.478 320.115L648.377 319.948L644.952 322.016ZM694.026 276.361C709.921 284.89 715.893 304.689 707.364 320.585L714.414 324.367C725.031 304.578 717.597 279.929 697.808 269.312L694.026 276.361ZM674.058 272.792C680.692 271.858 687.665 272.949 694.026 276.361L697.808 269.312C689.899 265.068 681.203 263.708 672.943 264.871L674.058 272.792ZM673.33 264.835L614.195 267.361L614.536 275.354L673.671 272.828L673.33 264.835ZM610.941 273.425L641.528 324.083L648.377 319.948L617.79 269.29L610.941 273.425ZM662.581 334.966C656.217 331.552 651.451 326.34 648.562 320.291L641.343 323.74C644.941 331.271 650.886 337.77 658.799 342.016L662.581 334.966ZM706.805 321.627C698.276 337.523 678.477 343.495 662.581 334.966L658.799 342.016C678.588 352.633 703.237 345.199 713.854 325.41L706.805 321.627ZM707.364 320.585L706.805 321.627L713.854 325.41L714.414 324.367L707.364 320.585Z" fill="#453397" mask="url(#path-2-inside-1)"/>
<path d="M665.734 277.587C662.726 283.194 664.859 290.222 670.543 293.271C676.227 296.321 683.262 294.212 686.27 288.606C689.278 282.999 687.145 275.971 681.461 272.922C675.777 269.872 668.742 271.981 665.734 277.587Z" fill="white" stroke="#453397" stroke-width="4"/>
<path d="M605.218 172.066L540.023 94.5947H600.985L645.859 144.549L605.218 172.066Z" fill="white" stroke="black" stroke-width="4"/>
<path d="M377.46 155.556L335.973 51.4141H396.934L437.998 135.236L377.46 155.556Z" fill="white" stroke="black" stroke-width="4"/>
<path d="M377.632 72.5811L335.973 51.4141H397.187L438.421 68.451L377.632 72.5811Z" fill="white" stroke="black" stroke-width="4"/>
<path d="M123.112 258.683L62.0703 261.814L126.418 233.027L166.473 215.878L123.112 258.683Z" fill="white" stroke="black" stroke-width="4"/>
<path d="M119.222 223.291L61.2416 248.037L63.7809 142.224L148.554 192.424L119.222 223.291Z" fill="white" stroke="black" stroke-width="4"/>
<path d="M282.595 48.0749L263.562 118.119L263.562 48.0749L242.377 34.528L273.705 12.0905L306.302 37.0681L282.595 48.0749Z" fill="white" stroke="black" stroke-width="4"/>
<path d="M161.682 133.246L145.081 172.729L156.492 131.017L146.379 127.468L160.198 89.0969L171.561 92.8718L172.907 75.9063L180.179 78.5122L187.452 81.1175L178.54 96.178L187.096 102.132L183.17 114.329L179.997 122.36L174.787 136.905L161.682 133.246Z" fill="white"/>
<path d="M167.193 117.034L179.997 122.36M179.997 122.36L174.787 136.905L161.682 133.246L145.081 172.729L156.492 131.017L146.379 127.468L160.198 89.0969L171.561 92.8718L172.907 75.9063L180.179 78.5122L187.452 81.1175L178.54 96.178L187.096 102.132L183.17 114.329M179.997 122.36L183.17 114.329M183.17 114.329L169.949 108.928" stroke="black" stroke-width="4"/>
<path d="M375.344 128.039V112.375L399.051 118.302V79.3545" stroke="black" stroke-width="4"/>
<path d="M45.5605 116.186L117.952 222.867" stroke="black" stroke-width="4"/>
<path d="M68.8453 102.215L46.4082 116.608L56.145 126.769L71.3853 116.608H60.8018L68.8453 102.215Z" stroke="black" stroke-width="4"/>
</g>
<defs>
<filter id="filter0_d" x="0.769531" y="0.572266" width="755.231" height="435.075" filterUnits="userSpaceOnUse" color-interpolation-filters="sRGB">
<feFlood flood-opacity="0" result="BackgroundImageFix"/>
<feColorMatrix in="SourceAlpha" type="matrix" values="0 0 0 0 0 0 0 0 0 0 0 0 0 0 0 0 0 0 127 0"/>
<feOffset dy="4"/>
<feGaussianBlur stdDeviation="2"/>
<feColorMatrix type="matrix" values="0 0 0 0 0 0 0 0 0 0 0 0 0 0 0 0 0 0 0.25 0"/>
<feBlend mode="normal" in2="BackgroundImageFix" result="effect1_dropShadow"/>
<feBlend mode="normal" in="SourceGraphic" in2="effect1_dropShadow" result="shape"/>
</filter>
<linearGradient id="paint0_linear" x1="700" y1="573.5" x2="219.5" y2="53" gradientUnits="userSpaceOnUse">
<stop offset="0.115773" stop-color="#EB7768"/>
<stop offset="0.498157" stop-color="#920193"/>
<stop offset="0.587613" stop-color="#F9B608"/>
<stop offset="0.90584" stop-color="#EB7768"/>
</linearGradient>
<linearGradient id="paint1_linear" x1="682.899" y1="425.647" x2="237.681" y2="85.4254" gradientUnits="userSpaceOnUse">
<stop stop-color="#453397"/>
<stop offset="0.458564" stop-color="#920193"/>
<stop offset="0.977901" stop-color="#EB7768"/>
</linearGradient>
<radialGradient id="paint2_angular" cx="0" cy="0" r="1" gradientUnits="userSpaceOnUse" gradientTransform="translate(667.5 299.5) rotate(-152.093) scale(60.1272 41.0168)">
<stop stop-color="#851E8E"/>
<stop offset="1" stop-color="#EB7768"/>
</radialGradient>
</defs>
</svg>
