<?xml version="1.0" encoding="UTF-8" standalone="no"?>
<svg
   xmlns:dc="http://purl.org/dc/elements/1.1/"
   xmlns:cc="http://creativecommons.org/ns#"
   xmlns:rdf="http://www.w3.org/1999/02/22-rdf-syntax-ns#"
   xmlns:svg="http://www.w3.org/2000/svg"
   xmlns="http://www.w3.org/2000/svg"
   xmlns:sodipodi="http://sodipodi.sourceforge.net/DTD/sodipodi-0.dtd"
   xmlns:inkscape="http://www.inkscape.org/namespaces/inkscape"
   width="31"
   height="31"
   viewBox="0 0 31 31"
   fill="none"
   version="1.1"
   id="svg3903"
   sodipodi:docname="big_direction.svg"
   inkscape:version="0.92.3 (unknown)">
  <metadata
     id="metadata3909">
    <rdf:RDF>
      <cc:Work
         rdf:about="">
        <dc:format>image/svg+xml</dc:format>
        <dc:type
           rdf:resource="http://purl.org/dc/dcmitype/StillImage" />
      </cc:Work>
    </rdf:RDF>
  </metadata>
  <defs
     id="defs3907" />
  <sodipodi:namedview
     pagecolor="#ffffff"
     bordercolor="#666666"
     borderopacity="1"
     objecttolerance="10"
     gridtolerance="10"
     guidetolerance="10"
     inkscape:pageopacity="0"
     inkscape:pageshadow="2"
     inkscape:window-width="1855"
     inkscape:window-height="1056"
     id="namedview3905"
     showgrid="false"
     inkscape:zoom="29.483871"
     inkscape:cx="15.5"
     inkscape:cy="15.5"
     inkscape:window-x="65"
     inkscape:window-y="24"
     inkscape:window-maximized="1"
     inkscape:current-layer="svg3903" />
  <path
     d="M15.6345 0.0286655C13.3404 0.0286655 11.4739 1.89516 11.4739 4.18932C11.4739 6.48349 13.3403 8.34998 15.6345 8.34998C17.9288 8.34998 19.7952 6.48349 19.7952 4.18932C19.7952 1.89516 17.9287 0.0286655 15.6345 0.0286655Z"
     fill="#C4C4C4"
     id="path3899"
     style="fill:#ffffff" />
  <path
     d="M29.5032 22.4612H25.2455L22.8019 17.9327C22.61 14.1457 19.4684 11.1238 15.6344 11.1238C11.8004 11.1238 8.65883 14.1457 8.4668 17.9327L6.02319 22.4612H1.76553C0.999565 22.4612 0.378662 23.082 0.378662 23.8481V29.3956C0.378662 30.1614 0.999625 30.7824 1.76553 30.7824H11.936C12.7019 30.7824 13.3229 30.1614 13.3229 29.3956V23.8481C13.3229 23.082 12.7019 22.4612 11.936 22.4612H9.17522L10.6719 19.6874H20.5968L22.0936 22.4612H19.3328C18.5669 22.4612 17.9459 23.082 17.9459 23.8481V29.3956C17.9459 30.1614 18.5669 30.7824 19.3328 30.7824H29.5033C30.2692 30.7824 30.8901 30.1614 30.8901 29.3956V23.8481C30.8901 23.082 30.2692 22.4612 29.5032 22.4612Z"
     fill="#C4C4C4"
     id="path3901"
     style="fill:#ffffff" />
</svg>
