<svg width="35" height="35" viewBox="0 0 35 35" fill="none" xmlns="http://www.w3.org/2000/svg">
<path d="M21.431 12.6289C20.5075 13.8488 19.0582 14.6504 17.4138 14.6504C15.7694 14.6504 14.3201 13.8488 13.3967 12.6289C12.7553 13.4762 12.3601 14.5191 12.3601 15.6611V17.6826C12.3601 18.2413 12.8122 18.6934 13.3708 18.6934H21.4568C22.0155 18.6934 22.4675 18.2413 22.4675 17.6826V15.6611C22.4675 14.5191 22.0723 13.4762 21.431 12.6289Z" fill="white"/>
<path d="M17.4138 6.56447C15.7418 6.56447 14.3816 7.92466 14.3816 9.59669C14.3816 11.2687 15.7418 12.6289 17.4138 12.6289C19.0859 12.6289 20.446 11.2687 20.446 9.59669C20.446 7.92466 19.0859 6.56447 17.4138 6.56447Z" fill="white"/>
<path d="M33.6273 6.56447C32.7038 7.78437 31.2545 8.58595 29.6101 8.58595C27.9657 8.58595 26.5164 7.78437 25.5929 6.56447C24.9516 7.41174 24.5564 8.45469 24.5564 9.59669V11.6182C24.5564 12.1769 25.0085 12.6289 25.5671 12.6289H33.6531C34.2117 12.6289 34.6638 12.1769 34.6638 11.6182V9.59669C34.6638 8.45469 34.2686 7.41174 33.6273 6.56447Z" fill="white"/>
<path d="M29.6101 0.500015C27.9381 0.500015 26.5779 1.8602 26.5779 3.53224C26.5779 5.20428 27.9381 6.56447 29.6101 6.56447C31.2821 6.56447 32.6423 5.20428 32.6423 3.53224C32.6423 1.8602 31.2821 0.500015 29.6101 0.500015Z" fill="white"/>
<path d="M9.23469 18.6934C8.31121 19.9133 6.86194 20.7148 5.21753 20.7148C3.57312 20.7148 2.12385 19.9133 1.20037 18.6934C0.559019 19.5406 0.163818 20.5836 0.163818 21.7256V23.7471C0.163818 24.3057 0.61589 24.7578 1.17456 24.7578H9.2605C9.81917 24.7578 10.2712 24.3057 10.2712 23.7471V21.7256C10.2712 20.5836 9.87604 19.5406 9.23469 18.6934Z" fill="white"/>
<path d="M5.21753 12.6289C3.54549 12.6289 2.1853 13.9891 2.1853 15.6611C2.1853 17.3332 3.54549 18.6934 5.21753 18.6934C6.88957 18.6934 8.24976 17.3332 8.24976 15.6611C8.24976 13.9891 6.88957 12.6289 5.21753 12.6289Z" fill="white"/>
<path d="M33.6531 14.6504H25.5671C25.0085 14.6504 24.5564 15.1025 24.5564 15.6611V32.9785H22.4675V21.7256C22.4675 21.1669 22.0155 20.7149 21.4568 20.7149H13.3708C12.8122 20.7149 12.3601 21.1669 12.3601 21.7256V32.9785H10.2712V27.7901C10.2712 27.2314 9.81917 26.7793 9.2605 26.7793H1.17456C0.61589 26.7793 0.163818 27.2314 0.163818 27.7901V33.9893C0.163818 34.5479 0.61589 35 1.17456 35C4.01306 35 5.54279 35 6.31722 35C6.84489 35 7.02204 35 7.02305 35C8.89367 35 15.1727 35 33.6531 35C34.2117 35 34.6638 34.5479 34.6638 33.9893V15.6611C34.6638 15.1025 34.2117 14.6504 33.6531 14.6504Z" fill="white"/>
</svg>
