<svg width="32" height="33" viewBox="0 0 32 33" fill="none" xmlns="http://www.w3.org/2000/svg">
<path d="M17.687 18.8021H14.8464V21.6427H17.687V18.8021Z" fill="white"/>
<path d="M30.4696 6.49297H22.4213V2.23212C22.4213 1.44773 21.7854 0.811813 21.001 0.811813H11.5324C10.748 0.811813 10.1121 1.44773 10.1121 2.23212V6.49297H2.06386C1.27947 6.49297 0.643555 7.12876 0.643555 7.91328V12.7222L2.06386 13.0772L3.48416 13.4323L13.6011 15.9615H18.9325L29.0493 13.4322L30.4696 13.0771L31.8899 12.722V7.91321C31.8899 7.12876 31.254 6.49297 30.4696 6.49297ZM19.5807 6.49297H12.9527V3.65236H19.5807V6.49297Z" fill="white"/>
<path d="M30.4696 16.0052L29.0493 16.3603L20.5276 18.4907V23.063C20.5276 23.8473 19.8917 24.4833 19.1073 24.4833H13.4261C12.6417 24.4833 12.0058 23.8473 12.0058 23.063V18.4907L3.4841 16.3603L2.0638 16.0052L0.643555 15.6502V30.6379C0.643555 31.4222 1.27947 32.0581 2.06386 32.0581H30.4696C31.254 32.0581 31.8899 31.4222 31.8899 30.6378V15.6502L30.4696 16.0052Z" fill="white"/>
</svg>
