<?xml version="1.0" encoding="UTF-8" standalone="no"?>
<svg
   xmlns:dc="http://purl.org/dc/elements/1.1/"
   xmlns:cc="http://creativecommons.org/ns#"
   xmlns:rdf="http://www.w3.org/1999/02/22-rdf-syntax-ns#"
   xmlns:svg="http://www.w3.org/2000/svg"
   xmlns="http://www.w3.org/2000/svg"
   xmlns:sodipodi="http://sodipodi.sourceforge.net/DTD/sodipodi-0.dtd"
   xmlns:inkscape="http://www.inkscape.org/namespaces/inkscape"
   width="29"
   height="38"
   viewBox="0 0 29 38"
   fill="none"
   version="1.1"
   id="svg3923"
   sodipodi:docname="regions.svg"
   inkscape:version="0.92.3 (unknown)">
  <metadata
     id="metadata3929">
    <rdf:RDF>
      <cc:Work
         rdf:about="">
        <dc:format>image/svg+xml</dc:format>
        <dc:type
           rdf:resource="http://purl.org/dc/dcmitype/StillImage" />
      </cc:Work>
    </rdf:RDF>
  </metadata>
  <defs
     id="defs3927" />
  <sodipodi:namedview
     pagecolor="#ffffff"
     bordercolor="#666666"
     borderopacity="1"
     objecttolerance="10"
     gridtolerance="10"
     guidetolerance="10"
     inkscape:pageopacity="0"
     inkscape:pageshadow="2"
     inkscape:window-width="640"
     inkscape:window-height="480"
     id="namedview3925"
     showgrid="false"
     inkscape:zoom="6.2105263"
     inkscape:cx="14.5"
     inkscape:cy="19"
     inkscape:window-x="65"
     inkscape:window-y="24"
     inkscape:window-maximized="0"
     inkscape:current-layer="svg3923" />
  <path
     d="M14.737 11.7153C13.5429 11.7153 12.5708 12.6874 12.5708 13.8815C12.5708 15.0757 13.5429 16.0478 14.737 16.0478C15.9312 16.0478 16.9033 15.0757 16.9033 13.8815C16.9033 12.6874 15.9312 11.7153 14.737 11.7153Z"
     fill="#C4C4C4"
     id="path3911"
     style="fill:#ffffff" />
  <path
     d="M14.737 18.214C12.3476 18.214 10.4045 20.1571 10.4045 22.5465H19.0695C19.0695 20.1571 17.1265 18.214 14.737 18.214Z"
     fill="#C4C4C4"
     id="path3913"
     style="fill:#ffffff" />
  <path
     d="M7.15503 7.38281V22.5465H8.23815C8.23815 20.0976 9.61545 17.9866 11.6212 16.879C10.8714 16.0998 10.4044 15.0461 10.4044 13.8815C10.4044 11.4921 12.3474 9.54905 14.7369 9.54905C17.1263 9.54905 19.0694 11.4921 19.0694 13.8815C19.0694 15.0461 18.6025 16.0998 17.8527 16.879C19.8585 17.9866 21.2356 20.0976 21.2356 22.5465H22.3187V7.38281H7.15503Z"
     fill="#C4C4C4"
     id="path3915"
     style="fill:#ffffff" />
  <path
     d="M25.5683 0.811859H3.90586C2.11409 0.811859 0.656494 2.26945 0.656494 4.06123V25.7959C0.656494 27.5877 2.11409 29.0452 3.90586 29.0452H9.82498L13.8359 35.1338C14.0369 35.4353 14.3754 35.6162 14.7371 35.6162C15.0988 35.6162 15.4373 35.4353 15.6382 35.1338L19.6492 29.0452H25.5683C27.3601 29.0452 28.8177 27.5877 28.8177 25.7959V4.06123C28.8177 2.26945 27.3601 0.811859 25.5683 0.811859ZM24.4852 23.6296C24.4852 24.2283 24.0007 24.7128 23.4021 24.7128C19.5938 24.7128 9.78462 24.7128 6.07211 24.7128C5.47343 24.7128 4.98898 24.2283 4.98898 23.6296V6.29968C4.98898 5.701 5.47343 5.21656 6.07211 5.21656H23.4021C24.0007 5.21656 24.4852 5.701 24.4852 6.29968V23.6296Z"
     fill="#C4C4C4"
     id="path3917"
     style="fill:#ffffff" />
  <path
     d="M12.0336 36.3355L8.88347 31.6105C5.76697 31.9934 2.82275 32.8094 2.82275 34.5331C2.82275 37.5476 11.9426 37.7824 14.7371 37.7824C13.6487 37.7824 12.6375 37.242 12.0336 36.3355Z"
     fill="#C4C4C4"
     id="path3919"
     style="fill:#ffffff" />
  <path
     d="M20.5907 31.6105L17.4406 36.3355C16.8367 37.242 15.8255 37.7824 14.7371 37.7824C17.5316 37.7824 26.6514 37.5476 26.6514 34.5331C26.6514 32.8094 23.7072 31.9934 20.5907 31.6105Z"
     fill="#C4C4C4"
     id="path3921"
     style="fill:#ffffff" />
</svg>
