<svg width="26" height="41" viewBox="0 0 26 41" fill="none" xmlns="http://www.w3.org/2000/svg">
<path d="M10.3564 27.9773C10.9168 28.4323 11.5131 28.9163 12.14 29.4396C12.3533 29.6172 12.615 29.7059 12.8768 29.7059C13.1383 29.7059 13.4001 29.6172 13.6133 29.4396C14.239 28.9172 14.8357 28.4332 15.3961 27.9782C18.6084 25.3715 20.93 23.4869 20.93 20.6529C20.93 17.9874 18.9083 15.9007 16.3282 15.9007C14.6874 15.9007 13.5855 16.707 12.8765 17.5675C12.1691 16.707 11.0683 15.9007 9.42605 15.9007C6.84628 15.9007 4.82422 17.9874 4.82422 20.6529C4.82452 23.4869 7.1449 25.3703 10.3564 27.9773Z" fill="white"/>
<path d="M20.9297 10.8211V5.00115C20.9297 4.05796 20.1477 3.27591 19.2045 3.27591C18.2613 3.27591 17.4792 4.05796 17.4792 5.00115V13.7154C17.9133 13.7876 18.3284 13.9014 18.7294 14.05C18.9577 12.6668 19.7739 11.487 20.9297 10.8211Z" fill="white"/>
<path d="M15.179 13.7516V2.70084C15.179 1.75765 14.3969 0.975601 13.4538 0.975601C12.5106 0.975601 11.7285 1.75765 11.7285 2.70084V14.0497C12.1212 14.1934 12.5181 14.327 12.8775 14.5463C13.5763 14.12 14.3613 13.8897 15.179 13.7516Z" fill="white"/>
<path d="M23.2302 12.4772C21.965 12.4772 20.9299 13.5123 20.9299 14.7775V15.3912C22.3385 16.6737 23.2302 18.5296 23.2302 20.6529C23.2302 24.5832 20.2715 26.9844 16.8459 29.7643C16.6186 29.9491 16.361 30.1623 16.122 30.3573C15.9899 30.5571 15.8108 30.7159 15.5817 30.8003C15.4127 30.9393 15.2606 31.0606 15.0868 31.2053C14.4656 31.7231 13.6818 32.0062 12.8764 32.0062C12.0713 32.0062 11.2871 31.7231 10.6695 31.2086C10.0471 30.6886 9.45856 30.2124 8.90595 29.7631C5.48123 26.982 2.52407 24.5817 2.52407 20.6529C2.52407 19.1774 2.94759 17.8227 3.67752 16.7022V9.60178C3.67752 8.65859 2.89548 7.87654 1.95229 7.87654C1.0091 7.87654 0.227051 8.65859 0.227051 9.60178V26.2791H0.29624C0.595161 29.6603 2.18232 32.7199 4.82768 34.8822V39.0842C4.82768 39.7281 5.33357 40.2343 5.97784 40.2343H19.7797C20.424 40.2343 20.9299 39.7281 20.9299 39.0842V34.8822C23.8514 32.4669 25.5305 28.9475 25.5305 25.1289V14.7775C25.5305 13.5123 24.4954 12.4772 23.2302 12.4772Z" fill="white"/>
<path d="M9.4285 13.6007V5.00115C9.4285 4.05796 8.64645 3.27591 7.70326 3.27591C6.76007 3.27591 5.97803 4.05796 5.97803 5.00115V14.5501C6.99071 13.961 8.15494 13.6004 9.4264 13.6004C9.427 13.6004 9.4276 13.6007 9.4285 13.6007Z" fill="white"/>
</svg>
