<svg width="39" height="39" viewBox="0 0 39 39" fill="none" xmlns="http://www.w3.org/2000/svg">
<path d="M19.2083 0.500015C18.5972 0.500015 18.1028 0.994467 18.1028 1.60551V3.81651C18.1028 4.42755 18.5972 4.922 19.2083 4.922C19.8193 4.922 20.3138 4.42755 20.3138 3.81651V1.60551C20.3138 0.994467 19.8193 0.500015 19.2083 0.500015Z" fill="white"/>
<path d="M15.5681 5.24585L13.3571 3.03485C12.9253 2.60305 12.2256 2.60305 11.7938 3.03485C11.362 3.46666 11.362 4.16629 11.7938 4.5981L14.0048 6.80909C14.4366 7.2409 15.1363 7.2409 15.5681 6.80909C15.9999 6.37729 15.9999 5.67765 15.5681 5.24585Z" fill="white"/>
<path d="M26.6229 3.03485C26.1911 2.60305 25.4914 2.60305 25.0596 3.03485L22.8486 5.24585C22.4168 5.67765 22.4168 6.37729 22.8486 6.80909C23.2804 7.2409 23.9801 7.24097 24.4119 6.80909L26.6229 4.5981C27.0547 4.16629 27.0547 3.46666 26.6229 3.03485Z" fill="white"/>
<path d="M19.2083 33.8123C18.5972 33.8123 18.1028 34.3068 18.1028 34.9178V37.1288C18.1028 37.7399 18.5972 38.2343 19.2083 38.2343C19.8193 38.2343 20.3138 37.7399 20.3138 37.1288V34.9178C20.3138 34.3068 19.8193 33.8123 19.2083 33.8123Z" fill="white"/>
<path d="M15.5678 31.9252C15.136 31.4934 14.4364 31.4934 14.0046 31.9252L11.7936 34.1362C11.3618 34.5681 11.3618 35.2677 11.7936 35.6995C12.2254 36.1313 12.925 36.1313 13.3568 35.6995L15.5678 33.4885C15.9997 33.0566 15.9997 32.3571 15.5678 31.9252Z" fill="white"/>
<path d="M26.6228 34.1362L24.4119 31.9252C23.9801 31.4934 23.2804 31.4934 22.8486 31.9252C22.4168 32.3571 22.4168 33.0567 22.8486 33.4885L25.0596 35.6995C25.2756 35.9154 25.5584 36.0234 25.8412 36.0234C26.124 36.0234 26.4069 35.9154 26.6228 35.6995C27.0546 35.2677 27.0546 34.5681 26.6228 34.1362Z" fill="white"/>
<path d="M28.605 26.6224H26.394C25.4782 26.6224 24.7357 27.3648 24.7357 28.2806C24.7357 29.1964 25.4782 29.9389 26.394 29.9389H28.605C29.5208 29.9389 30.2632 29.1964 30.2632 28.2806C30.2632 27.3648 29.5208 26.6224 28.605 26.6224Z" fill="white"/>
<path d="M28.605 21.0949H24.183C23.2672 21.0949 22.5248 21.8373 22.5248 22.7532C22.5248 23.669 23.2672 24.4114 24.183 24.4114H28.605C29.5209 24.4114 30.2633 23.669 30.2633 22.7532C30.2633 21.8373 29.5209 21.0949 28.605 21.0949Z" fill="white"/>
<path d="M24.183 10.0399C23.2672 10.0399 22.5248 10.7824 22.5248 11.6982C22.5248 12.614 23.2672 13.3564 24.183 13.3564H24.7358V10.0399H24.183Z" fill="white"/>
<path d="M24.7356 17.2257V15.5674H21.9718C21.0561 15.5674 20.3136 16.3099 20.3136 17.2257C20.3136 18.1415 21.0561 18.8839 21.9718 18.8839H25.1237C24.8822 18.3794 24.7356 17.8213 24.7356 17.2257Z" fill="white"/>
<path d="M33.822 7.58255H30.8676C28.6394 7.89533 27.0205 9.77681 27.0205 11.9824V17.2226C27.0205 17.2668 27.0205 17.3332 27.0426 17.3773C27.1089 18.2395 27.7943 18.8809 28.6788 18.8809C29.5852 18.8809 30.337 18.1512 30.337 17.2226V13.3534C30.3043 12.4395 30.3848 11.6287 31.4204 11.6287H33.6314C34.2505 11.6287 34.759 12.1372 34.759 12.7563C34.759 13.3534 34.2726 13.8397 33.6756 13.8397H32.548V17.2226C32.548 18.3164 32.0607 19.298 31.379 20.0203C32.0967 20.7017 32.548 21.667 32.548 22.7501C32.548 23.8556 32.0836 24.8505 31.3541 25.5139C32.0837 26.1993 32.548 27.1941 32.548 28.2776C32.548 28.8745 32.4153 29.4272 32.1722 29.9137L33.2998 29.8916C33.5651 29.8695 33.8083 29.8473 34.0736 29.8031C36.2898 29.5037 38.0755 28.4644 38.0755 26.273V11.2838C38.0755 9.07342 36.0395 7.58255 33.822 7.58255Z" fill="white"/>
<path d="M12.0227 26.6224H9.81169C8.89582 26.6224 8.15344 27.3648 8.15344 28.2806C8.15344 29.1964 8.89582 29.9389 9.81169 29.9389H12.0227C12.9385 29.9389 13.6809 29.1964 13.6809 28.2806C13.6809 27.3648 12.9385 26.6224 12.0227 26.6224Z" fill="white"/>
<path d="M14.2337 21.0949H9.81169C8.89582 21.0949 8.15344 21.8373 8.15344 22.7532C8.15344 23.669 8.89582 24.4114 9.81169 24.4114H14.2337C15.1495 24.4114 15.8919 23.669 15.8919 22.7532C15.8919 21.8373 15.1495 21.0949 14.2337 21.0949Z" fill="white"/>
<path d="M14.2337 10.0399H13.6809V13.3564H14.2337C15.1495 13.3564 15.8919 12.614 15.8919 11.6982C15.8919 10.7824 15.1495 10.0399 14.2337 10.0399Z" fill="white"/>
<path d="M16.4446 15.5674H13.6808V17.2257C13.6808 17.8213 13.5342 18.3794 13.2927 18.8839H16.4446C17.3604 18.8839 18.1028 18.1415 18.1028 17.2257C18.1028 16.3099 17.3604 15.5674 16.4446 15.5674Z" fill="white"/>
<path d="M7.54903 7.5825H4.59462C2.37714 7.5825 0.341187 9.07345 0.341187 11.2838V26.2729C0.341187 28.4643 2.12686 29.5036 4.34309 29.8031C4.60841 29.8474 4.85154 29.8695 5.11686 29.8916L6.24447 29.9137C6.00133 29.4272 5.86867 28.8744 5.86867 28.2776C5.86867 27.194 6.33305 26.1992 7.06253 25.5138C6.33298 24.8504 5.86867 23.8556 5.86867 22.7501C5.86867 21.667 6.31994 20.7017 7.03762 20.0203C6.35597 19.298 5.86867 18.3164 5.86867 17.2226V13.8397H4.74106C4.14402 13.8397 3.65768 13.3533 3.65768 12.7563C3.65768 12.1372 4.16613 11.6287 4.78528 11.6287H6.99628C8.03191 11.6287 8.11231 12.4395 8.07967 13.3533V17.2226C8.07967 18.1511 8.83148 18.8808 9.73791 18.8808C10.6224 18.8808 11.3078 18.2396 11.374 17.3772C11.3962 17.3331 11.3962 17.2667 11.3962 17.2226V11.9824C11.3962 9.77677 9.77734 7.89536 7.54903 7.5825Z" fill="white"/>
</svg>
