<svg width="11" height="10" viewBox="0 0 11 10" fill="none" xmlns="http://www.w3.org/2000/svg">
<path d="M9.97516 3.95598L9.99117 3.95949H3.12642L5.28444 1.7967C5.39012 1.69111 5.44809 1.54807 5.44809 1.39794C5.44809 1.24781 5.39012 1.10577 5.28444 0.999931L4.94865 0.663975C4.84306 0.558384 4.70236 0.5 4.55231 0.5C4.40218 0.5 4.2614 0.557967 4.1558 0.663558L0.456529 4.3625C0.350521 4.46851 0.292554 4.60971 0.292971 4.75993C0.292554 4.91097 0.350521 5.05226 0.456529 5.1581L4.1558 8.85738C4.2614 8.96288 4.4021 9.02094 4.55231 9.02094C4.70236 9.02094 4.84306 8.9628 4.94865 8.85738L5.28444 8.52142C5.39012 8.416 5.44809 8.27521 5.44809 8.12508C5.44809 7.97503 5.39012 7.84167 5.28444 7.73616L3.10206 5.56128H9.98283C10.292 5.56128 10.5518 5.2948 10.5518 4.98579V4.51063C10.5518 4.20161 10.2843 3.95598 9.97516 3.95598Z" fill="#0E12A6"/>
</svg>
