<svg width="13" height="15" viewBox="0 0 13 15" fill="none" xmlns="http://www.w3.org/2000/svg">
<path d="M12.0987 7.19594C11.9101 7.00763 11.6813 6.91355 11.4118 6.91355H11.0888V4.97674C11.0888 3.73942 10.6445 2.67702 9.75562 1.78936C8.86681 0.901671 7.80309 0.457825 6.56395 0.457825C5.32484 0.457825 4.26091 0.901671 3.37217 1.78933C2.48329 2.67702 2.03899 3.73939 2.03899 4.97674V6.91355H1.71583C1.44657 6.91355 1.21758 7.00763 1.02902 7.19594C0.84046 7.3841 0.746216 7.61279 0.746216 7.88193V13.692C0.746216 13.9609 0.840495 14.1896 1.02902 14.378C1.21758 14.5661 1.44657 14.6603 1.71583 14.6603H11.4121C11.6815 14.6603 11.9104 14.5662 12.099 14.378C12.2874 14.1896 12.3818 13.9609 12.3818 13.692V7.88183C12.3819 7.6129 12.2874 7.38424 12.0987 7.19594ZM9.14961 6.91355H3.97829V4.97674C3.97829 4.26396 4.23084 3.65534 4.73585 3.15108C5.24092 2.64675 5.85025 2.39463 6.56405 2.39463C7.27793 2.39463 7.88712 2.64671 8.39223 3.15108C8.89709 3.6553 9.14961 4.26396 9.14961 4.97674V6.91355Z" fill="#C4C4C4"/>
</svg>
