<svg width="14" height="15" viewBox="0 0 14 15" fill="none" xmlns="http://www.w3.org/2000/svg">
<path d="M13.1216 3.2951C13.0284 2.41116 12.5975 1.61725 11.9084 1.05966L11.5119 0.738741C10.9232 0.262333 10.1818 0 9.42395 0C8.41333 0 7.47045 0.44892 6.83704 1.23173L0.74049 8.76569C0.18197 9.45571 -0.074384 10.3221 0.0187157 11.205C0.111815 12.0879 0.543226 12.8818 1.23344 13.4404L1.62995 13.7613C2.21855 14.2377 2.95997 14.5 3.71758 14.5C3.83456 14.5 3.95289 14.4938 4.06929 14.4814C4.94686 14.3889 5.73704 13.9625 6.29199 13.2834C6.29386 13.2812 6.29494 13.2799 10.405 8.2015C11.137 7.29679 10.9965 5.96517 10.092 5.23311L9.88413 5.06504C9.51034 4.76252 9.03944 4.59593 8.55834 4.59593C7.91669 4.59593 7.31803 4.88101 6.91582 5.37804L2.81054 10.4511C2.54231 10.7826 2.59375 11.2706 2.9253 11.539C3.06251 11.65 3.23516 11.7111 3.41142 11.7111C3.64622 11.7111 3.86554 11.6066 4.01319 11.4242L8.11838 6.3512C8.22577 6.21853 8.38573 6.14244 8.55717 6.14244C8.68747 6.14244 8.8098 6.18573 8.91097 6.26761L9.11884 6.43587C9.23562 6.53037 9.30861 6.66493 9.32441 6.81487C9.34017 6.96481 9.29688 7.11168 9.20235 7.22838L5.10185 12.2957C4.76326 12.7138 4.25925 12.9535 3.71902 12.9536C3.31401 12.9536 2.91769 12.8134 2.60307 12.5587L2.20656 12.2379C1.83758 11.9392 1.60692 11.5148 1.55719 11.0428C1.50742 10.5708 1.64443 10.1076 1.94302 9.73873L8.03961 2.20485C8.37819 1.78648 8.88236 1.54651 9.42283 1.54651C9.82788 1.54651 10.2242 1.6867 10.5388 1.94131L10.9353 2.26215C11.6969 2.87856 11.8152 3.99967 11.1988 4.76132C11.0688 4.92197 11.0092 5.12355 11.0309 5.32904C11.0526 5.5345 11.153 5.71926 11.3135 5.84916C11.4508 5.9602 11.6234 6.02139 11.7997 6.02139C12.0345 6.02139 12.2537 5.91683 12.4014 5.73448C12.9591 5.04536 13.2149 4.179 13.1216 3.2951Z" fill="#0E12A6"/>
</svg>
