<svg width="21" height="26" viewBox="0 0 21 26" fill="none" xmlns="http://www.w3.org/2000/svg">
<path d="M5.19267 6.22208H4.29625V4.6489H5.1703C5.73637 4.6489 6.08966 4.92075 6.08966 5.42774V5.44208C6.08966 5.8837 5.75759 6.22208 5.19267 6.22208ZM11.6339 6.21405V6.19971C11.6339 5.2878 11.0099 4.6489 10.0837 4.6489H9.20907V7.75053H10.0837C11.0099 7.75053 11.6339 7.12596 11.6339 6.21405ZM20.4766 3.27415V22.7259C20.4766 24.3094 19.1936 25.5935 17.6089 25.5935H3.34419C1.76011 25.5935 0.476562 24.3094 0.476562 22.7259V3.27415C0.476562 1.69065 1.76011 0.406525 3.34419 0.406525H17.6084C19.1919 0.406525 20.4766 1.69065 20.4766 3.27415ZM8.07578 8.20648C8.07578 8.52249 8.32641 8.77255 8.64185 8.77255H10.0826C11.6993 8.77255 12.8177 7.64786 12.8177 6.19971V6.18537C12.8177 4.73722 11.701 3.62745 10.0826 3.62745H8.64185C8.32584 3.62745 8.07578 3.8775 8.07578 4.19352V8.20648ZM3.16411 8.25007C3.16411 8.56665 3.41416 8.81614 3.73018 8.81614C4.04619 8.81614 4.29567 8.56608 4.29567 8.25007V7.22919H5.15596C6.3099 7.22919 7.23557 6.61208 7.23557 5.42144V5.40595C7.23557 4.35525 6.49342 3.62745 5.2655 3.62745H3.7296C3.41302 3.62745 3.16353 3.8775 3.16353 4.19352L3.16411 8.25007ZM17.789 21.2261C17.789 20.5929 17.2751 20.079 16.642 20.079H4.31116C3.67798 20.079 3.16411 20.5929 3.16411 21.2261C3.16411 21.8593 3.67798 22.3731 4.31116 22.3731H16.642C17.2751 22.3731 17.789 21.8593 17.789 21.2261ZM17.789 16.9246C17.789 16.2915 17.2751 15.7776 16.642 15.7776H4.31116C3.67798 15.7776 3.16411 16.2915 3.16411 16.9246C3.16411 17.5578 3.67798 18.0717 4.31116 18.0717H16.642C17.2751 18.0717 17.789 17.5578 17.789 16.9246ZM17.789 12.6232C17.789 11.99 17.2751 11.4762 16.642 11.4762H8.6126C7.97943 11.4762 7.46555 11.99 7.46555 12.6232C7.46555 13.2564 7.97943 13.7703 8.6126 13.7703H16.642C17.2751 13.7703 17.789 13.2564 17.789 12.6232ZM17.789 4.1419C17.789 3.85514 17.5619 3.62745 17.2751 3.62745H14.3937C14.0772 3.62745 13.8288 3.8775 13.8288 4.19352V8.25007C13.8288 8.56665 14.0789 8.81614 14.3937 8.81614C14.7098 8.81614 14.9592 8.56608 14.9592 8.25007V6.78069H16.9436C17.2304 6.78069 17.4581 6.553 17.4581 6.26624C17.4581 5.97948 17.2304 5.75179 16.9436 5.75179H14.9592V4.65635H17.2746C17.5613 4.65578 17.789 4.42866 17.789 4.1419Z" fill="#DADADA"/>
</svg>
