<svg width="8" height="9" viewBox="0 0 8 9" fill="none" xmlns="http://www.w3.org/2000/svg">
<path fill-rule="evenodd" clip-rule="evenodd" d="M4.9071 4.3293L7.62338 1.61301C7.87342 1.36297 7.87342 0.957585 7.62338 0.707583C7.37334 0.457546 6.96799 0.457546 6.71795 0.707583L4.00163 3.4239L1.28531 0.707547C1.03527 0.45751 0.629921 0.45751 0.379884 0.707547C0.129882 0.957585 0.129882 1.36297 0.379884 1.61298L3.0962 4.32926L0.379884 7.04558C0.129882 7.29562 0.129882 7.70101 0.379884 7.95101C0.629921 8.20105 1.03527 8.20105 1.28531 7.95101L4.00163 5.23469L6.71795 7.95101C6.96795 8.20105 7.37334 8.20105 7.62338 7.95101C7.87342 7.70097 7.87342 7.29562 7.62338 7.04558L4.9071 4.3293Z" fill="black"/>
</svg>
