<svg width="15" height="16" viewBox="0 0 15 16" fill="none" xmlns="http://www.w3.org/2000/svg">
<path d="M13.8564 13.8033L10.448 10.2583C11.3243 9.21654 11.8045 7.90576 11.8045 6.54117C11.8045 3.35295 9.2106 0.759033 6.02237 0.759033C2.83415 0.759033 0.240234 3.35295 0.240234 6.54117C0.240234 9.72939 2.83415 12.3233 6.02237 12.3233C7.21928 12.3233 8.35987 11.9623 9.33504 11.277L12.7694 14.8489C12.9129 14.9979 13.106 15.0801 13.3129 15.0801C13.5087 15.0801 13.6945 15.0055 13.8356 14.8697C14.1352 14.5814 14.1448 14.1032 13.8564 13.8033ZM6.02237 2.26742C8.37897 2.26742 10.2961 4.18457 10.2961 6.54117C10.2961 8.89777 8.37897 10.8149 6.02237 10.8149C3.66578 10.8149 1.74862 8.89777 1.74862 6.54117C1.74862 4.18457 3.66578 2.26742 6.02237 2.26742Z" fill="black"/>
</svg>
