<svg width="129" height="128" viewBox="0 0 129 128" fill="none" xmlns="http://www.w3.org/2000/svg">
<path d="M64.1709 0C28.8809 0 0.170898 28.71 0.170898 64C0.170898 99.29 28.8809 128 64.1709 128C99.4609 128 128.171 99.29 128.171 64C128.171 28.71 99.4609 0 64.1709 0ZM64.1709 120C33.2929 120 8.1709 94.878 8.1709 64C8.1709 33.122 33.2929 8 64.1709 8C95.0489 8 120.171 33.122 120.171 64C120.171 94.878 95.0489 120 64.1709 120Z" fill="#920193"/>
<path d="M41.2077 51.3974C45.9994 51.3974 49.8837 47.513 49.8837 42.7214C49.8837 37.9298 45.9994 34.0454 41.2077 34.0454C36.4161 34.0454 32.5317 37.9298 32.5317 42.7214C32.5317 47.513 36.4161 51.3974 41.2077 51.3974Z" fill="#920193"/>
<path d="M87.1306 51.3974C91.9222 51.3974 95.8066 47.513 95.8066 42.7214C95.8066 37.9298 91.9222 34.0454 87.1306 34.0454C82.339 34.0454 78.4546 37.9298 78.4546 42.7214C78.4546 47.513 82.339 51.3974 87.1306 51.3974Z" fill="#920193"/>
<path d="M105.252 73.1358C103.146 72.5038 100.908 73.7098 100.276 75.8238C100.206 76.0618 92.7983 99.7178 64.1703 99.7178C35.7323 99.7178 28.3623 76.7838 28.0603 75.8078C27.4203 73.6978 25.1783 72.5078 23.0883 73.1358C20.9703 73.7698 19.7683 75.9998 20.4003 78.1138C20.4903 78.4098 29.6543 107.718 64.1703 107.718C98.6863 107.718 107.85 78.4098 107.94 78.1118C108.572 75.9998 107.37 73.7698 105.252 73.1358Z" fill="#920193"/>
</svg>
