<svg width="11" height="14" viewBox="0 0 11 14" fill="none" xmlns="http://www.w3.org/2000/svg">
<path d="M10.7531 7.32584C10.5884 7.16138 10.3886 7.07929 10.1533 7.07929H3.6623V4.2609C3.6623 3.6384 3.88283 3.10708 4.32382 2.66667C4.76485 2.22636 5.2969 2.00616 5.92018 2.00616C6.5434 2.00616 7.07555 2.22633 7.51639 2.66667C7.95741 3.10708 8.17794 3.63843 8.17794 4.2609C8.17794 4.41351 8.23376 4.54561 8.34536 4.65716C8.45722 4.76874 8.58955 4.82455 8.74221 4.82455H9.30692C9.45968 4.82455 9.59195 4.76874 9.7038 4.65716C9.8152 4.54561 9.87123 4.41351 9.87123 4.2609C9.87123 3.17452 9.48464 2.24549 8.71157 1.4733C7.93838 0.701084 7.00787 0.315067 5.92018 0.315067C4.8324 0.315067 3.90198 0.701084 3.12873 1.47327C2.3556 2.24537 1.96904 3.17448 1.96904 4.26087V7.07926H1.68686C1.45175 7.07926 1.25179 7.16153 1.08715 7.32581C0.922502 7.49008 0.84021 7.68983 0.84021 7.92471V12.9979C0.84021 13.2329 0.922533 13.4326 1.08715 13.5969C1.25179 13.7612 1.45175 13.8435 1.68686 13.8435H10.1533C10.3886 13.8435 10.5886 13.7612 10.7531 13.5969C10.9176 13.4326 11 13.2329 11 12.9979V7.92475C11.0001 7.68986 10.9178 7.49033 10.7531 7.32584Z" fill="white"/>
</svg>
