<?xml version="1.0" encoding="UTF-8"?>
<svg width="24px" height="24px" viewBox="0 0 24 24" version="1.1" xmlns="http://www.w3.org/2000/svg" xmlns:xlink="http://www.w3.org/1999/xlink">
    <!-- Generator: Sketch 47 (45396) - http://www.bohemiancoding.com/sketch -->
    <title>Icon/Average</title>
    <desc>Created with Sketch.</desc>
    <defs></defs>
    <g id="Page-1" stroke="none" stroke-width="1" fill="none" fill-rule="evenodd">
        <g id="Guideline" transform="translate(-652.000000, -1760.000000)" fill="#920193">
            <g id="Icons" transform="translate(0.000000, 1648.000000)">
                <g id="Content" transform="translate(652.000000, 112.000000)">
                    <g id="Icon/Average">
                        <path d="M7.03125,16.96875 C8.40625688,18.3125067 10.0624903,18.984375 12,18.984375 C13.9375097,18.984375 15.5859307,18.3046943 16.9453125,16.9453125 C18.3046943,15.5859307 18.984375,13.9375097 18.984375,12 C18.984375,10.0624903 18.3046943,8.4140693 16.9453125,7.0546875 C15.5859307,5.6953057 13.9375097,5.015625 12,5.015625 C10.0624903,5.015625 8.4140693,5.6953057 7.0546875,7.0546875 C5.6953057,8.4140693 5.015625,10.0624903 5.015625,12 C5.015625,13.9375097 5.68749328,15.5937431 7.03125,16.96875 Z M20.953125,11.015625 L23.015625,11.015625 L23.015625,12.984375 L20.953125,12.984375 C20.7343739,15.0781355 19.8750075,16.8749925 18.375,18.375 C16.8749925,19.8750075 15.0781355,20.7343739 12.984375,20.953125 L12.984375,23.015625 L11.015625,23.015625 L11.015625,20.953125 C8.92186453,20.7343739 7.1250075,19.8750075 5.625,18.375 C4.1249925,16.8749925 3.26562609,15.0781355 3.046875,12.984375 L0.984375,12.984375 L0.984375,11.015625 L3.046875,11.015625 C3.26562609,8.92186453 4.1249925,7.1250075 5.625,5.625 C7.1250075,4.1249925 8.92186453,3.26562609 11.015625,3.046875 L11.015625,0.984375 L12.984375,0.984375 L12.984375,3.046875 C15.0781355,3.26562609 16.8749925,4.1249925 18.375,5.625 C19.8750075,7.1250075 20.7343739,8.92186453 20.953125,11.015625 Z M9.1875,9.1875 C9.96875391,8.40624609 10.9062445,8.015625 12,8.015625 C13.0937555,8.015625 14.0312461,8.40624609 14.8125,9.1875 C15.5937539,9.96875391 15.984375,10.9062445 15.984375,12 C15.984375,13.0937555 15.5937539,14.0312461 14.8125,14.8125 C14.0312461,15.5937539 13.0937555,15.984375 12,15.984375 C10.9062445,15.984375 9.96875391,15.5937539 9.1875,14.8125 C8.40624609,14.0312461 8.015625,13.0937555 8.015625,12 C8.015625,10.9062445 8.40624609,9.96875391 9.1875,9.1875 Z" id="Gps-Fixed---MaterialIcons-Regular"></path>
                    </g>
                </g>
            </g>
        </g>
    </g>
</svg>