<?xml version="1.0" encoding="UTF-8"?>
<svg width="24px" height="24px" viewBox="0 0 24 24" version="1.1" xmlns="http://www.w3.org/2000/svg" xmlns:xlink="http://www.w3.org/1999/xlink">
    <!-- Generator: Sketch 47 (45396) - http://www.bohemiancoding.com/sketch -->
    <title>Icon/Dormitory</title>
    <desc>Created with Sketch.</desc>
    <defs></defs>
    <g id="Page-1" stroke="none" stroke-width="1" fill="none" fill-rule="evenodd">
        <g id="Guideline" transform="translate(-732.000000, -1760.000000)" fill="#920193">
            <g id="Icons" transform="translate(0.000000, 1648.000000)">
                <g id="Content" transform="translate(652.000000, 112.000000)">
                    <g id="Icon/Dormitory" transform="translate(80.000000, 0.000000)">
                        <path d="M18,15 L18,17.015625 L15.984375,17.015625 L15.984375,15 L18,15 Z M18,11.015625 L18,12.984375 L15.984375,12.984375 L15.984375,11.015625 L18,11.015625 Z M20.015625,18.984375 L20.015625,9 L12,9 L12,11.015625 L14.015625,11.015625 L14.015625,12.984375 L12,12.984375 L12,15 L14.015625,15 L14.015625,17.015625 L12,17.015625 L12,18.984375 L20.015625,18.984375 Z M9.984375,6.984375 L9.984375,5.015625 L8.015625,5.015625 L8.015625,6.984375 L9.984375,6.984375 Z M9.984375,11.015625 L9.984375,9 L8.015625,9 L8.015625,11.015625 L9.984375,11.015625 Z M9.984375,15 L9.984375,12.984375 L8.015625,12.984375 L8.015625,15 L9.984375,15 Z M9.984375,18.984375 L9.984375,17.015625 L8.015625,17.015625 L8.015625,18.984375 L9.984375,18.984375 Z M6,6.984375 L6,5.015625 L3.984375,5.015625 L3.984375,6.984375 L6,6.984375 Z M6,11.015625 L6,9 L3.984375,9 L3.984375,11.015625 L6,11.015625 Z M6,15 L6,12.984375 L3.984375,12.984375 L3.984375,15 L6,15 Z M6,18.984375 L6,17.015625 L3.984375,17.015625 L3.984375,18.984375 L6,18.984375 Z M12,6.984375 L21.984375,6.984375 L21.984375,21 L2.015625,21 L2.015625,3 L12,3 L12,6.984375 Z" id="Business---MaterialIcons-Regular"></path>
                    </g>
                </g>
            </g>
        </g>
    </g>
</svg>