<?xml version="1.0" encoding="UTF-8"?>
<svg width="24px" height="24px" viewBox="0 0 24 24" version="1.1" xmlns="http://www.w3.org/2000/svg" xmlns:xlink="http://www.w3.org/1999/xlink">
    <!-- Generator: Sketch 47 (45396) - http://www.bohemiancoding.com/sketch -->
    <title>Icon/Events</title>
    <desc>Created with Sketch.</desc>
    <defs></defs>
    <g id="Page-1" stroke="none" stroke-width="1" fill="none" fill-rule="evenodd">
        <g id="Guideline" transform="translate(-772.000000, -1760.000000)" fill="#0A1620" fill-opacity="0.37">
            <g id="Icons" transform="translate(0.000000, 1648.000000)">
                <g id="Content" transform="translate(652.000000, 112.000000)">
                    <g id="Icon/Events" transform="translate(120.000000, 0.000000)">
                        <path d="M18.984375,20 L18.984375,9.03125 L5.015625,9.03125 L5.015625,20 L18.984375,20 Z M15.984375,2 L18,2 L18,4.015625 L18.984375,4.015625 C19.5156277,4.015625 19.984373,4.21874797 20.390625,4.625 C20.796877,5.03125203 21,5.49999734 21,6.03125 L21,20 C21,20.5312527 20.796877,20.999998 20.390625,21.40625 C19.984373,21.812502 19.5156277,22.015625 18.984375,22.015625 L5.015625,22.015625 C4.45312219,22.015625 3.97656445,21.812502 3.5859375,21.40625 C3.19531055,20.999998 3,20.5312527 3,20 L3,6.03125 C3,5.49999734 3.19531055,5.03125203 3.5859375,4.625 C3.97656445,4.21874797 4.45312219,4.015625 5.015625,4.015625 L6,4.015625 L6,2 L8.015625,2 L8.015625,4.015625 L15.984375,4.015625 L15.984375,2 Z M17.015625,13.015625 L17.015625,18.03125 L12,18.03125 L12,13.015625 L17.015625,13.015625 Z" id="Event---MaterialIcons-Regular"></path>
                    </g>
                </g>
            </g>
        </g>
    </g>
</svg>