<?xml version="1.0" encoding="UTF-8"?>
<svg width="24px" height="24px" viewBox="0 0 24 24" version="1.1" xmlns="http://www.w3.org/2000/svg" xmlns:xlink="http://www.w3.org/1999/xlink">
    <!-- Generator: Sketch 47 (45396) - http://www.bohemiancoding.com/sketch -->
    <title>Icon/Mail</title>
    <desc>Created with Sketch.</desc>
    <defs></defs>
    <g id="Page-1" stroke="none" stroke-width="1" fill="none" fill-rule="evenodd">
        <g id="Guideline" transform="translate(-332.000000, -1816.000000)" fill="#FFFFFF">
            <g id="Icons" transform="translate(0.000000, 1648.000000)">
                <g id="Social" transform="translate(228.000000, 152.000000)">
                    <g id="Icon/Mail" transform="translate(104.000000, 16.000000)">
                        <path d="M11.9835542,7.21585789 C13.2473979,7.21585789 14.4363354,7.76185789 15.3091792,8.61533937 L15.3091792,8.61845048 C15.3091792,8.20882085 15.5912729,7.8992653 15.9838667,7.8992653 L16.0832104,7.8992653 C16.6973354,7.8992653 16.8237729,8.46445048 16.8237729,8.64489493 L16.8258979,15.0190431 C16.7812729,15.435932 17.2678979,15.6511171 17.5345854,15.3845986 C18.5843354,14.332006 19.8386167,9.97645048 16.8848667,7.45385789 C14.1308667,5.10082085 10.4349604,5.48919122 8.47039793,6.81089493 C6.37992918,8.21763567 5.04383543,11.3287468 6.34274168,14.2526727 C7.75852293,17.4415616 11.8082417,18.3930431 14.2163979,17.4436357 C15.4345542,16.964006 15.9987417,18.5724505 14.7327729,19.0982283 C12.8197417,19.8920801 7.49449168,19.8127468 5.00664793,15.6070431 C3.32577293,12.7676357 3.41714793,7.77274678 7.87327293,5.18274678 C11.2812417,3.20252456 15.7766792,3.75059863 18.4892417,6.51378381 C21.3213354,9.40348752 21.1566479,14.8116357 18.3936167,16.9147468 C17.1414604,17.8698579 15.2815542,16.9411912 15.2937729,15.547932 L15.2799604,15.0931912 C14.4087104,15.9373394 13.2473979,16.4304505 11.9835542,16.4304505 C9.48402293,16.4304505 7.28889793,14.2858579 7.28889793,11.8467468 C7.28889793,9.38533937 9.48402293,7.21585789 11.9835542,7.21585789 M15.1290854,11.672006 C15.0334604,9.88622826 13.6755854,8.81289493 12.0361479,8.81289493 L11.9739917,8.81289493 C10.0832729,8.81289493 9.03352293,10.2652653 9.03352293,11.9141542 C9.03352293,13.7611171 10.3032104,14.9277838 11.9665542,14.9277838 C13.8216792,14.9277838 15.0430229,13.601932 15.1317417,12.0323764 L15.1290854,11.672006" id="Mask"></path>
                    </g>
                </g>
            </g>
        </g>
    </g>
</svg>