<?xml version="1.0" encoding="UTF-8"?>
<svg width="24px" height="24px" viewBox="0 0 24 24" version="1.1" xmlns="http://www.w3.org/2000/svg" xmlns:xlink="http://www.w3.org/1999/xlink">
    <!-- Generator: Sketch 47 (45396) - http://www.bohemiancoding.com/sketch -->
    <title>Icon/Ok</title>
    <desc>Created with Sketch.</desc>
    <defs></defs>
    <g id="Page-1" stroke="none" stroke-width="1" fill="none" fill-rule="evenodd">
        <g id="Guideline" transform="translate(-372.000000, -1816.000000)" fill="#FFFFFF">
            <g id="Icons" transform="translate(0.000000, 1648.000000)">
                <g id="Social" transform="translate(228.000000, 152.000000)">
                    <g id="Icon/Ok" transform="translate(144.000000, 16.000000)">
                        <path d="M12.0000085,11.9799023 C14.7901904,11.9799023 17.0669788,9.71427464 17.0669788,6.92409275 C17.0669788,4.12275012 14.7901904,1.85712242 12.0000085,1.85712242 C9.20982662,1.85712242 6.93303819,4.12275012 6.93303819,6.92409275 C6.93303819,9.71427464 9.20982662,11.9799023 12.0000085,11.9799023 Z M12.0000085,4.42408977 C13.372778,4.42408977 14.4888508,5.54016253 14.4888508,6.92409275 C14.4888508,8.29686224 13.372778,9.412935 12.0000085,9.412935 C10.627239,9.412935 9.51116626,8.29686224 9.51116626,6.92409275 C9.51116626,5.54016253 10.627239,4.42408977 12.0000085,4.42408977 Z M17.837069,12.5937424 C17.5468901,12.0245453 16.7544785,11.544634 15.7053701,12.3705278 C15.7053701,12.3705278 14.2879577,13.4977613 12.0000085,13.4977613 C9.71205936,13.4977613 8.29464695,12.3705278 8.29464695,12.3705278 C7.24553856,11.544634 6.4531269,12.0245453 6.16294799,12.5937424 C5.67187597,13.5982078 6.22991235,14.0781191 7.5022353,14.904013 C8.58482587,15.5959781 10.0803634,15.8526748 11.0401859,15.9531214 L10.2366136,16.7566938 C9.09821934,17.8839272 8.01562877,18.9776785 7.25669929,19.736608 C6.79910946,20.1941979 6.79910946,20.9308059 7.25669929,21.377235 L7.39062802,21.5223244 C7.83705712,21.9687535 8.57366514,21.9687535 9.03125498,21.5223244 L12.0111692,18.5312494 C13.1495635,19.6696437 14.2433148,20.763395 14.9910835,21.5223244 C15.4486733,21.9687535 16.1852814,21.9687535 16.6428712,21.5223244 L16.7767999,21.377235 C17.223229,20.9308059 17.223229,20.1941979 16.7767999,19.736608 L13.7968857,16.7566938 L12.9821525,15.9531214 C13.9531358,15.8526748 15.4263519,15.5848174 16.4977817,14.904013 C17.7701047,14.0781191 18.3281411,13.5982078 17.837069,12.5937424 Z" id="Mask"></path>
                    </g>
                </g>
            </g>
        </g>
    </g>
</svg>