<?xml version="1.0" encoding="UTF-8"?>
<svg width="24px" height="24px" viewBox="0 0 24 24" version="1.1" xmlns="http://www.w3.org/2000/svg" xmlns:xlink="http://www.w3.org/1999/xlink">
    <!-- Generator: Sketch 47 (45396) - http://www.bohemiancoding.com/sketch -->
    <title>Icon/Places</title>
    <desc>Created with Sketch.</desc>
    <defs></defs>
    <g id="Page-1" stroke="none" stroke-width="1" fill="none" fill-rule="evenodd">
        <g id="Guideline" transform="translate(-932.000000, -1760.000000)" fill="#920193">
            <g id="Icons" transform="translate(0.000000, 1648.000000)">
                <g id="Content" transform="translate(652.000000, 112.000000)">
                    <g id="Icon/Places" transform="translate(280.000000, 0.000000)">
                        <path d="M6,17.015625 L6,18 L18,18 L18,17.015625 C18,16.1093705 17.3125069,15.3671904 15.9375,14.7890625 C14.5624931,14.2109346 13.2500063,13.921875 12,13.921875 C10.7499937,13.921875 9.43750688,14.2109346 8.0625,14.7890625 C6.68749312,15.3671904 6,16.1093705 6,17.015625 Z M14.109375,11.109375 C14.703128,10.515622 15,9.81250406 15,9 C15,8.18749594 14.703128,7.48437797 14.109375,6.890625 C13.515622,6.29687203 12.8125041,6 12,6 C11.1874959,6 10.484378,6.29687203 9.890625,6.890625 C9.29687203,7.48437797 9,8.18749594 9,9 C9,9.81250406 9.29687203,10.515622 9.890625,11.109375 C10.484378,11.703128 11.1874959,12 12,12 C12.8125041,12 13.515622,11.703128 14.109375,11.109375 Z M3,5.015625 C3,4.48437234 3.19531055,4.01562703 3.5859375,3.609375 C3.97656445,3.20312297 4.45312219,3 5.015625,3 L18.984375,3 C19.5156277,3 19.984373,3.20312297 20.390625,3.609375 C20.796877,4.01562703 21,4.48437234 21,5.015625 L21,18.984375 C21,19.5156277 20.796877,19.984373 20.390625,20.390625 C19.984373,20.796877 19.5156277,21 18.984375,21 L5.015625,21 C4.45312219,21 3.97656445,20.796877 3.5859375,20.390625 C3.19531055,19.984373 3,19.5156277 3,18.984375 L3,5.015625 Z" id="Account-Box---MaterialIcons-Regular"></path>
                    </g>
                </g>
            </g>
        </g>
    </g>
</svg>