<?xml version="1.0" encoding="UTF-8"?>
<svg width="24px" height="24px" viewBox="0 0 24 24" version="1.1" xmlns="http://www.w3.org/2000/svg" xmlns:xlink="http://www.w3.org/1999/xlink">
    <!-- Generator: Sketch 47 (45396) - http://www.bohemiancoding.com/sketch -->
    <title>Icon/Prof</title>
    <desc>Created with Sketch.</desc>
    <defs></defs>
    <g id="Page-1" stroke="none" stroke-width="1" fill="none" fill-rule="evenodd">
        <g id="Guideline" transform="translate(-812.000000, -1760.000000)" fill="#920193">
            <g id="Icons" transform="translate(0.000000, 1648.000000)">
                <g id="Content" transform="translate(652.000000, 112.000000)">
                    <g id="Icon/Prof" transform="translate(160.000000, 0.000000)">
                        <path d="M20.015625,14.015625 L20.015625,8.015625 L17.015625,8.015625 L17.015625,9.984375 L15,9.984375 L15,8.015625 L9,8.015625 L9,9.984375 L6.984375,9.984375 L6.984375,8.015625 L3.984375,8.015625 L3.984375,14.015625 L20.015625,14.015625 Z M20.015625,18.984375 L20.015625,17.015625 L3.984375,17.015625 L3.984375,18.984375 L20.015625,18.984375 Z M9,3.984375 L9,6 L15,6 L15,3.984375 L9,3.984375 Z M20.015625,6 C20.5781278,6 21.0468731,6.19531055 21.421875,6.5859375 C21.7968769,6.97656445 21.984375,7.45312219 21.984375,8.015625 L21.984375,18.984375 C21.984375,19.5468778 21.7968769,20.0234355 21.421875,20.4140625 C21.0468731,20.8046895 20.5781278,21 20.015625,21 L3.984375,21 C3.42187219,21 2.95312687,20.8046895 2.578125,20.4140625 C2.20312312,20.0234355 2.015625,19.5468778 2.015625,18.984375 L2.015625,8.015625 C2.015625,7.45312219 2.20312312,6.97656445 2.578125,6.5859375 C2.95312687,6.19531055 3.42187219,6 3.984375,6 L6.984375,6 L6.984375,3.984375 C6.984375,3.42187219 7.17968555,2.95312687 7.5703125,2.578125 C7.96093945,2.20312313 8.43749719,2.015625 9,2.015625 L15,2.015625 C15.5625028,2.015625 16.0390605,2.20312313 16.4296875,2.578125 C16.8203145,2.95312687 17.015625,3.42187219 17.015625,3.984375 L17.015625,6 L20.015625,6 Z" id="Card-Travel---MaterialIcons-Regular"></path>
                    </g>
                </g>
            </g>
        </g>
    </g>
</svg>