<?xml version="1.0" encoding="UTF-8" standalone="no"?>
<!-- Created with Inkscape (http://www.inkscape.org/) -->

<svg
   xmlns:osb="http://www.openswatchbook.org/uri/2009/osb"
   xmlns:dc="http://purl.org/dc/elements/1.1/"
   xmlns:cc="http://creativecommons.org/ns#"
   xmlns:rdf="http://www.w3.org/1999/02/22-rdf-syntax-ns#"
   xmlns:svg="http://www.w3.org/2000/svg"
   xmlns="http://www.w3.org/2000/svg"
   xmlns:sodipodi="http://sodipodi.sourceforge.net/DTD/sodipodi-0.dtd"
   xmlns:inkscape="http://www.inkscape.org/namespaces/inkscape"
   version="1.1"
   id="svg3799"
   width="18"
   height="18"
   viewBox="0 0 18 18.000001"
   sodipodi:docname="repost-gray.svg"
   inkscape:version="0.92.3 (2405546, 2018-03-11)">
  <metadata
     id="metadata3805">
    <rdf:RDF>
      <cc:Work
         rdf:about="">
        <dc:format>image/svg+xml</dc:format>
        <dc:type
           rdf:resource="http://purl.org/dc/dcmitype/StillImage" />
        <dc:title></dc:title>
      </cc:Work>
    </rdf:RDF>
  </metadata>
  <defs
     id="defs3803">
    <linearGradient
       id="linearGradient6528"
       osb:paint="solid">
      <stop
         style="stop-color:#f9e108;stop-opacity:1;"
         offset="0"
         id="stop6526" />
    </linearGradient>
    <linearGradient
       id="linearGradient6520"
       osb:paint="solid">
      <stop
         style="stop-color:#f9e108;stop-opacity:1;"
         offset="0"
         id="stop6518" />
    </linearGradient>
    <linearGradient
       id="linearGradient6392"
       osb:paint="solid">
      <stop
         style="stop-color:#ffff51;stop-opacity:1;"
         offset="0"
         id="stop6390" />
    </linearGradient>
    <filter
       inkscape:label="Light Eraser"
       style="color-interpolation-filters:sRGB"
       id="filter4003">
      <feColorMatrix
         values="1 0 0 0 0 0 1 0 0 0 0 0 1 0 0 -21.25 -71.54 -7.21 56.4171 0 "
         result="colormatrix"
         id="feColorMatrix3999" />
      <feComposite
         in2="colormatrix"
         operator="arithmetic"
         k2="1"
         result="fbSourceGraphic"
         id="feComposite4001"
         k1="0"
         k3="0"
         k4="0" />
      <feColorMatrix
         result="fbSourceGraphicAlpha"
         in="fbSourceGraphic"
         values="0 0 0 -1 0 0 0 0 -1 0 0 0 0 -1 0 0 0 0 1 0"
         id="feColorMatrix4005" />
      <feColorMatrix
         id="feColorMatrix4007"
         values="1 0 0 0 0 0 1 0 0 0 0 0 1 0 0 -21.25 -71.54 -7.21 56.4 0 "
         result="colormatrix"
         in="fbSourceGraphic" />
      <feComposite
         in2="colormatrix"
         id="feComposite4009"
         operator="arithmetic"
         k2="1"
         result="composite"
         k1="0"
         k3="0"
         k4="0" />
    </filter>
    <clipPath
       clipPathUnits="userSpaceOnUse"
       id="clipPath828">
      <rect
         style="opacity:1;fill:#f9e108;fill-opacity:1;fill-rule:nonzero;stroke:#f9e108;stroke-width:4;stroke-linejoin:round;stroke-miterlimit:4;stroke-dasharray:none;stroke-opacity:1;paint-order:normal"
         id="rect830"
         width="405.30569"
         height="326.94315"
         x="60.199055"
         y="61.236958" />
    </clipPath>
    <clipPath
       clipPathUnits="userSpaceOnUse"
       id="clipPath974">
      <rect
         style="opacity:1;fill:#c74308;fill-opacity:0;fill-rule:nonzero;stroke:#f9e108;stroke-width:10;stroke-linejoin:round;stroke-miterlimit:4;stroke-dasharray:none;stroke-opacity:1;paint-order:normal"
         id="rect976"
         width="439.55688"
         height="319.67773"
         x="69.540291"
         y="71.616119" />
    </clipPath>
    <clipPath
       clipPathUnits="userSpaceOnUse"
       id="clipPath1020">
      <rect
         style="opacity:1;fill:#c74308;fill-opacity:0;fill-rule:nonzero;stroke:#f9e108;stroke-width:0.94627613;stroke-linejoin:round;stroke-miterlimit:4;stroke-dasharray:none;stroke-opacity:1;paint-order:normal"
         id="rect1022"
         width="351.05371"
         height="351.05371"
         x="79.892578"
         y="42.861786" />
    </clipPath>
  </defs>
  <sodipodi:namedview
     pagecolor="#ffffff"
     bordercolor="#666666"
     borderopacity="1"
     objecttolerance="10"
     gridtolerance="10"
     guidetolerance="10"
     inkscape:pageopacity="0.25882353"
     inkscape:pageshadow="2"
     inkscape:window-width="1853"
     inkscape:window-height="1025"
     id="namedview3801"
     showgrid="false"
     inkscape:pagecheckerboard="true"
     inkscape:zoom="43.601688"
     inkscape:cx="5.727626"
     inkscape:cy="9.2219158"
     inkscape:window-x="67"
     inkscape:window-y="27"
     inkscape:window-maximized="1"
     inkscape:current-layer="svg3799"
     fit-margin-top="2.7755576e-17"
     fit-margin-left="0"
     fit-margin-right="0"
     fit-margin-bottom="0" />
  <path
     style="opacity:1;fill:#333333;fill-opacity:1;fill-rule:nonzero;stroke:#333333;stroke-width:0.41624504;stroke-linejoin:round;stroke-miterlimit:4;stroke-dasharray:none;stroke-opacity:1;paint-order:normal"
     d="m 2.1310294,16.693617 c -0.037568,-0.01247 -0.039779,-0.01997 -0.012133,-0.04424 0.024985,-0.02189 0.018946,-0.02547 -0.02308,-0.01404 -0.071595,0.01946 -0.1419097,-0.0089 -0.1003926,-0.04075 0.016941,-0.013 -0.0071,-0.03027 -0.058599,-0.0424 -0.083629,-0.01938 -0.098723,-0.04249 -0.088356,-0.134338 0.00288,-0.02478 -0.0093,-0.03507 -0.030198,-0.02504 -0.02264,0.01126 -0.053089,-0.02348 -0.086721,-0.09772 -0.05681,-0.125247 -0.0648,-0.164655 -0.027574,-0.13617 0.013338,0.0099 0.024257,0.0061 0.024257,-0.0099 0,-0.0157 -0.016375,-0.03646 -0.03639,-0.04606 -0.032148,-0.01519 -0.036382,-0.61116 -0.036382,-5.112602 V 5.8949877 H 0.98027031 c -0.37135525,0 -0.68171473,-0.00812 -0.68969027,-0.017963 -0.0235024,-0.029123 0.009194,-0.1036649 0.0363636,-0.082872 0.0138318,0.010618 0.0198715,5.207e-4 0.0136161,-0.022726 -0.0146047,-0.054196 0.11647581,-0.3447606 0.15080551,-0.3343159 0.014443,0.00427 0.0244461,-0.00909 0.0222172,-0.030055 -0.007909,-0.075178 0.002157,-0.1164104 0.0243203,-0.099427 0.0124298,0.00947 0.0387183,-0.011245 0.058437,-0.046092 0.0335055,-0.059291 0.0365613,-0.059788 0.04687,-0.00802 0.006022,0.030447 0.008988,-0.010251 0.006471,-0.090353 -0.003236,-0.1004274 0.005842,-0.1506789 0.0289489,-0.1616691 0.0184424,-0.00879 0.0277895,-0.034488 0.0207792,-0.057163 -0.0071,-0.022666 -0.003415,-0.041197 0.007909,-0.041197 0.0113782,0 0.026657,-0.028424 0.0339909,-0.063139 0.008538,-0.040167 0.0241046,-0.054877 0.0429694,-0.040446 0.0182717,0.014012 0.0234036,0.010243 0.0133465,-0.010007 -0.0202579,-0.040586 0.31809145,-0.7762096 0.35178575,-0.7648442 0.013472,0.00454 0.018173,-0.00427 0.010471,-0.019813 -0.00773,-0.01545 -0.00701,-0.050741 0.00153,-0.078406 0.012511,-0.040394 0.019916,-0.04241 0.03755,-0.010251 0.015387,0.028102 0.019836,0.017701 0.014829,-0.034714 -0.00395,-0.041877 0.00539,-0.074951 0.021148,-0.075143 0.044407,-5.209e-4 0.063623,-0.037489 0.066274,-0.1275261 0.00153,-0.051125 0.014587,-0.080107 0.033937,-0.075213 0.018236,0.00463 0.028445,-0.014318 0.024257,-0.04507 -0.00422,-0.030771 0.00602,-0.049711 0.024257,-0.045071 0.01731,0.00427 0.029659,-0.00909 0.027448,-0.030055 -0.00854,-0.080561 0.0027,-0.1159724 0.03009,-0.094995 0.018991,0.014544 0.023341,0.0055 0.013131,-0.027474 -0.00836,-0.027054 -0.00207,-0.059719 0.014066,-0.072551 0.016124,-0.012843 0.029317,-0.04363 0.029317,-0.068425 0,-0.024794 0.012744,-0.04507 0.028302,-0.04507 0.015566,0 0.036489,-0.01012 0.046493,-0.022544 0.010012,-0.012493 0.00539,-0.022552 -0.010309,-0.022552 -0.021228,0 -0.020779,-0.01532 0.0018,-0.060111 0.016654,-0.033057 0.044533,-0.060118 0.061906,-0.060118 0.017382,0 0.029839,-0.016908 0.027673,-0.037566 -0.00836,-0.079671 0.00288,-0.1154227 0.029821,-0.0948 0.016016,0.01238 0.021462,0.00829 0.012744,-0.00928 -0.018478,-0.037035 0.07226,-0.2792301 0.1046132,-0.2792301 0.01261,0 0.016645,-0.020284 0.00899,-0.04507 -0.00773,-0.024795 -0.00189,-0.04507 0.012897,-0.04507 0.014776,0 0.026855,-0.018191 0.026855,-0.04042 0,-0.02223 0.020698,-0.063636 0.046007,-0.092005 0.03604,-0.040402 0.049162,-0.043038 0.060603,-0.012239 0.008,0.021662 0.011055,-0.00463 0.00674,-0.05827 -0.00548,-0.067911 0.00234,-0.097672 0.025731,-0.097672 0.018478,0 0.027277,-0.012711 0.01953,-0.02825 -0.00773,-0.015538 0.00683,-0.070755 0.032274,-0.1226962 0.031465,-0.064098 0.050914,-0.081591 0.060567,-0.054397 0.00782,0.022038 0.011756,0.00628 0.00872,-0.035089 -0.00351,-0.048926 0.00575,-0.072264 0.026684,-0.066881 0.017669,0.00454 0.02521,-0.00567 0.01678,-0.0225 -0.016717,-0.033502 0.1089793,-0.3313068 0.1398569,-0.3313565 0.010425,-1.66e-5 0.025848,0.023634 0.03426,0.052564 0.00845,0.02893 0.03639,0.090276 0.062149,0.1363167 0.025758,0.046039 0.04092,0.1028378 0.033667,0.1262035 -0.00845,0.02729 -0.00126,0.036799 0.020222,0.026601 0.024051,-0.01149 0.029614,0.00192 0.019934,0.047906 -0.00933,0.044198 -0.00324,0.061062 0.019961,0.054964 0.019152,-0.00497 0.032005,0.01354 0.030099,0.043482 -0.0018,0.028755 0.0071,0.044302 0.019818,0.03454 0.012726,-0.00977 0.029147,0.010748 0.03648,0.045402 0.00728,0.034723 0.024141,0.063138 0.037352,0.063138 0.013212,0 0.018056,0.019298 0.010749,0.042889 -0.00728,0.023591 0.00234,0.058942 0.02139,0.078537 0.019081,0.01962 0.028706,0.047661 0.021381,0.06231 -0.00728,0.014657 -0.0027,0.026645 0.010318,0.026645 0.034413,0 0.1514274,0.271481 0.1329616,0.3085004 -0.00863,0.017257 -0.00422,0.022622 0.00981,0.011997 0.030567,-0.023408 0.061628,0.062389 0.039006,0.1077375 -0.00881,0.017615 -0.00449,0.023285 0.0093,0.012651 0.034988,-0.026775 0.087521,0.058785 0.065339,0.1064131 -0.00996,0.021384 -0.00905,0.028721 0.00198,0.016279 0.027628,-0.031051 0.1384081,0.2154295 0.1384926,0.3081313 9.26e-5,0.083563 0.037981,0.1578538 0.068584,0.1344271 0.010911,-0.00829 0.026693,-0.00148 0.035078,0.015364 0.00836,0.016804 0.00404,0.030536 -0.0097,0.030536 -0.013706,0 -0.01829,0.021418 -0.010174,0.047617 0.010983,0.035456 0.01944,0.038178 0.033173,0.010748 0.012457,-0.024977 0.032014,-0.00454 0.060315,0.063383 0.023035,0.05519 0.063892,0.1484496 0.090785,0.2072511 0.026891,0.058794 0.076097,0.1677681 0.109364,0.242155 0.033254,0.074375 0.070849,0.1515617 0.083557,0.1714995 0.012708,0.019953 0.015009,0.052459 0.00512,0.072281 -0.010731,0.021497 -0.00773,0.028162 0.00746,0.016515 0.031043,-0.023774 0.061241,0.062153 0.038871,0.1105981 -0.0089,0.019168 -0.00737,0.02517 0.00315,0.013339 0.034413,-0.03851 0.1478343,0.1853479 0.1367652,0.2699518 -0.00279,0.020921 0.00918,0.034461 0.026486,0.030055 0.018236,-0.00463 0.028455,0.014318 0.024257,0.04507 -0.00422,0.03078 0.00602,0.049711 0.024257,0.04507 0.020078,-0.00506 0.028697,0.016717 0.02379,0.060295 -0.00422,0.037566 0.00126,0.066393 0.012133,0.064064 0.049063,-0.010495 0.065169,0.00637 0.031942,0.033405 -0.030863,0.025092 -0.029003,0.032132 0.012133,0.04616 0.054689,0.01867 0.1158691,0.1546826 0.092462,0.2055518 -0.00845,0.018339 -0.00656,0.023546 0.00413,0.011621 0.025264,-0.028311 0.1630114,0.2407905 0.1671241,0.3265109 0.00171,0.036242 0.014066,0.063645 0.02743,0.060914 0.013338,-0.00271 0.021004,0.01888 0.01704,0.048071 -0.00422,0.03078 0.00602,0.04971 0.024257,0.04507 0.01731,-0.00427 0.029982,0.015538 0.028149,0.044294 -0.0018,0.028756 0.00521,0.045733 0.015638,0.037751 0.010435,-0.00802 0.023979,0.00228 0.030081,0.022876 C 4.313325,5.8902832 4.28527,5.894983 3.6061797,5.894983 H 2.9410996 v 4.613476 4.61348 H 7.296903 c 2.4073791,0 4.350066,0.01126 4.342977,0.02583 -0.0071,0.01414 0.01141,0.02042 0.04103,0.01414 0.06564,-0.01414 0.274545,0.115476 0.266107,0.16496 -0.0033,0.01946 0.0076,0.03229 0.02426,0.0281 0.01668,-0.0035 0.0274,0.0099 0.02383,0.03168 -0.0035,0.02138 0.01007,0.05968 0.03032,0.08472 0.02184,0.02705 0.03682,0.03176 0.03682,0.01118 0,-0.01858 0.0099,-0.02634 0.02198,-0.0171 0.0121,0.0089 0.0166,0.04729 0.01001,0.08445 -0.0091,0.05129 -0.0061,0.05724 0.01236,0.02478 0.01868,-0.03298 0.03125,-0.01247 0.05438,0.09009 0.04469,0.19744 0.04376,0.433104 -0.0017,0.434806 -0.02001,7.66e-4 -0.03236,0.02103 -0.02743,0.0451 0.01588,0.07757 0.01564,0.103846 -8.99e-4,0.103846 -0.04079,0 -0.139129,0.149999 -0.134487,0.20512 0.0064,0.07582 -0.156025,0.200303 -0.23384,0.179382 -0.03764,-0.0099 -0.04309,-0.0061 -0.01971,0.01431 0.02493,0.0219 0.01937,0.03279 -0.02426,0.04703 -0.06626,0.02164 -9.5195276,0.01997 -9.5876181,-8.73e-4 z M 1.7690526,16.258673 c -0.00773,-0.02391 -0.01349,-0.01684 -0.014659,0.01814 -9.887e-4,0.03176 0.00458,0.04937 0.012744,0.03943 0.00809,-0.0099 0.0089,-0.03595 0.00189,-0.05758 z m 1.2751862,-1.096264 c -0.016681,-0.0089 -0.043967,-0.0089 -0.060648,0 -0.016681,0.0089 -0.00297,0.01519 0.030315,0.01519 0.033362,0 0.046996,-0.0061 0.030315,-0.01519 z m 6.4182507,-0.0027 c -1.1563704,-0.0053 -3.0557969,-0.0053 -4.2209512,0 -1.1651526,0.0053 -0.2190326,0.0078 2.1024917,0.0078 2.321523,0 3.274829,-0.0035 2.1184595,-0.0078 z M 3.030486,3.3052834 c -0.00773,-0.023966 -0.01349,-0.016855 -0.014668,0.018164 -9.887e-4,0.031696 0.00458,0.049441 0.012735,0.039434 0.00809,-0.01 0.0089,-0.035909 0.00189,-0.057599 z m 0,-0.1502757 c -0.00773,-0.023966 -0.01349,-0.016847 -0.014668,0.018164 -9.887e-4,0.031696 0.00458,0.049441 0.012735,0.039434 0.00809,-0.01 0.0089,-0.0359 0.00189,-0.057599 z"
     id="path4878"
     inkscape:connector-curvature="0" />
  <path
     style="opacity:1;fill:#841d8d;fill-opacity:1;fill-rule:nonzero;stroke:#841d8d;stroke-width:0.4227699;stroke-linejoin:round;stroke-miterlimit:4;stroke-dasharray:none;stroke-opacity:1;paint-order:normal"
     d="m 15.628616,16.684156 c -0.0089,-0.02765 -0.0089,-0.06474 3.79e-4,-0.08253 0.0095,-0.01824 0.0044,-0.0233 -0.01118,-0.01152 -0.03153,0.02356 -0.08982,-0.08839 -0.06808,-0.130687 0.008,-0.01536 -0.01,-0.04361 -0.03972,-0.06273 -0.03963,-0.02548 -0.04562,-0.04118 -0.02245,-0.0582 0.01736,-0.01291 0.02307,-0.03996 0.01276,-0.06011 -0.01347,-0.02626 -0.0237,-0.02731 -0.03601,-0.0026 -0.02433,0.0472 -0.12784,-0.19663 -0.110718,-0.260834 0.01173,-0.04406 0.0098,-0.0451 -0.01312,-0.0069 -0.02397,0.04004 -0.0273,0.04004 -0.0303,0 -0.0017,-0.02477 -0.0017,-0.06237 8.7e-4,-0.08333 0.0044,-0.03961 -0.07117,-0.146522 -0.09647,-0.136689 -0.008,0.0026 -0.01076,-0.01518 -0.0062,-0.04058 0.0044,-0.02548 -0.0034,-0.03803 -0.01682,-0.02774 -0.03189,0.02356 -0.104507,-0.14969 -0.07671,-0.183113 0.01154,-0.01387 0.0104,-0.04555 -0.0026,-0.07032 -0.01938,-0.03691 -0.02379,-0.0342 -0.02475,0.01527 -9.29e-4,0.05558 -0.0034,0.05601 -0.02668,0.0078 -0.01408,-0.02914 -0.01876,-0.06605 -0.01048,-0.08253 0.0089,-0.01728 -0.0026,-0.0212 -0.02802,-0.0098 -0.0326,0.01492 -0.03938,0.0078 -0.02774,-0.02844 0.0089,-0.02661 0.008,-0.05278 -0.0017,-0.05767 -0.01876,-0.0098 -0.154837,-0.254761 -0.154837,-0.27829 0,-0.0078 -0.03374,-0.08341 -0.07497,-0.167454 -0.07091,-0.144663 -0.107026,-0.281457 -0.04773,-0.180522 0.02361,0.04004 0.0253,0.04004 0.01524,0 -0.0062,-0.02487 -0.02404,-0.0417 -0.03972,-0.03743 -0.03163,0.0088 -0.131609,-0.171484 -0.11416,-0.205459 0.0062,-0.01178 -0.0062,-0.02966 -0.02792,-0.03961 -0.02141,-0.0098 -0.03188,-0.03167 -0.02336,-0.04816 0.0089,-0.01667 0.0034,-0.03045 -0.01154,-0.03045 -0.03047,0 -0.08667,-0.145223 -0.07866,-0.203574 0.0026,-0.02093 -0.0093,-0.03446 -0.02695,-0.0301 -0.0214,0.0061 -0.0303,-0.02199 -0.02661,-0.08245 0.0044,-0.07024 9.29e-4,-0.07747 -0.01463,-0.03228 -0.01726,0.04939 -0.02247,0.05095 -0.0354,0.01082 -0.008,-0.02617 -0.0089,-0.07591 -0.0017,-0.110628 0.008,-0.03542 0.0017,-0.06299 -0.0134,-0.06299 -0.01489,0 -0.0207,0.02033 -0.01277,0.04501 0.008,0.02477 0.0044,0.04485 -0.0071,0.0445 -0.0118,-2.98e-4 -0.04924,-0.07128 -0.08332,-0.15797 -0.03399,-0.08664 -0.09894,-0.231555 -0.144251,-0.322163 -0.04527,-0.09062 -0.07663,-0.182702 -0.06967,-0.20466 0.0071,-0.022 0.0026,-0.03275 -0.0089,-0.02376 -0.0119,0.0088 -0.05136,-0.03783 -0.08755,-0.103701 -0.03629,-0.066 -0.0584,-0.11985 -0.04916,-0.11985 0.0092,0 -1.93e-4,-0.02367 -0.02087,-0.0527 -0.0377,-0.05288 -0.06297,-0.119316 -0.06473,-0.170301 -5.2e-4,-0.01506 -0.01779,-0.03872 -0.03831,-0.05258 -0.02193,-0.01478 -0.03312,-0.05321 -0.02696,-0.09298 0.0062,-0.03727 0.0034,-0.04973 -0.0053,-0.0277 -0.01076,0.02771 -0.03012,0.01124 -0.06279,-0.05337 -0.02598,-0.05141 -0.04721,-0.100568 -0.04721,-0.109258 0,-0.0087 0.309946,-0.01361 0.688772,-0.0109 0.378825,0.0027 0.696612,-0.0045 0.706193,-0.01606 0.02123,-0.02552 0.0384,-9.0171811 0.01744,-9.1550842 l -0.01479,-0.097867 -4.50473,-4.642e-4 C 7.2856135,3.1301874 5.9866286,3.1207456 6.013231,3.0980004 6.0425713,3.072882 6.0370196,3.0694793 5.9875212,3.0823047 5.9205768,3.0996406 5.7024495,2.988441 5.698574,2.9350233 5.6932851,2.8582113 5.6538295,2.7979254 5.6197352,2.81367 5.5934032,2.825849 5.5871362,2.81673 5.5982402,2.781965 5.6091682,2.747721 5.6026902,2.738089 5.5778882,2.749719 5.4964122,2.787366 5.442967,2.3542789 5.5152602,2.2423657 c 0.011105,-0.017092 0.00966,-0.050944 -0.00344,-0.075224 -0.026416,-0.050211 -0.032507,-0.1396787 -0.00799,-0.1095733 0.019368,0.02333 0.083593,-0.034593 0.083593,-0.075399 0,-0.015504 -0.011272,-0.019814 -0.024995,-0.00958 -0.036285,0.027029 -0.030734,-0.00663 0.015237,-0.091067 0.022107,-0.04064 0.050121,-0.066552 0.062191,-0.057565 0.01208,0.009 0.016825,-0.00131 0.010483,-0.022824 -0.016369,-0.055602 0.1065695,-0.1545089 0.1920602,-0.1545089 0.040528,0 0.059099,-0.00958 0.042461,-0.02196 -0.1136772,-0.08456 0.3215106,-0.091615 5.0896206,-0.082553 4.516333,0.00864 4.855602,0.012756 4.937076,0.060706 0.05971,0.035143 0.07232,0.051833 0.03955,0.052653 -0.0665,0.00166 -0.04078,0.024516 0.04845,0.043135 0.07962,0.016594 0.280879,0.25573 0.241225,0.2865691 -0.01234,0.00958 -0.01357,0.044574 -0.0026,0.077676 0.01127,0.034323 0.02061,0.041852 0.02158,0.017537 9.28e-4,-0.023443 0.0071,-0.035771 0.01444,-0.027396 0.0071,0.00829 0.01276,2.3068207 0.01286,5.1076555 1.49e-4,3.4065199 0.0089,5.1114289 0.02571,5.1498229 0.0185,0.04166 0.01726,0.05739 -0.0044,0.05739 -0.01655,0 -0.02326,0.0081 -0.01507,0.01808 0.008,0.0099 0.341981,0.0161 0.74161,0.01368 0.491084,-0.0029 0.726585,0.0057 0.726585,0.02705 0,0.01729 -0.0092,0.03145 -0.02035,0.03145 -0.01119,0 -0.03574,0.04742 -0.05469,0.105309 -0.01886,0.05793 -0.0422,0.105307 -0.0517,0.105307 -0.0096,0 -0.02361,0.02844 -0.03117,0.06321 -0.0089,0.04021 -0.02484,0.05493 -0.0443,0.04048 -0.01858,-0.01384 -0.02414,-0.01022 -0.01409,0.0094 0.0091,0.0176 0.0093,0.05468 3.89e-4,0.0824 -0.01277,0.04013 -0.02036,0.04223 -0.03717,0.01022 -0.0162,-0.03073 -0.02124,-0.02781 -0.0215,0.01252 -1.93e-4,0.02896 -0.01286,0.05265 -0.0281,0.05265 -0.01524,0 -0.02079,0.02151 -0.01243,0.04791 0.02113,0.06629 -0.0099,0.120211 -0.0391,0.06814 -0.01736,-0.03089 -0.02202,-0.0262 -0.01904,0.01936 0.0071,0.1075 -9.29e-4,0.139381 -0.03065,0.117482 -0.01736,-0.01281 -0.0221,-0.0088 -0.01198,0.01144 0.02158,0.04194 -0.06906,0.224419 -0.09661,0.194395 -0.01137,-0.01241 -0.01305,-0.0068 -0.0034,0.0128 0.02158,0.04547 -0.08086,0.256278 -0.112885,0.232425 -0.01331,-0.0098 -0.02175,3.05e-4 -0.01868,0.02268 0.008,0.05723 -0.0348,0.171998 -0.06471,0.174555 -0.0237,0.0017 -0.02721,0.01422 -0.03497,0.121805 -0.0026,0.04012 -0.0062,0.04012 -0.03003,0 -0.02141,-0.03603 -0.02423,-0.03106 -0.01408,0.02434 0.008,0.04458 -5.39e-4,0.07564 -0.02424,0.08673 -0.02034,0.0098 -0.03108,0.03569 -0.02388,0.05828 0.0071,0.02268 0.0026,0.04118 -0.01101,0.04118 -0.01331,0 -0.02423,0.02704 -0.02423,0.0602 0,0.03315 -0.0092,0.0602 -0.02035,0.0602 -0.01118,0 -0.0391,0.04738 -0.0621,0.105343 -0.02299,0.05802 -0.0532,0.105333 -0.06711,0.105333 -0.014,0 -0.02265,0.01151 -0.01911,0.02565 0.01137,0.04641 -0.163909,0.393544 -0.189187,0.37476 -0.01427,-0.01082 -0.01682,-0.0026 -0.0062,0.01798 0.01057,0.02042 -0.008,0.08498 -0.04167,0.14757 -0.0332,0.06108 -0.0679,0.135642 -0.07716,0.165664 -0.0099,0.03203 -0.02897,0.04555 -0.04624,0.03271 -0.01999,-0.01484 -0.02424,-0.0061 -0.01312,0.0294 0.01029,0.0322 0.0017,0.05767 -0.02219,0.06901 -0.02114,0.0098 -0.03277,0.03586 -0.02563,0.0581 0.0071,0.02207 0.0017,0.04816 -0.0111,0.0581 -0.01312,0.0098 -0.02388,4.09e-4 -0.02388,-0.02068 0,-0.0212 -0.01761,-0.0088 -0.0391,0.02862 -0.02247,0.03857 -0.03233,0.09278 -0.02326,0.127179 0.01048,0.03969 0.0026,0.06596 -0.02326,0.078 -0.0215,0.0098 -0.03277,0.03019 -0.0251,0.0451 0.008,0.01484 -0.0034,0.03515 -0.02501,0.04511 -0.02141,0.0098 -0.03329,0.02897 -0.02641,0.04241 0.01991,0.03891 -0.165432,0.392131 -0.194447,0.370537 -0.01436,-0.01082 -0.01868,-0.0061 -0.0096,0.01265 0.02336,0.04546 -0.0089,0.131271 -0.04017,0.107837 -0.01444,-0.01082 -0.01939,-0.0069 -0.01101,0.0098 0.01805,0.03508 -0.114539,0.348621 -0.144117,0.340847 -0.01118,-0.0026 -0.02846,0.01082 -0.0384,0.02992 -0.0126,0.02443 -0.02291,0.01989 -0.03408,-0.01518 z m 0.376148,-0.712493 c -0.008,-0.02408 -0.01392,-0.01684 -0.01507,0.01806 -9.29e-4,0.03175 0.0044,0.04947 0.01312,0.03952 0.008,-0.0098 0.0092,-0.03595 0.0017,-0.05749 z m 0.924913,-2.015881 c -0.008,-0.02408 -0.01392,-0.01684 -0.01507,0.01805 -9.28e-4,0.03176 0.0044,0.04939 0.01312,0.03952 0.008,-0.0098 0.0092,-0.03595 0.0017,-0.05749 z M 16.204741,2.0711463 c -0.008,-0.024002 -0.01392,-0.016865 -0.01507,0.018174 -9.28e-4,0.031714 0.0044,0.049486 0.01312,0.039488 0.008,-0.01 0.0092,-0.035937 0.0017,-0.057662 z"
     id="path6480"
     inkscape:connector-curvature="0" />
</svg>
