<?xml version="1.0" encoding="UTF-8" standalone="no"?>
<!-- Created with Inkscape (http://www.inkscape.org/) -->

<svg
   xmlns:osb="http://www.openswatchbook.org/uri/2009/osb"
   xmlns:dc="http://purl.org/dc/elements/1.1/"
   xmlns:cc="http://creativecommons.org/ns#"
   xmlns:rdf="http://www.w3.org/1999/02/22-rdf-syntax-ns#"
   xmlns:svg="http://www.w3.org/2000/svg"
   xmlns="http://www.w3.org/2000/svg"
   xmlns:sodipodi="http://sodipodi.sourceforge.net/DTD/sodipodi-0.dtd"
   xmlns:inkscape="http://www.inkscape.org/namespaces/inkscape"
   version="1.1"
   id="svg3799"
   width="18"
   height="18"
   viewBox="0 0 18 18.000001"
   sodipodi:docname="repost-white.svg"
   inkscape:version="0.92.3 (2405546, 2018-03-11)">
  <metadata
     id="metadata3805">
    <rdf:RDF>
      <cc:Work
         rdf:about="">
        <dc:format>image/svg+xml</dc:format>
        <dc:type
           rdf:resource="http://purl.org/dc/dcmitype/StillImage" />
        <dc:title></dc:title>
      </cc:Work>
    </rdf:RDF>
  </metadata>
  <defs
     id="defs3803">
    <linearGradient
       id="linearGradient6528"
       osb:paint="solid">
      <stop
         style="stop-color:#f9e108;stop-opacity:1;"
         offset="0"
         id="stop6526" />
    </linearGradient>
    <linearGradient
       id="linearGradient6520"
       osb:paint="solid">
      <stop
         style="stop-color:#f9e108;stop-opacity:1;"
         offset="0"
         id="stop6518" />
    </linearGradient>
    <linearGradient
       id="linearGradient6392"
       osb:paint="solid">
      <stop
         style="stop-color:#ffff51;stop-opacity:1;"
         offset="0"
         id="stop6390" />
    </linearGradient>
    <filter
       inkscape:label="Light Eraser"
       style="color-interpolation-filters:sRGB"
       id="filter4003">
      <feColorMatrix
         values="1 0 0 0 0 0 1 0 0 0 0 0 1 0 0 -21.25 -71.54 -7.21 56.4171 0 "
         result="colormatrix"
         id="feColorMatrix3999" />
      <feComposite
         in2="colormatrix"
         operator="arithmetic"
         k2="1"
         result="fbSourceGraphic"
         id="feComposite4001"
         k1="0"
         k3="0"
         k4="0" />
      <feColorMatrix
         result="fbSourceGraphicAlpha"
         in="fbSourceGraphic"
         values="0 0 0 -1 0 0 0 0 -1 0 0 0 0 -1 0 0 0 0 1 0"
         id="feColorMatrix4005" />
      <feColorMatrix
         id="feColorMatrix4007"
         values="1 0 0 0 0 0 1 0 0 0 0 0 1 0 0 -21.25 -71.54 -7.21 56.4 0 "
         result="colormatrix"
         in="fbSourceGraphic" />
      <feComposite
         in2="colormatrix"
         id="feComposite4009"
         operator="arithmetic"
         k2="1"
         result="composite"
         k1="0"
         k3="0"
         k4="0" />
    </filter>
    <clipPath
       clipPathUnits="userSpaceOnUse"
       id="clipPath828">
      <rect
         style="opacity:1;fill:#f9e108;fill-opacity:1;fill-rule:nonzero;stroke:#f9e108;stroke-width:4;stroke-linejoin:round;stroke-miterlimit:4;stroke-dasharray:none;stroke-opacity:1;paint-order:normal"
         id="rect830"
         width="405.30569"
         height="326.94315"
         x="60.199055"
         y="61.236958" />
    </clipPath>
    <clipPath
       clipPathUnits="userSpaceOnUse"
       id="clipPath974">
      <rect
         style="opacity:1;fill:#c74308;fill-opacity:0;fill-rule:nonzero;stroke:#f9e108;stroke-width:10;stroke-linejoin:round;stroke-miterlimit:4;stroke-dasharray:none;stroke-opacity:1;paint-order:normal"
         id="rect976"
         width="439.55688"
         height="319.67773"
         x="69.540291"
         y="71.616119" />
    </clipPath>
    <clipPath
       clipPathUnits="userSpaceOnUse"
       id="clipPath1020">
      <rect
         style="opacity:1;fill:#c74308;fill-opacity:0;fill-rule:nonzero;stroke:#f9e108;stroke-width:0.94627613;stroke-linejoin:round;stroke-miterlimit:4;stroke-dasharray:none;stroke-opacity:1;paint-order:normal"
         id="rect1022"
         width="351.05371"
         height="351.05371"
         x="79.892578"
         y="42.861786" />
    </clipPath>
  </defs>
  <sodipodi:namedview
     pagecolor="#ffffff"
     bordercolor="#666666"
     borderopacity="1"
     objecttolerance="10"
     gridtolerance="10"
     guidetolerance="10"
     inkscape:pageopacity="0.25882353"
     inkscape:pageshadow="2"
     inkscape:window-width="1853"
     inkscape:window-height="1025"
     id="namedview3801"
     showgrid="false"
     inkscape:pagecheckerboard="true"
     inkscape:zoom="43.601688"
     inkscape:cx="8.5911628"
     inkscape:cy="9.6209415"
     inkscape:window-x="67"
     inkscape:window-y="27"
     inkscape:window-maximized="1"
     inkscape:current-layer="svg3799"
     fit-margin-top="2.7755576e-17"
     fit-margin-left="0"
     fit-margin-right="0"
     fit-margin-bottom="0" />
  <path
     style="opacity:1;fill:#ffffff;fill-opacity:1;fill-rule:nonzero;stroke:#ffffff;stroke-width:0.42220247;stroke-linejoin:round;stroke-miterlimit:4;stroke-dasharray:none;stroke-opacity:1;paint-order:normal"
     d="m 2.0456106,16.837664 c -0.037423,-0.0129 -0.039626,-0.02063 -0.012086,-0.04569 0.024889,-0.02262 0.018873,-0.02631 -0.022991,-0.0145 -0.071319,0.02007 -0.1413635,-0.009 -0.1000062,-0.04209 0.016876,-0.01344 -0.00707,-0.03125 -0.058373,-0.04383 -0.083307,-0.01998 -0.098343,-0.04388 -0.088016,-0.138743 0.00286,-0.02559 -0.00927,-0.03623 -0.030082,-0.02584 -0.022552,0.01161 -0.052885,-0.02426 -0.086387,-0.100925 -0.056592,-0.129356 -0.064551,-0.170055 -0.027468,-0.140636 0.013286,0.0102 0.024164,0.0065 0.024164,-0.0102 0,-0.01624 -0.016312,-0.03765 -0.03625,-0.0476 -0.032025,-0.01571 -0.036242,-0.631245 -0.036242,-5.280353 V 5.6847935 H 0.89928025 c -0.369926,0 -0.6790911,-0.00841 -0.6870359,-0.018554 -0.023412,-0.030074 0.00916,-0.1070662 0.036224,-0.085593 0.013779,0.010964 0.019795,5.378e-4 0.013564,-0.023472 -0.014549,-0.055973 0.1160275,-0.3560703 0.1502251,-0.345283 0.014387,0.00442 0.024352,-0.00939 0.022132,-0.031042 -0.00788,-0.077644 0.00215,-0.1202292 0.024227,-0.102688 0.012382,0.00979 0.038569,-0.011618 0.058212,-0.047604 0.033377,-0.061237 0.036421,-0.061749 0.04669,-0.00829 0.006,0.031447 0.00895,-0.010594 0.00645,-0.093316 -0.00322,-0.1037226 0.00582,-0.1556218 0.028838,-0.1669729 0.018371,-0.00907 0.027683,-0.035617 0.020699,-0.059038 -0.00707,-0.023409 -0.0034,-0.042549 0.00788,-0.042549 0.011334,0 0.026555,-0.029355 0.03386,-0.06521 0.0085,-0.041484 0.024012,-0.056678 0.042804,-0.041773 0.018201,0.014469 0.023313,0.010581 0.013295,-0.010333 -0.02018,-0.041916 0.31686735,-0.8016711 0.35043195,-0.7899334 0.01342,0.00466 0.018103,-0.0044 0.01043,-0.020462 -0.0077,-0.015959 -0.00698,-0.052405 0.00152,-0.080977 0.012463,-0.041719 0.01984,-0.043802 0.037405,-0.010595 0.015327,0.02902 0.019759,0.018284 0.014772,-0.035852 -0.00394,-0.043251 0.00537,-0.077412 0.021066,-0.077606 0.044237,-5.38e-4 0.063378,-0.038718 0.066019,-0.1317098 0.00152,-0.052804 0.014531,-0.082734 0.033806,-0.077681 0.018166,0.00477 0.028336,-0.014785 0.024164,-0.046549 -0.00421,-0.031781 0.006,-0.051341 0.024164,-0.046548 0.017243,0.00442 0.029545,-0.00939 0.027342,-0.031039 -0.00851,-0.083205 0.00269,-0.119777 0.029975,-0.09811 0.018917,0.015019 0.023251,0.00569 0.01308,-0.028374 -0.00833,-0.027942 -0.00206,-0.061678 0.014011,-0.074933 0.016062,-0.013265 0.029205,-0.04506 0.029205,-0.07067 0,-0.025608 0.012695,-0.046549 0.028193,-0.046549 0.015507,0 0.036349,-0.010456 0.046314,-0.023283 0.00997,-0.012904 0.00537,-0.023293 -0.010269,-0.023293 -0.021147,0 -0.020699,-0.015823 0.00179,-0.062083 0.01659,-0.034141 0.044362,-0.062093 0.061668,-0.062093 0.017315,0 0.029724,-0.017462 0.027566,-0.038797 -0.00833,-0.082283 0.00286,-0.1192088 0.029706,-0.097908 0.015954,0.012787 0.02138,0.00857 0.012695,-0.00959 -0.018407,-0.038251 0.071982,-0.2883899 0.1042106,-0.2883899 0.012561,0 0.016581,-0.020949 0.00895,-0.046548 -0.0077,-0.025608 -0.00188,-0.046548 0.012847,-0.046548 0.014719,0 0.026751,-0.018788 0.026751,-0.041745 0,-0.022958 0.020619,-0.065723 0.04583,-0.095024 0.035901,-0.041729 0.048973,-0.044451 0.06037,-0.012642 0.00797,0.022372 0.011012,-0.00477 0.00671,-0.060183 -0.00546,-0.070138 0.00233,-0.1008752 0.025632,-0.1008752 0.018407,0 0.027172,-0.013129 0.019455,-0.029175 -0.0077,-0.016047 0.0068,-0.073077 0.03215,-0.1267211 0.031344,-0.066201 0.050718,-0.084266 0.060334,-0.05618 0.00779,0.02276 0.01171,0.0065 0.00868,-0.03624 -0.00349,-0.050531 0.00573,-0.074635 0.026581,-0.069074 0.017602,0.00469 0.025113,-0.00585 0.016715,-0.023237 -0.016653,-0.034602 0.1085598,-0.3421752 0.1393186,-0.3422264 0.010385,-1.72e-5 0.025749,0.02441 0.034129,0.054288 0.00842,0.029878 0.03625,0.09324 0.06191,0.1407884 0.025659,0.047549 0.040763,0.1062112 0.033538,0.1303437 -0.00842,0.028186 -0.00125,0.038006 0.020144,0.027473 0.023958,-0.011868 0.0295,0.00198 0.019858,0.049477 -0.00929,0.045648 -0.00322,0.063065 0.019884,0.056767 0.019079,-0.00514 0.031881,0.013986 0.029983,0.044909 -0.00179,0.029699 0.00707,0.045755 0.019741,0.03567 0.012677,-0.01008 0.029034,0.011102 0.03634,0.046889 0.00725,0.035861 0.024048,0.065208 0.037208,0.065208 0.013161,0 0.017986,0.019934 0.010708,0.044297 -0.00725,0.024365 0.00233,0.060875 0.021308,0.081114 0.019007,0.020265 0.028596,0.049225 0.021299,0.064353 -0.00725,0.015138 -0.00269,0.027517 0.010278,0.027517 0.034281,0 0.1508446,0.2803866 0.1324499,0.3186206 -0.00859,0.01782 -0.00421,0.023362 0.00977,0.01239 0.030449,-0.024175 0.06139,0.064436 0.038856,0.1112721 -0.00877,0.018193 -0.00448,0.024047 0.00927,0.013066 0.034854,-0.027652 0.087184,0.060714 0.065088,0.1099036 -0.00992,0.022083 -0.00902,0.029664 0.00197,0.016813 0.027521,-0.032068 0.1378754,0.2224966 0.1379596,0.3182393 9.22e-5,0.086305 0.037835,0.1630323 0.06832,0.138837 0.010869,-0.00857 0.02659,-0.00155 0.034943,0.015867 0.00833,0.017353 0.00403,0.031537 -0.00966,0.031537 -0.013653,0 -0.018219,0.022119 -0.010135,0.049179 0.010941,0.036618 0.019365,0.039431 0.033045,0.011102 0.012409,-0.025797 0.03189,-0.00466 0.060083,0.06546 0.022946,0.057002 0.063646,0.1533197 0.090435,0.2140501 0.026787,0.06072 0.075805,0.1732717 0.1089431,0.2500984 0.033126,0.076817 0.070576,0.1565337 0.083236,0.1771257 0.012659,0.020608 0.014951,0.054182 0.0051,0.074652 -0.01069,0.022204 -0.0077,0.029085 0.00743,0.017058 0.030924,-0.024555 0.061005,0.064191 0.038721,0.1142257 -0.00886,0.019795 -0.00734,0.025995 0.00313,0.013776 0.034281,-0.039773 0.1472653,0.1914282 0.1362389,0.2788074 -0.00278,0.02161 0.00914,0.035593 0.026384,0.031041 0.018165,-0.00477 0.028345,0.014785 0.024164,0.046549 -0.00421,0.03179 0.006,0.051339 0.024164,0.046549 0.020001,-0.00523 0.028587,0.017264 0.023699,0.062272 -0.00421,0.038797 0.00125,0.068572 0.012087,0.066165 0.048874,-0.010837 0.064918,0.00657 0.031819,0.034501 -0.030744,0.025914 -0.028891,0.033187 0.012086,0.047676 0.054479,0.019284 0.1154232,0.1597566 0.092106,0.2122945 -0.00842,0.01894 -0.00654,0.02432 0.00412,0.012003 0.025167,-0.029242 0.1623842,0.2486893 0.166481,0.3372218 0.0017,0.037432 0.014011,0.065732 0.027324,0.062912 0.013286,-0.0028 0.020923,0.0195 0.016975,0.049646 -0.00421,0.03179 0.006,0.051342 0.024164,0.046549 0.017243,-0.00442 0.029867,0.016046 0.028041,0.045746 -0.00179,0.029699 0.00519,0.047235 0.015578,0.038987 0.010394,-0.00829 0.023887,0.00234 0.029966,0.023626 0.031881,0.1113748 0.00394,0.1162282 -0.672542,0.1162282 H 2.8525633 v 4.7648217 4.764819 h 4.3390398 c 2.3981152,0 4.3333249,0.01163 4.3262629,0.02667 -0.0071,0.01458 0.01137,0.02107 0.04087,0.01458 0.06538,-0.01458 0.273488,0.119268 0.265083,0.170374 -0.0033,0.02006 0.0075,0.03334 0.02416,0.02901 0.01662,-0.0035 0.0273,0.0102 0.02373,0.0327 -0.0035,0.02208 0.01003,0.06162 0.03021,0.08749 0.02176,0.02795 0.03668,0.0328 0.03668,0.01153 0,-0.01921 0.0098,-0.02722 0.0219,-0.01766 0.01205,0.009 0.01654,0.04884 0.01,0.08722 -0.009,0.05296 -0.0061,0.0591 0.01231,0.02559 0.01861,-0.03407 0.03113,-0.0129 0.05417,0.09304 0.04451,0.203917 0.04359,0.447311 -0.0017,0.44907 -0.01993,7.93e-4 -0.03224,0.02172 -0.02733,0.04659 0.01582,0.08009 0.01558,0.107252 -8.95e-4,0.107252 -0.04063,0 -0.138594,0.154919 -0.13397,0.211849 0.0064,0.07831 -0.155424,0.206872 -0.23294,0.185267 -0.03749,-0.0102 -0.04293,-0.0065 -0.01963,0.01479 0.02484,0.02262 0.01929,0.03387 -0.02416,0.04856 -0.06601,0.02236 -9.4828913,0.02063 -9.5507198,-8.88e-4 z M 1.685027,16.38845 c -0.0077,-0.02471 -0.013438,-0.01739 -0.014602,0.01875 -9.849e-4,0.0328 0.00457,0.051 0.012695,0.04074 0.00806,-0.0102 0.00886,-0.03711 0.00188,-0.05947 z m 1.2702785,-1.132223 c -0.016617,-0.009 -0.043798,-0.009 -0.060415,0 -0.016617,0.009 -0.00295,0.01569 0.030198,0.01569 0.033233,0 0.046815,-0.0065 0.030198,-0.01569 z m 6.3935508,-0.0028 c -1.1519211,-0.0054 -3.0440375,-0.0054 -4.2047077,0 -1.1606685,0.0054 -0.2181897,0.0082 2.0944002,0.0082 2.3125895,0 3.2622262,-0.0035 2.1103075,-0.0082 z M 2.9416057,3.0101355 c -0.0077,-0.024753 -0.013438,-0.01741 -0.014611,0.018762 -9.848e-4,0.032734 0.00457,0.051063 0.012686,0.040727 0.00806,-0.010323 0.00886,-0.037089 0.00188,-0.059486 z m 0,-0.1552055 c -0.0077,-0.024753 -0.013438,-0.0174 -0.014611,0.018762 -9.848e-4,0.032733 0.00457,0.051064 0.012686,0.040727 0.00806,-0.010322 0.00886,-0.037079 0.00188,-0.059486 z"
     id="path4878"
     inkscape:connector-curvature="0" />
  <path
     style="opacity:1;fill:#f9e108;fill-opacity:1;fill-rule:nonzero;stroke:#f9e108;stroke-width:0.42148668;stroke-linejoin:round;stroke-miterlimit:4;stroke-dasharray:none;stroke-opacity:1;paint-order:normal"
     d="m 15.842046,16.79929 c -0.0089,-0.02842 -0.0094,-0.06654 -6.84e-4,-0.08483 0.0089,-0.01875 0.004,-0.02395 -0.01097,-0.01185 -0.03018,0.02422 -0.08798,-0.09085 -0.06749,-0.134341 0.0076,-0.01577 -0.0102,-0.04483 -0.0392,-0.06447 -0.03864,-0.0262 -0.04464,-0.04233 -0.02245,-0.05983 0.01662,-0.01328 0.0218,-0.04108 0.01159,-0.06178 -0.01336,-0.027 -0.02327,-0.02807 -0.03485,-0.0027 -0.02292,0.04851 -0.126113,-0.202123 -0.110375,-0.268121 0.01078,-0.0453 0.0088,-0.04639 -0.01278,-0.0071 -0.02266,0.04116 -0.02589,0.04116 -0.02931,0 -0.0019,-0.02546 -0.0024,-0.06413 -2.19e-4,-0.08564 0.0038,-0.04071 -0.07068,-0.150618 -0.09502,-0.14051 -0.0078,0.0027 -0.0106,-0.01561 -0.0065,-0.04171 0.004,-0.0262 -0.0039,-0.03911 -0.01663,-0.02852 -0.03053,0.02421 -0.102956,-0.153873 -0.0765,-0.188231 0.01097,-0.01427 0.0095,-0.04682 -0.0035,-0.07229 -0.0192,-0.03794 -0.02343,-0.03514 -0.02374,0.01568 -1.89e-4,0.05714 -0.0026,0.05757 -0.02568,0.0081 -0.01399,-0.02995 -0.01897,-0.06788 -0.01115,-0.08483 0.0084,-0.01776 -0.0028,-0.0218 -0.0272,-0.01008 -0.03133,0.01535 -0.03797,0.0081 -0.02719,-0.02923 0.0082,-0.02735 0.0072,-0.05427 -0.0023,-0.05927 -0.01826,-0.01008 -0.152959,-0.261881 -0.153258,-0.286068 -1.02e-4,-0.0081 -0.03368,-0.08574 -0.07462,-0.17213 -0.07041,-0.148709 -0.107069,-0.289327 -0.04845,-0.18557 0.02335,0.04116 0.02496,0.04116 0.01475,0 -0.0063,-0.02555 -0.02377,-0.04288 -0.03889,-0.03848 -0.03048,0.0091 -0.129438,-0.176275 -0.112999,-0.211201 0.0059,-0.0121 -0.0063,-0.0305 -0.02752,-0.04072 -0.02081,-0.01008 -0.03123,-0.03256 -0.0232,-0.04951 0.0083,-0.01715 0.0029,-0.0313 -0.01156,-0.0313 -0.02947,0 -0.08565,-0.149281 -0.07866,-0.209263 0.0022,-0.02151 -0.0094,-0.03542 -0.02643,-0.03095 -0.02062,0.0062 -0.02958,-0.02259 -0.02678,-0.08476 0.0034,-0.07221 -8.9e-5,-0.07965 -0.01456,-0.03319 -0.01605,0.05075 -0.02108,0.05236 -0.03409,0.01115 -0.008,-0.02693 -0.0096,-0.07802 -0.0031,-0.113723 0.0074,-0.0364 7.91e-4,-0.06476 -0.01376,-0.06476 -0.01439,0 -0.01976,0.02091 -0.01178,0.04629 0.008,0.02546 0.0048,0.04608 -0.0062,0.04575 -0.01141,-3.06e-4 -0.04851,-0.07326 -0.08258,-0.162385 -0.03397,-0.08907 -0.09861,-0.238027 -0.14358,-0.331166 -0.04493,-0.09317 -0.07642,-0.187807 -0.06997,-0.210382 0.0065,-0.02261 0.0021,-0.03368 -0.0089,-0.02442 -0.01139,0.0091 -0.05014,-0.0389 -0.08597,-0.106596 -0.03593,-0.06783 -0.058,-0.123198 -0.04907,-0.123198 0.0088,0 -4.88e-4,-0.02432 -0.02085,-0.05418 -0.03713,-0.05438 -0.06241,-0.12265 -0.06475,-0.17506 -6.95e-4,-0.01549 -0.01769,-0.03978 -0.03772,-0.05405 -0.0214,-0.01521 -0.03269,-0.05469 -0.02724,-0.09556 0.0055,-0.0383 0.0027,-0.05112 -0.0054,-0.02848 -0.01009,0.02848 -0.02898,0.01156 -0.06139,-0.05486 -0.02577,-0.05285 -0.04692,-0.103382 -0.04704,-0.112309 -1.1e-4,-0.009 0.299518,-0.01397 0.665845,-0.0112 0.366326,0.0028 0.673507,-0.0047 0.682626,-0.01651 0.0202,-0.02625 -0.07765,-9.2691843 -0.09969,-9.4109417 L 15.047562,2.8675988 10.691858,2.8671217 C 7.6026491,2.8664917 6.3465193,2.8567892 6.3719522,2.8334049 6.4000016,2.8075843 6.39459,2.8040868 6.3468926,2.8172701 6.2823831,2.8350913 6.0700573,2.7207836 6.06563,2.6658729 6.05953,2.5869132 6.020621,2.5249435 5.987854,2.5411282 5.962548,2.5536485 5.956372,2.5442561 5.966667,2.5085366 5.976792,2.473336 5.970417,2.4634327 5.946577,2.4753892 5.868276,2.5140887 5.8110855,2.0688976 5.879564,1.9538568 5.890084,1.9362878 5.888274,1.9014907 5.875274,1.87653 5.8491,1.8249173 5.842073,1.7329478 5.866164,1.7638946 5.885188,1.7878768 5.94655,1.7283352 5.946031,1.6863883 5.9458335,1.6704491 5.93488,1.6660197 5.92174,1.6765242 c -0.034741,0.027784 -0.029802,-0.00683 0.013573,-0.093613 0.02086,-0.041776 0.047615,-0.068411 0.0594,-0.059174 0.011794,0.00924 0.016251,-0.00134 0.00985,-0.023461 -0.016536,-0.057157 0.1010768,-0.1588269 0.1837392,-0.1588269 0.039188,0 0.057021,-0.00986 0.040776,-0.022572 -0.1109928,-0.086923 0.3097076,-0.094174 4.9201888,-0.084858 4.367025,0.00887 4.695121,0.01311 4.77451,0.062404 0.05818,0.036126 0.0706,0.053281 0.03893,0.054125 -0.06428,0.00172 -0.03913,0.025201 0.0474,0.04434 0.0772,0.017057 0.274843,0.2628769 0.236893,0.2945779 -0.01181,0.00986 -0.01254,0.045818 -0.0016,0.079846 0.01134,0.035283 0.02047,0.043022 0.02109,0.018027 6e-4,-0.024098 0.0064,-0.036771 0.01361,-0.02816 0.007,0.00852 0.04172,2.3712896 0.07746,5.2503994 0.04351,3.5017224 0.07363,5.2542764 0.09042,5.2937434 0.01842,0.04284 0.01742,0.05901 -0.0036,0.05901 -0.01601,0 -0.02239,0.0083 -0.01435,0.01859 0.0079,0.01016 0.330871,0.01656 0.717249,0.01405 0.474798,-0.0032 0.702621,0.006 0.702891,0.0278 2.19e-4,0.01775 -0.0084,0.03233 -0.01928,0.03233 -0.01082,0 -0.03396,0.04875 -0.05154,0.108248 -0.0175,0.05955 -0.03946,0.10825 -0.04864,0.10825 -0.0093,0 -0.02246,0.02923 -0.02934,0.06498 -0.008,0.04134 -0.02331,0.05647 -0.04232,0.04164 -0.01814,-0.01425 -0.02346,-0.01049 -0.0135,0.0097 0.009,0.01808 0.0097,0.05621 0.0015,0.08469 -0.01185,0.04125 -0.01915,0.0434 -0.03582,0.01049 -0.01607,-0.03157 -0.02089,-0.02859 -0.02063,0.01287 1.81e-4,0.02978 -0.01177,0.05413 -0.0265,0.05413 -0.01475,0 -0.01983,0.02211 -0.01141,0.04926 0.02128,0.06815 -0.008,0.123572 -0.03694,0.07005 -0.01718,-0.03175 -0.02163,-0.02694 -0.01816,0.0199 0.0081,0.110504 8.78e-4,0.143279 -0.02814,0.120768 -0.01695,-0.01318 -0.02147,-0.0091 -0.01143,0.01178 0.0214,0.04311 -0.06392,0.23069 -0.09094,0.199828 -0.01116,-0.01277 -0.01271,-0.007 -0.0032,0.01317 0.02144,0.04673 -0.07493,0.263439 -0.106191,0.23892 -0.01299,-0.01008 -0.02103,3.13e-4 -0.01777,0.02333 0.0084,0.05883 -0.03145,0.176807 -0.06034,0.179434 -0.0229,0.0017 -0.02613,0.01463 -0.03226,0.125209 -0.002,0.04127 -0.0055,0.04127 -0.02904,0 -0.02114,-0.03703 -0.02382,-0.03191 -0.01332,0.02504 0.0083,0.04582 4.41e-4,0.07776 -0.02234,0.08915 -0.01955,0.01008 -0.02959,0.0367 -0.02234,0.05991 0.0072,0.02334 0.0031,0.04234 -0.01009,0.04234 -0.01286,0 -0.02308,0.02778 -0.02266,0.06188 4.22e-4,0.03407 -0.008,0.06188 -0.01891,0.06188 -0.01081,0 -0.0372,0.0487 -0.05869,0.108279 -0.02149,0.05964 -0.05009,0.108283 -0.06355,0.108283 -0.01354,0 -0.02174,0.01185 -0.01815,0.02636 0.01159,0.04771 -0.153477,0.404542 -0.17816,0.385231 -0.01392,-0.01114 -0.0163,-0.0027 -0.0057,0.01848 0.01048,0.02099 -0.0066,0.08736 -0.03841,0.151693 -0.03132,0.06275 -0.06393,0.139433 -0.07249,0.170294 -0.0092,0.03291 -0.02743,0.04682 -0.0443,0.03363 -0.01952,-0.01526 -0.02351,-0.0062 -0.01231,0.03023 0.01037,0.0331 0.0023,0.05928 -0.02058,0.07095 -0.02031,0.01008 -0.03124,0.03684 -0.02404,0.05975 0.0072,0.02267 0.0022,0.04951 -0.01,0.05974 -0.01256,0.01008 -0.02308,4.22e-4 -0.02335,-0.02126 -2.68e-4,-0.0218 -0.01714,-0.0091 -0.03744,0.02941 -0.02124,0.03965 -0.03008,0.09538 -0.02086,0.130737 0.0106,0.04081 0.0034,0.0678 -0.0215,0.08018 -0.02066,0.01008 -0.0313,0.03103 -0.02369,0.04639 0.008,0.01526 -0.003,0.03614 -0.02362,0.04638 -0.02056,0.01008 -0.03183,0.02978 -0.025,0.04359 0.01974,0.03999 -0.154968,0.40309 -0.183297,0.380892 -0.01402,-0.01116 -0.01814,-0.0062 -0.0091,0.01301 0.02317,0.04671 -0.007,0.134942 -0.03747,0.110849 -0.01411,-0.01114 -0.01885,-0.0071 -0.01052,0.01008 0.0179,0.03605 -0.106314,0.358361 -0.135009,0.350371 -0.01084,-0.0027 -0.02737,0.01115 -0.03675,0.03078 -0.01188,0.02512 -0.0219,0.02045 -0.03315,-0.0156 z m 0.354633,-0.732404 c -0.008,-0.02475 -0.01367,-0.01732 -0.01435,0.01857 -4.94e-4,0.03264 0.0048,0.05086 0.01319,0.04065 0.0077,-0.01008 0.0083,-0.03694 9.4e-4,-0.05911 z m 0.868651,-2.07222 c -0.008,-0.02474 -0.01367,-0.01731 -0.01435,0.01857 -4.94e-4,0.03264 0.0048,0.05075 0.01319,0.04065 0.0077,-0.01008 0.0083,-0.03693 9.4e-4,-0.05911 z M 16.213087,1.7778906 c -0.008,-0.024673 -0.01368,-0.017338 -0.01435,0.018681 -4.93e-4,0.032599 0.0048,0.050869 0.01319,0.040591 0.0077,-0.010283 0.0084,-0.03694 9.38e-4,-0.059273 z"
     id="path6480"
     inkscape:connector-curvature="0" />
</svg>
