<?xml version="1.0" encoding="UTF-8"?>
<svg width="24px" height="24px" viewBox="0 0 24 24" version="1.1" xmlns="http://www.w3.org/2000/svg" xmlns:xlink="http://www.w3.org/1999/xlink">
    <!-- Generator: Sketch 47 (45396) - http://www.bohemiancoding.com/sketch -->
    <title>Icon/Scores</title>
    <desc>Created with Sketch.</desc>
    <defs></defs>
    <g id="Page-1" stroke="none" stroke-width="1" fill="none" fill-rule="evenodd">
        <g id="Guideline" transform="translate(-852.000000, -1760.000000)" fill="#0A1620" fill-opacity="0.37">
            <g id="Icons" transform="translate(0.000000, 1648.000000)">
                <g id="Content" transform="translate(652.000000, 112.000000)">
                    <g id="Icon/Scores" transform="translate(200.000000, 0.000000)">
                        <path d="M21,17.015625 L21,3 L6.984375,3 L6.984375,17.015625 L21,17.015625 Z M21,0.984375 C21.5312527,0.984375 21.999998,1.18749797 22.40625,1.59375 C22.812502,2.00000203 23.015625,2.46874734 23.015625,3 L23.015625,17.015625 C23.015625,17.5468777 22.812502,18.0078105 22.40625,18.3984375 C21.999998,18.7890645 21.5312527,18.984375 21,18.984375 L6.984375,18.984375 C6.45312234,18.984375 5.99218945,18.7890645 5.6015625,18.3984375 C5.21093555,18.0078105 5.015625,17.5468777 5.015625,17.015625 L5.015625,3 C5.015625,2.46874734 5.21093555,2.00000203 5.6015625,1.59375 C5.99218945,1.18749797 6.45312234,0.984375 6.984375,0.984375 L21,0.984375 Z M3,5.015625 L3,21 L18.984375,21 L18.984375,23.015625 L3,23.015625 C2.46874734,23.015625 2.00000203,22.812502 1.59375,22.40625 C1.18749797,21.999998 0.984375,21.5312527 0.984375,21 L0.984375,5.015625 L3,5.015625 Z" id="Filter-None---MaterialIcons-Regular"></path>
                    </g>
                </g>
            </g>
        </g>
    </g>
</svg>