<?xml version="1.0" encoding="UTF-8"?>
<svg width="24px" height="24px" viewBox="0 0 24 24" version="1.1" xmlns="http://www.w3.org/2000/svg" xmlns:xlink="http://www.w3.org/1999/xlink">
    <!-- Generator: Sketch 47 (45396) - http://www.bohemiancoding.com/sketch -->
    <title>Icon/Tw</title>
    <desc>Created with Sketch.</desc>
    <defs></defs>
    <g id="Page-1" stroke="none" stroke-width="1" fill="none" fill-rule="evenodd">
        <g id="Guideline" transform="translate(-412.000000, -1816.000000)" fill="#03A9F4">
            <g id="Icons" transform="translate(0.000000, 1648.000000)">
                <g id="Social" transform="translate(228.000000, 152.000000)">
                    <g id="Icon/Tw" transform="translate(184.000000, 16.000000)">
                        <path d="M20.7946644,6.41069928 C20.1473422,6.68971747 19.4442164,6.89061056 18.7187691,6.96873566 C19.4665378,6.52230655 20.0357349,5.81918072 20.3035924,4.98212615 C19.6116273,5.39507307 18.8303764,5.69641271 18.0156432,5.8526629 C17.3571603,5.14953706 16.4196592,4.71426868 15.3817115,4.71426868 C13.3839413,4.71426868 11.7767965,6.33257418 11.7767965,8.3191837 C11.7767965,8.59820189 11.8102787,8.87722008 11.8660823,9.14507754 C8.87500734,8.98882735 6.20759345,7.56025422 4.43303776,5.37275161 C4.12053739,5.90846654 3.94196575,6.52230655 3.94196575,7.19195021 C3.94196575,8.4419517 4.57812722,9.54686373 5.54911052,10.1941859 C4.95759196,10.1718645 4.39955558,10.0044536 3.91964429,9.7365961 L3.91964429,9.78123901 C3.91964429,11.5334732 5.15848506,12.9843678 6.81027274,13.3191897 C6.50893309,13.3973147 6.18527199,13.4419577 5.86161089,13.4419577 C5.62723562,13.4419577 5.40402106,13.4196362 5.18080651,13.386154 C5.63839634,14.8147272 6.96652293,15.8526748 8.55134624,15.886157 C7.31250548,16.8571403 5.76116435,17.4263374 4.07589448,17.4263374 C3.77455484,17.4263374 3.49553665,17.4151767 3.20535773,17.3816945 C4.80134177,18.4084814 6.69866546,19 8.74107861,19 C15.3705508,19 18.9977873,13.508922 18.9977873,8.74329134 C18.9977873,8.58704116 18.9977873,8.43079097 18.9866265,8.27454079 C19.6897524,7.76114732 20.3035924,7.12498584 20.7946644,6.41069928 Z" id="Mask"></path>
                    </g>
                </g>
            </g>
        </g>
    </g>
</svg>