<?xml version="1.0" encoding="UTF-8"?>
<svg width="24px" height="24px" viewBox="0 0 24 24" version="1.1" xmlns="http://www.w3.org/2000/svg" xmlns:xlink="http://www.w3.org/1999/xlink">
    <!-- Generator: Sketch 47 (45396) - http://www.bohemiancoding.com/sketch -->
    <title>Icon/Userpic</title>
    <desc>Created with Sketch.</desc>
    <defs></defs>
    <g id="Page-1" stroke="none" stroke-width="1" fill="none" fill-rule="evenodd">
        <g id="Guideline" transform="translate(-252.000000, -1760.000000)" fill="#0A1620" fill-opacity="0.37">
            <g id="Icons" transform="translate(0.000000, 1648.000000)">
                <g id="Navigate" transform="translate(252.000000, 112.000000)">
                    <g id="Icon/Userpic">
                        <path d="M12,0 C15.3077088,0 18.1346037,1.17306519 20.4807692,3.51923077 C22.8269348,5.86539635 24,8.69229115 24,12 C24,15.3077088 22.8269348,18.1346037 20.4807692,20.4807692 C18.1346037,22.8269348 15.3077088,24 12,24 C8.69229115,24 5.86539635,22.8269348 3.51923077,20.4807692 C1.17306519,18.1346037 0,15.3077088 0,12 C0,8.69229115 1.17306519,5.86539635 3.51923077,3.51923077 C5.86539635,1.17306519 8.69229115,0 12,0 Z M12,0.980769231 C8.96152327,0.980769231 6.36539538,2.05768154 4.21153846,4.21153846 C2.05768154,6.36539538 0.980769231,8.96152327 0.980769231,12 C0.980769231,14.6538594 1.84614519,16.9999898 3.57692308,19.0384615 C5.11539231,18.3461504 6.84614423,17.7307719 8.76923077,17.1923077 C8.88461596,17.1153842 8.94230769,16.9230785 8.94230769,16.6153846 C8.94230769,15.9999969 8.86538538,15.5384631 8.71153846,15.2307692 C8.51922981,14.8076902 8.34615462,14.2115423 8.19230769,13.4423077 C7.84615212,12.9807669 7.57692404,12.3461579 7.38461538,11.5384615 C7.26923019,10.9230738 7.28846077,10.3846177 7.44230769,9.92307692 L7.44230769,9.80769231 C7.55769288,9.423075 7.50000115,8.69231308 7.26923077,7.61538462 C7.07692212,6.61537962 7.36538077,5.61538962 8.13461538,4.61538462 C8.86538827,3.65384135 9.98076173,3.11538519 11.4807692,3 L12.5192308,3 C14.0192383,3.07692346 15.1346117,3.61537962 15.8653846,4.61538462 C16.6346192,5.61538962 16.9230779,6.61537962 16.7307692,7.61538462 C16.4999988,8.69231308 16.4423071,9.423075 16.5576923,9.80769231 C16.596154,9.84615404 16.6153846,9.88461519 16.6153846,9.92307692 C16.7307698,10.3076942 16.7307698,10.8461504 16.6153846,11.5384615 C16.4615377,12.3076962 16.1923096,12.9230746 15.8076923,13.3846154 C15.6538454,14.2307735 15.4807702,14.8461519 15.2884615,15.2307692 C15.0576912,15.7692335 14.9423077,16.2115367 14.9423077,16.5576923 C14.9423077,16.9423096 14.9807688,17.153846 15.0576923,17.1923077 C16.9807788,17.7692337 18.7692225,18.3846121 20.4230769,19.0384615 C22.1538548,16.9999898 23.0192308,14.6538594 23.0192308,12 C23.0192308,8.96152327 21.9423185,6.36539538 19.7884615,4.21153846 C17.6346046,2.05768154 15.0384767,0.980769231 12,0.980769231 Z" id="ios-contact-outline---ionicons"></path>
                    </g>
                </g>
            </g>
        </g>
    </g>
</svg>