<?xml version="1.0" encoding="UTF-8"?>
<svg width="24px" height="24px" viewBox="0 0 24 24" version="1.1" xmlns="http://www.w3.org/2000/svg" xmlns:xlink="http://www.w3.org/1999/xlink">
    <!-- Generator: Sketch 47 (45396) - http://www.bohemiancoding.com/sketch -->
    <title>Icon/Vk</title>
    <desc>Created with Sketch.</desc>
    <defs></defs>
    <g id="Page-1" stroke="none" stroke-width="1" fill="none" fill-rule="evenodd">
        <g id="Guideline" transform="translate(-452.000000, -1816.000000)" fill="#FFFFFF">
            <g id="Icons" transform="translate(0.000000, 1648.000000)">
                <g id="Social" transform="translate(228.000000, 152.000000)">
                    <g id="Icon/Vk" transform="translate(224.000000, 16.000000)">
                        <path d="M22.6808291,7.66070077 C22.6808291,7.66070077 22.5245789,7.21427166 21.5535956,7.33703967 L18.339306,7.35936112 C18.09377,7.32587894 17.9151984,7.42632549 17.9151984,7.42632549 C17.9151984,7.42632549 17.725466,7.52677204 17.6361802,7.77230804 C17.111626,9.12275608 16.4419824,10.2834718 16.4419824,10.2834718 C15.0134092,12.7165104 14.4330514,12.8504391 14.1986761,12.6941889 C13.6518005,12.3482064 13.7968899,11.2879372 13.7968899,10.5290078 C13.7968899,8.16293351 14.1540332,7.18078948 13.0937641,6.92409275 C12.7477815,6.84596765 12.4910848,6.79016402 11.5870659,6.77900329 C10.4375109,6.76784256 9.46652761,6.77900329 8.91965196,7.04686075 C8.55134795,7.22543239 8.27232976,7.62721859 8.43974067,7.64954004 C8.6517945,7.68302222 9.13170578,7.78346877 9.38840252,8.12945133 C9.38840252,8.12945133 9.66742071,8.58704116 9.71206362,9.59150664 C9.83483162,12.3705278 9.26563451,12.7165104 9.26563451,12.7165104 C8.83036614,12.9508856 8.07143666,12.5602602 6.9553639,10.2611503 C6.9553639,10.2611503 6.3080417,9.12275608 5.80580896,7.87275459 C5.71652314,7.63837931 5.5379515,7.51561131 5.5379515,7.51561131 C5.5379515,7.51561131 5.3370584,7.35936112 5.04687948,7.31471821 L1.98884012,7.33703967 C1.52008957,7.33703967 1.35267865,7.54909349 1.35267865,7.54909349 C1.35267865,7.54909349 1.18526774,7.72766513 1.34151792,8.09596914 C3.72991363,13.7098151 6.45313116,16.5223185 6.45313116,16.5223185 C6.45313116,16.5223185 8.94197341,19.122768 11.7656375,18.9441964 L13.0491212,18.9441964 C13.4397466,18.9107142 13.6406397,18.6986604 13.6406397,18.6986604 C13.6406397,18.6986604 13.8192114,18.4977673 13.8080506,18.1294632 C13.7857292,16.4107112 14.5893016,16.1540145 14.5893016,16.1540145 C15.3705525,15.9084785 16.375018,17.8169629 17.4464478,18.5535709 C17.4464478,18.5535709 18.261181,19.1116073 18.875021,18.9888393 L21.7321672,18.9441964 C23.2388655,18.9330356 22.5245789,17.6830341 22.5245789,17.6830341 C22.4687753,17.5825876 22.111632,16.8124974 20.3928799,15.2165133 C18.6071635,13.5535649 18.8415388,13.8214224 21.0067199,10.9419547 C22.3236858,9.18972045 22.84824,8.1182906 22.6808291,7.66070077 Z" id="Mask"></path>
                    </g>
                </g>
            </g>
        </g>
    </g>
</svg>