<?xml version="1.0" encoding="UTF-8"?>
<svg width="24px" height="24px" viewBox="0 0 24 24" version="1.1" xmlns="http://www.w3.org/2000/svg" xmlns:xlink="http://www.w3.org/1999/xlink">
    <!-- Generator: Sketch 47 (45396) - http://www.bohemiancoding.com/sketch -->
    <title>Icon/Wallet</title>
    <desc>Created with Sketch.</desc>
    <defs></defs>
    <g id="Page-1" stroke="none" stroke-width="1" fill="none" fill-rule="evenodd">
        <g id="Guideline" transform="translate(-1092.000000, -1760.000000)" fill="#920193">
            <g id="Icons" transform="translate(0.000000, 1648.000000)">
                <g id="Content" transform="translate(652.000000, 112.000000)">
                    <g id="Icon/Wallet" transform="translate(440.000000, 0.000000)">
                        <path d="M14.90625,13.078125 C15.2187516,13.3593764 15.578123,13.5 15.984375,13.5 C16.390627,13.5 16.742186,13.3593764 17.0390625,13.078125 C17.335939,12.7968736 17.484375,12.4375022 17.484375,12 C17.484375,11.5624978 17.335939,11.2031264 17.0390625,10.921875 C16.742186,10.6406236 16.390627,10.5 15.984375,10.5 C15.578123,10.5 15.226564,10.6406236 14.9296875,10.921875 C14.632811,11.2031264 14.484375,11.5624978 14.484375,12 C14.484375,12.4375022 14.6249986,12.7968736 14.90625,13.078125 Z M12,15.984375 L12,8.015625 L21.984375,8.015625 L21.984375,15.984375 L12,15.984375 Z M21,18 L21,18.984375 C21,19.5156277 20.796877,19.984373 20.390625,20.390625 C19.984373,20.796877 19.5156277,21 18.984375,21 L5.015625,21 C4.45312219,21 3.97656445,20.796877 3.5859375,20.390625 C3.19531055,19.984373 3,19.5156277 3,18.984375 L3,5.015625 C3,4.48437234 3.19531055,4.01562703 3.5859375,3.609375 C3.97656445,3.20312297 4.45312219,3 5.015625,3 L18.984375,3 C19.5156277,3 19.984373,3.20312297 20.390625,3.609375 C20.796877,4.01562703 21,4.48437234 21,5.015625 L21,6 L12,6 C11.4374972,6 10.9609395,6.20312297 10.5703125,6.609375 C10.1796855,7.01562703 9.984375,7.48437234 9.984375,8.015625 L9.984375,15.984375 C9.984375,16.5156277 10.1796855,16.984373 10.5703125,17.390625 C10.9609395,17.796877 11.4374972,18 12,18 L21,18 Z" id="î¡"></path>
                    </g>
                </g>
            </g>
        </g>
    </g>
</svg>